<svg width="20" height="20" viewBox="0 0 20 20" fill="none" xmlns="http://www.w3.org/2000/svg">
<path d="M13 17V15.3333C13 14.4493 12.6689 13.6014 12.0795 12.9763C11.4901 12.3512 10.6907 12 9.85714 12H5.14286C4.30932 12 3.50992 12.3512 2.92052 12.9763C2.33112 13.6014 2 14.4493 2 15.3333V17" stroke="#808080" stroke-width="1.5" stroke-linecap="round" stroke-linejoin="round"/>
<path d="M8 9C9.65685 9 11 7.65685 11 6C11 4.34315 9.65685 3 8 3C6.34315 3 5 4.34315 5 6C5 7.65685 6.34315 9 8 9Z" stroke="#808080" stroke-width="1.5" stroke-linecap="round" stroke-linejoin="round"/>
<path d="M18 17V15.2964C17.9993 14.5415 17.7044 13.8082 17.1614 13.2115C16.6184 12.6149 15.8581 12.1887 15 12" stroke="#808080" stroke-width="1.5" stroke-linecap="round" stroke-linejoin="round"/>
<path d="M13 3C13.5721 3.17056 14.0792 3.55796 14.4413 4.10114C14.8034 4.64432 15 5.31238 15 6C15 6.68762 14.8034 7.35567 14.4413 7.89886C14.0792 8.44204 13.5721 8.82944 13 9" stroke="#808080" stroke-width="1.5" stroke-linecap="round" stroke-linejoin="round"/>
</svg>
