<svg width="20" height="20" viewBox="0 0 20 20" fill="none" xmlns="http://www.w3.org/2000/svg">
<path d="M12.2505 2H7.75049C7.33627 2 7.00049 2.33579 7.00049 2.75V4.25C7.00049 4.66421 7.33627 5 7.75049 5H12.2505C12.6647 5 13.0005 4.66421 13.0005 4.25V2.75C13.0005 2.33579 12.6647 2 12.2505 2Z" stroke="#808080" stroke-width="1.5" stroke-linecap="round" stroke-linejoin="round"/>
<path d="M13.0005 4H14.5005C14.8983 4 15.2798 4.16389 15.5611 4.45561C15.8425 4.74733 16.0005 5.143 16.0005 5.55556V16.4444C16.0005 16.857 15.8425 17.2527 15.5611 17.5444C15.2798 17.8361 14.8983 18 14.5005 18H5.50049C5.10266 18 4.72113 17.8361 4.43983 17.5444C4.15852 17.2527 4.00049 16.857 4.00049 16.4444V5.55556C4.00049 5.143 4.15852 4.74733 4.43983 4.45561C4.72113 4.16389 5.10266 4 5.50049 4H7.00049" stroke="#808080" stroke-width="1.5" stroke-linecap="round" stroke-linejoin="round"/>
</svg>
