<svg width="81" height="80" viewBox="0 0 81 80" fill="none" xmlns="http://www.w3.org/2000/svg">
<g filter="url(#filter0_i_3363_18473)">
<circle cx="40.5" cy="40" r="40" fill="url(#paint0_linear_3363_18473)"/>
</g>
<path d="M34.7876 25.105C33.1916 25.1803 32.1018 25.435 31.1489 25.8093C30.1629 26.1936 29.327 26.7093 28.4954 27.5439C27.6639 28.3785 27.1516 29.2149 26.7701 30.2026C26.4009 31.1574 26.1506 32.2483 26.0801 33.8451C26.0096 35.442 25.994 35.9554 26.0019 40.0289C26.0096 44.1021 26.0276 44.6127 26.105 46.213C26.1812 47.8086 26.435 48.8982 26.8094 49.8513C27.1944 50.8374 27.7094 51.6729 28.5444 52.5048C29.3792 53.3367 30.215 53.8477 31.205 54.2298C32.159 54.5986 33.2501 54.8499 34.8468 54.9198C36.4434 54.9898 36.9573 55.0061 41.0295 54.9982C45.1018 54.9904 45.6146 54.9723 47.2143 54.8964C48.8143 54.8206 49.8981 54.5649 50.8516 54.1923C51.8377 53.8066 52.6739 53.2923 53.5051 52.4572C54.3364 51.6219 54.8482 50.7849 55.2295 49.7967C55.5991 48.8427 55.8502 47.7517 55.9195 46.1562C55.9895 44.5551 56.006 44.044 55.9982 39.9712C55.9904 35.8984 55.972 35.3877 55.8961 33.7881C55.8202 32.1885 55.5661 31.1023 55.192 30.1485C54.8065 29.1624 54.292 28.3275 53.4575 27.495C52.6229 26.6625 51.7851 26.151 50.7973 25.7706C49.8426 25.4013 48.7522 25.1496 47.1556 25.0806C45.5589 25.0116 45.0451 24.9938 40.9713 25.0018C36.8975 25.0095 36.3875 25.027 34.7876 25.105ZM34.9629 52.2213C33.5004 52.1577 32.7063 51.9147 32.177 51.7113C31.4763 51.4413 30.977 51.1149 30.4496 50.5926C29.9221 50.0703 29.5982 49.5693 29.3246 48.8701C29.1191 48.3408 28.8716 47.5476 28.8032 46.0851C28.7289 44.5045 28.7132 44.0298 28.7045 40.0251C28.6957 36.0205 28.7111 35.5464 28.7804 33.9651C28.8429 32.5039 29.0874 31.7089 29.2904 31.1799C29.5604 30.4783 29.8856 29.9799 30.4091 29.4529C30.9326 28.9258 31.4321 28.6011 32.132 28.3275C32.6608 28.1211 33.4539 27.8758 34.9158 27.8061C36.4977 27.7311 36.9717 27.7161 40.9758 27.7074C44.9799 27.6986 45.4552 27.7136 47.0377 27.7834C48.499 27.8469 49.2943 28.089 49.8227 28.2934C50.5237 28.5634 51.0227 28.8876 51.5497 29.4121C52.0769 29.9364 52.4017 30.4341 52.6754 31.1355C52.882 31.6626 53.1275 32.4555 53.1965 33.9184C53.2717 35.5002 53.2889 35.9746 53.296 39.9784C53.3032 43.9821 53.2891 44.4576 53.2197 46.0383C53.156 47.5008 52.9135 48.2952 52.7097 48.8251C52.4397 49.5256 52.1144 50.0251 51.5905 50.5518C51.0667 51.0787 50.5678 51.4032 49.8676 51.6768C49.3396 51.8829 48.5455 52.1289 47.0848 52.1986C45.5028 52.2729 45.0288 52.2886 41.0232 52.2973C37.0175 52.3061 36.5448 52.2898 34.9629 52.2213ZM47.1913 31.983C47.1919 32.339 47.2981 32.6869 47.4964 32.9826C47.6947 33.2783 47.9763 33.5085 48.3054 33.6442C48.6346 33.7799 48.9966 33.8149 49.3457 33.7448C49.6948 33.6747 50.0152 33.5026 50.2665 33.2504C50.5178 32.9982 50.6886 32.6771 50.7574 32.3278C50.8262 31.9784 50.7899 31.6165 50.653 31.2879C50.5161 30.9592 50.2848 30.6785 49.9883 30.4813C49.6919 30.2841 49.3436 30.1793 48.9876 30.18C48.5103 30.181 48.053 30.3715 47.7162 30.7096C47.3793 31.0477 47.1905 31.5057 47.1913 31.983ZM33.2981 40.015C33.3065 44.269 36.7614 47.7096 41.0144 47.7016C45.2677 47.6935 48.7107 44.239 48.7027 39.985C48.6946 35.731 45.2389 32.2894 40.9852 32.2977C36.7314 32.3061 33.2901 35.7615 33.2981 40.015ZM36 40.0096C35.9981 39.0207 36.2894 38.0534 36.8372 37.2301C37.385 36.4068 38.1646 35.7644 39.0775 35.3842C39.9903 35.0039 40.9955 34.9029 41.9658 35.0939C42.9361 35.2849 43.8279 35.7593 44.5286 36.4572C45.2292 37.1551 45.7072 38.045 45.902 39.0145C46.0969 39.984 45.9999 40.9896 45.6233 41.9039C45.2467 42.8183 44.6074 43.6005 43.7862 44.1515C42.9651 44.7026 41.999 44.9977 41.0101 44.9997C40.3534 45.0011 39.7029 44.8731 39.0958 44.6231C38.4886 44.373 37.9366 44.0058 37.4714 43.5424C37.0061 43.079 36.6367 42.5285 36.3843 41.9224C36.1318 41.3162 36.0013 40.6662 36 40.0096Z" fill="white"/>
<defs>
<filter id="filter0_i_3363_18473" x="0.5" y="0" width="80" height="80" filterUnits="userSpaceOnUse" color-interpolation-filters="sRGB">
<feFlood flood-opacity="0" result="BackgroundImageFix"/>
<feBlend mode="normal" in="SourceGraphic" in2="BackgroundImageFix" result="shape"/>
<feColorMatrix in="SourceAlpha" type="matrix" values="0 0 0 0 0 0 0 0 0 0 0 0 0 0 0 0 0 0 127 0" result="hardAlpha"/>
<feOffset/>
<feGaussianBlur stdDeviation="10"/>
<feComposite in2="hardAlpha" operator="arithmetic" k2="-1" k3="1"/>
<feColorMatrix type="matrix" values="0 0 0 0 1 0 0 0 0 1 0 0 0 0 1 0 0 0 1 0"/>
<feBlend mode="normal" in2="shape" result="effect1_innerShadow_3363_18473"/>
</filter>
<linearGradient id="paint0_linear_3363_18473" x1="68" y1="80" x2="18" y2="7.5" gradientUnits="userSpaceOnUse">
<stop offset="0.0350283" stop-color="#FFBC01"/>
<stop offset="0.43053" stop-color="#FF006A"/>
<stop offset="0.652139" stop-color="#FD01CF"/>
<stop offset="1" stop-color="#810BFC"/>
</linearGradient>
</defs>
</svg>
