<svg width="81" height="80" viewBox="0 0 81 80" fill="none" xmlns="http://www.w3.org/2000/svg">
<g filter="url(#filter0_i_3363_18479)">
<circle cx="40.5" cy="40" r="40" fill="#7AC264"/>
</g>
<path d="M38.5 41.25C39.0368 41.9676 39.7217 42.5614 40.5082 42.9911C41.2947 43.4208 42.1644 43.6764 43.0583 43.7404C43.9522 43.8044 44.8495 43.6754 45.6892 43.3622C46.5289 43.049 47.2914 42.5588 47.925 41.925L51.675 38.175C52.8135 36.9962 53.4435 35.4174 53.4292 33.7787C53.415 32.14 52.7577 30.5724 51.5989 29.4136C50.4401 28.2548 48.8725 27.5975 47.2338 27.5832C45.595 27.569 44.0163 28.199 42.8375 29.3375L40.6875 31.475" stroke="white" stroke-width="2" stroke-linecap="round" stroke-linejoin="round"/>
<path d="M43.4998 38.75C42.9629 38.0324 42.2781 37.4386 41.4916 37.0089C40.7051 36.5792 39.8354 36.3236 38.9414 36.2596C38.0475 36.1956 37.1503 36.3246 36.3106 36.6378C35.4709 36.951 34.7084 37.4412 34.0748 38.075L30.3248 41.825C29.1863 43.0038 28.5563 44.5826 28.5705 46.2213C28.5848 47.86 29.2421 49.4276 30.4009 50.5864C31.5597 51.7452 33.1273 52.4025 34.766 52.4168C36.4047 52.431 37.9835 51.801 39.1623 50.6625L41.2998 48.525" stroke="white" stroke-width="2" stroke-linecap="round" stroke-linejoin="round"/>
<defs>
<filter id="filter0_i_3363_18479" x="0.5" y="0" width="80" height="80" filterUnits="userSpaceOnUse" color-interpolation-filters="sRGB">
<feFlood flood-opacity="0" result="BackgroundImageFix"/>
<feBlend mode="normal" in="SourceGraphic" in2="BackgroundImageFix" result="shape"/>
<feColorMatrix in="SourceAlpha" type="matrix" values="0 0 0 0 0 0 0 0 0 0 0 0 0 0 0 0 0 0 127 0" result="hardAlpha"/>
<feOffset/>
<feGaussianBlur stdDeviation="10"/>
<feComposite in2="hardAlpha" operator="arithmetic" k2="-1" k3="1"/>
<feColorMatrix type="matrix" values="0 0 0 0 1 0 0 0 0 1 0 0 0 0 1 0 0 0 0.4 0"/>
<feBlend mode="normal" in2="shape" result="effect1_innerShadow_3363_18479"/>
</filter>
</defs>
</svg>
