<svg width="125" height="69" viewBox="0 0 125 69" fill="none" xmlns="http://www.w3.org/2000/svg">
<path d="M117.835 17.2052C117.45 17.3098 117.201 17.3571 117.088 17.3471C116.992 17.317 116.835 17.2168 116.616 17.0465C116.306 16.9206 116.041 16.7538 115.819 16.5462C115.615 16.3373 115.458 16.1154 115.346 15.8806C115.252 15.6258 115.207 15.4139 115.213 15.2449C115.219 14.5892 115.323 13.8791 115.526 13.1146C115.729 12.35 115.991 11.6091 116.31 10.8918C116.629 10.1745 116.984 9.55739 117.375 9.04051C117.783 8.50357 118.186 8.14488 118.584 7.96444C118.944 7.78686 119.294 7.70377 119.631 7.71518C119.969 7.72658 120.225 7.88474 120.398 8.18966C120.719 8.70788 120.68 9.05721 120.282 9.23766C120.227 9.24196 120.164 9.2749 120.093 9.33647C120.022 9.37943 119.989 9.43814 119.995 9.51258C120.072 9.54407 120.277 9.5376 120.611 9.49317C120.943 9.43013 121.274 9.34847 121.603 9.24821C121.95 9.1279 122.175 9.01692 122.28 8.91525C122.387 8.85081 122.468 8.81644 122.524 8.81214C122.58 8.80783 122.721 8.81569 122.947 8.8357C123.271 8.90437 123.438 9.00385 123.448 9.13413C123.454 9.20858 123.487 9.28087 123.549 9.35101C123.609 9.40254 123.676 9.42544 123.751 9.4197C123.882 9.42828 123.87 9.51346 123.714 9.67526C123.577 9.83563 123.332 10.0604 122.98 10.3497C122.643 10.6003 122.432 10.7664 122.344 10.848C122.274 10.9096 122.275 11.0406 122.346 11.241C122.523 11.5831 122.563 11.9919 122.469 12.4672C122.375 12.9425 122.179 13.435 121.881 13.9448C121.583 14.4545 121.209 14.942 120.758 15.4074C120.324 15.8527 119.849 16.245 119.332 16.5844C118.832 16.9037 118.334 17.1107 117.835 17.2052ZM117.266 16.0135C117.341 16.0077 117.468 15.9605 117.648 15.8717C117.827 15.7643 117.97 15.6783 118.078 15.6139C118.147 15.5337 118.233 15.4428 118.338 15.3411C118.459 15.2194 118.557 15.1464 118.63 15.1221C118.704 15.1163 118.795 15.0812 118.902 15.0168C119.008 14.9337 119.156 14.782 119.345 14.5615C119.532 14.3223 119.777 13.9758 120.079 13.522C120.42 13.0838 120.679 12.6894 120.858 12.3386C121.036 11.9692 121.067 11.6392 120.951 11.3486C120.926 11.2755 120.867 11.2333 120.772 11.2219C120.696 11.209 120.59 11.1704 120.454 11.106C120.268 11.1203 120.088 11.0874 119.913 11.0073C119.756 10.9071 119.568 10.7811 119.351 10.6294L118.861 10.1055L118.423 10.6166C118.148 10.9374 117.866 11.4084 117.577 12.0298C117.305 12.6311 117.081 13.2475 116.905 13.8789C116.728 14.4917 116.634 14.9763 116.624 15.3328C116.627 15.6134 116.688 15.7959 116.807 15.8804C116.925 15.9648 117.079 16.0092 117.266 16.0135Z" fill="#2F94F9"/>
<path d="M108.199 14.6345C108.195 14.3353 108.222 13.9588 108.28 13.5049C108.339 13.0511 108.39 12.6166 108.433 12.2014C108.494 11.7847 108.5 11.4941 108.45 11.3295C108.368 11.2422 108.278 11.1649 108.179 11.0976C108.08 11.0303 107.982 10.963 107.883 10.8958C107.904 10.6882 107.927 10.4992 107.951 10.3288C107.994 10.157 108.123 10.0067 108.338 9.87778L108.54 9.94647C108.594 9.92355 108.649 9.90064 108.703 9.87772C108.756 9.8362 108.8 9.8047 108.836 9.78322C108.996 9.43387 109.136 9.05803 109.255 8.65572C109.372 8.23479 109.473 7.84321 109.557 7.48099C109.626 7.15742 109.738 6.78374 109.892 6.35995C110.047 5.93615 110.207 5.5868 110.373 5.3119C110.473 5.1544 110.556 5.00764 110.62 4.87162C110.683 4.717 110.746 4.56237 110.809 4.40774C110.951 4.05982 111.155 3.67897 111.423 3.26518C111.689 2.83278 111.985 2.42614 112.312 2.04527C112.655 1.64435 112.978 1.33865 113.28 1.12815C113.581 0.899039 113.842 0.766573 114.064 0.730749C114.284 0.676314 114.571 0.626165 114.923 0.580302C115.118 0.677627 115.355 0.84653 115.636 1.08701C115.935 1.32606 116.094 1.55725 116.111 1.78059C116.125 1.9667 116.141 2.17143 116.158 2.39476C116.174 2.59949 116.142 2.78919 116.061 2.96387C116.09 3.09271 116.092 3.23302 116.066 3.38478C116.039 3.51793 116.003 3.6611 115.959 3.81429C115.946 3.89017 115.924 3.97607 115.894 4.072C115.883 4.16649 115.871 4.26098 115.86 4.35548C115.562 5.10858 115.284 5.74786 115.025 6.27331C114.783 6.77873 114.509 7.23046 114.202 7.6285C113.913 8.00651 113.56 8.40814 113.144 8.83341C112.745 9.23862 112.257 9.71616 111.682 10.266C112.005 10.3347 112.297 10.4714 112.556 10.676C112.813 10.8621 112.966 11.1406 113.013 11.5114C113.02 11.6044 113.019 11.7075 113.009 11.8206C113.018 11.9323 113.036 12.0432 113.063 12.1535C113.119 12.3925 113.155 12.6237 113.172 12.8471C113.207 13.0504 113.242 13.263 113.278 13.4849C113.332 13.7053 113.353 13.9752 113.34 14.2945C113.327 14.6137 113.311 14.8865 113.291 15.1127C113.278 15.1886 113.254 15.2372 113.218 15.2587C113.199 15.2602 113.193 15.3074 113.201 15.4005C113.224 15.6982 113.179 15.9638 113.065 16.1972C112.952 16.4306 112.832 16.6926 112.705 16.9832C112.656 17.0806 112.588 17.1701 112.501 17.2517C112.412 17.3147 112.334 17.3956 112.267 17.4944C111.979 17.891 111.67 18.1302 111.339 18.2118C111.027 18.292 110.661 18.4045 110.242 18.5491L110.19 18.6093C109.993 18.4747 109.846 18.3924 109.75 18.3624C109.673 18.3309 109.529 18.2858 109.318 18.2271C109.242 17.9709 109.092 17.7203 108.867 17.4756C108.661 17.2293 108.529 16.9681 108.47 16.6918C108.441 16.5629 108.423 16.4427 108.414 16.331C108.423 16.1993 108.376 16.0812 108.274 15.9767C108.397 15.8736 108.407 15.7605 108.304 15.6374C108.201 15.5143 108.201 15.3926 108.304 15.2723C108.301 15.2351 108.299 15.1979 108.296 15.1606C108.311 15.122 108.319 15.0933 108.317 15.0747C108.296 15.0389 108.273 14.9845 108.248 14.9115C108.223 14.8199 108.206 14.7276 108.199 14.6345ZM110.725 16.7988C111.138 16.3363 111.403 15.876 111.517 15.4179C111.63 14.9411 111.668 14.4608 111.631 13.9769C111.611 13.4729 111.579 12.9418 111.536 12.3835C111.529 12.2904 111.503 12.1988 111.459 12.1086C111.433 12.017 111.436 11.9325 111.467 11.8552C111.377 11.6562 111.285 11.4386 111.192 11.2024C111.098 10.9476 110.941 10.735 110.722 10.5646C110.579 10.6506 110.464 10.7436 110.378 10.8439C110.292 10.9441 110.184 11.1116 110.052 11.3464C109.973 11.5397 109.907 11.8912 109.852 12.4009C109.817 12.9091 109.804 13.4718 109.814 14.0888C109.823 14.6873 109.866 15.2456 109.943 15.7639C110.039 16.2807 110.179 16.635 110.362 16.8268L110.725 16.7988ZM113.169 3.32721C112.589 4.0646 112.091 4.88931 111.675 5.80134C111.258 6.71337 110.945 7.62682 110.734 8.54169L111.054 8.68553L112.362 7.43335C112.415 7.39182 112.517 7.26224 112.669 7.0446C112.821 6.82697 112.962 6.60075 113.094 6.36593C113.243 6.11107 113.325 5.95501 113.339 5.89774C113.496 5.75455 113.645 5.4997 113.785 5.13317C113.944 4.76521 114.082 4.36146 114.198 3.92192C114.312 3.46377 114.391 3.0364 114.436 2.63982C114.497 2.2232 114.502 1.91396 114.449 1.7121L114.26 1.81092C114.092 2.06721 113.915 2.32422 113.729 2.58194C113.542 2.82106 113.355 3.06948 113.169 3.32721Z" fill="#2F94F9"/>
<path d="M100.671 19.174C100.429 19.1927 100.23 19.1612 100.074 19.0796C99.9361 18.9966 99.7585 18.8792 99.5409 18.7275C99.1586 18.3825 98.8801 18.0483 98.7054 17.7247C98.5292 17.3826 98.4569 17.0512 98.4883 16.7305C98.5327 16.5773 98.5406 16.4363 98.5119 16.3074C98.5004 16.1585 98.4947 16.0841 98.4947 16.0841C98.3945 15.9982 98.3622 15.9445 98.398 15.923C98.4324 15.8829 98.4653 15.8242 98.4968 15.7469C98.6085 15.7383 98.6378 15.6331 98.5848 15.4312C98.5361 15.2852 98.5854 14.9538 98.7328 14.4369C98.8802 13.9201 99.0763 13.4275 99.321 12.9593C99.4184 12.7646 99.5672 12.5098 99.7676 12.1948C99.9666 11.8612 100.185 11.5354 100.422 11.2176C100.677 10.8796 100.909 10.609 101.118 10.4057C101.553 9.979 101.941 9.65897 102.28 9.4456C102.619 9.23224 102.99 9.06325 103.392 8.93864C103.794 8.81402 104.07 8.74598 104.219 8.73451C104.386 8.7216 104.621 8.85328 104.923 9.12954C105.366 9.28267 105.69 9.48234 105.896 9.72856C106.121 9.97334 106.281 10.3448 106.375 10.843C106.474 11.3971 106.477 12.0428 106.384 12.7801C106.308 13.4974 105.939 14.4151 105.276 15.5333C104.863 16.2392 104.473 16.7747 104.108 17.1398C103.742 17.4864 103.301 17.8386 102.786 18.1966C102.415 18.4873 102.076 18.71 101.77 18.8646C101.462 19.0007 101.096 19.1038 100.671 19.174ZM103.123 16.0083C103.53 15.4713 103.848 14.9695 104.074 14.5027C104.318 14.0345 104.535 13.4468 104.724 12.7395C104.783 12.5291 104.81 12.2742 104.806 11.975C104.8 11.6572 104.768 11.3694 104.711 11.1117C104.671 10.834 104.594 10.6808 104.479 10.6522C104.246 10.5391 103.973 10.5227 103.661 10.6029C103.347 10.6645 103.017 10.8679 102.669 11.2129C102.129 11.7413 101.673 12.3849 101.301 13.1437C100.927 13.884 100.571 14.7258 100.232 15.6694C100.004 16.3609 99.9809 16.9056 100.161 17.3036C100.359 17.6815 100.714 17.7946 101.227 17.6428C101.756 17.4709 102.388 16.9261 103.123 16.0083Z" fill="#2F94F9"/>
<path d="M85.6529 19.3767C85.4382 19.2622 85.2392 19.1091 85.0559 18.9173C84.8712 18.7068 84.7659 18.4341 84.7401 18.0991C84.7257 17.913 84.7386 17.5937 84.7786 17.1413C84.8186 16.6889 84.8823 16.1785 84.9695 15.6101C85.0568 15.0417 85.1469 14.5106 85.2399 14.0166C85.4002 13.6673 85.5325 13.3201 85.637 12.975C85.7415 12.63 85.7908 12.4202 85.7851 12.3458C85.8051 12.1196 85.8316 11.8554 85.8644 11.5534C85.9159 11.2498 85.9696 10.9742 86.0254 10.7265C86.0812 10.4789 86.1263 10.335 86.1606 10.2949C86.2465 10.1947 86.3539 10.1302 86.4827 10.1016C86.6101 10.0543 86.7418 10.0629 86.8779 10.1273C87.031 10.1716 87.152 10.284 87.2408 10.4644C87.4628 10.6719 87.5859 10.9339 87.6103 11.2503C87.6333 11.5481 87.5653 12.0027 87.4065 12.614C87.2677 12.9991 87.1339 13.4494 87.0051 13.9648C86.8763 14.4803 86.7633 14.957 86.666 15.3951C86.5859 15.8132 86.5423 16.0974 86.5351 16.2477L85.9897 16.4582C86.2831 16.1361 86.5573 15.806 86.812 15.4681C87.0654 15.1116 87.25 14.8353 87.366 14.6391C87.6494 14.1867 87.892 13.8122 88.0938 13.5159C88.3128 13.1994 88.5927 12.8221 88.9333 12.384C89.2726 11.9273 89.6154 11.6387 89.9619 11.5184C90.3255 11.3781 90.6097 11.3 90.8144 11.2842C91.2296 11.3271 91.5718 11.516 91.841 11.851C92.1274 12.1659 92.3336 12.6555 92.4597 13.3198C92.4797 13.5804 92.4755 13.8896 92.4469 14.2475C92.4369 14.604 92.432 14.7823 92.432 14.7823C92.432 14.7823 92.5658 14.5754 92.8334 14.1616C93.1197 13.7464 93.5055 13.286 93.9908 12.7806C94.3243 12.4928 94.6571 12.3173 94.9893 12.2543C95.32 12.1726 95.6264 12.2614 95.9084 12.5204C96.4124 12.7437 96.7597 13.1195 96.9501 13.6477C97.1392 14.1574 97.2281 14.8245 97.2167 15.6492C97.1982 16.1374 97.2168 16.501 97.2727 16.7401C97.3271 16.9606 97.4002 17.1796 97.4918 17.3972C97.6465 17.4602 97.6866 17.6162 97.6122 17.8653C97.5363 18.0958 97.4333 18.2161 97.303 18.2262C97.1169 18.2405 96.9 18.2198 96.6523 18.164C96.4232 18.1067 96.2092 18.0015 96.0101 17.8484C95.8283 17.6752 95.7252 17.4304 95.7008 17.114L95.5674 15.3831C95.5358 14.9737 95.4914 14.6401 95.4341 14.3824C95.3954 14.1233 95.3367 13.9687 95.2579 13.9186C95.0446 13.8227 94.7562 13.9666 94.3926 14.3503C94.029 14.7341 93.6468 15.2409 93.246 15.8709C92.8452 16.5009 92.4738 17.1474 92.1317 17.8103C91.8226 18.4145 91.6251 18.7667 91.5392 18.8669C91.4705 18.9471 91.3287 18.93 91.114 18.8155C90.6945 18.7167 90.4203 18.56 90.2914 18.3453C90.1797 18.1105 90.1496 17.8413 90.2011 17.5378C90.2698 17.2143 90.3484 16.7776 90.4371 16.2278C90.5444 15.6766 90.6439 15.1447 90.7354 14.6322C90.8255 14.101 90.8806 13.7223 90.9006 13.4961C90.8147 13.353 90.6808 13.3165 90.499 13.3867C90.3344 13.4368 90.164 13.5342 89.9879 13.6788C89.7761 13.8449 89.5277 14.1449 89.2429 14.5787C88.958 15.0125 88.6689 15.5122 88.3755 16.0778C88.1794 16.4486 87.974 16.8202 87.7593 17.1924C87.5432 17.5461 87.3428 17.8611 87.1582 18.1374C86.9735 18.4138 86.8118 18.6228 86.6729 18.7646C86.4439 19.1941 86.2843 19.4311 86.1941 19.4754C86.1039 19.5198 85.9235 19.4869 85.6529 19.3767Z" fill="#2F94F9"/>
<path d="M78.6673 21.1228C78.4268 21.16 78.2299 21.1565 78.0767 21.1121C77.9221 21.0491 77.7281 20.9611 77.4947 20.8481C77.0609 20.5632 76.7294 20.2705 76.5003 19.9699C76.2884 19.6492 76.1795 19.33 76.1737 19.0121C76.1981 18.8418 76.1866 18.6929 76.1393 18.5655C76.1107 18.4366 76.0963 18.3722 76.0963 18.3722C75.9775 18.2877 75.936 18.2348 75.9718 18.2133C76.0061 18.1732 76.0297 18.1152 76.0426 18.0393C76.1886 17.9906 76.1994 17.8868 76.0748 17.7279C76.0075 17.5833 76.0096 17.2462 76.0811 16.7165C76.1698 16.1667 76.2985 15.6513 76.4674 15.1702C76.5447 14.9583 76.6542 14.6784 76.7958 14.3305C76.9561 13.9811 77.1351 13.6304 77.3326 13.2781C77.5287 12.9073 77.7119 12.6124 77.8822 12.3933C78.2558 11.8964 78.5922 11.5242 78.8914 11.2764C79.2077 11.0087 79.5649 10.7846 79.9629 10.6041C80.3236 10.4265 80.5871 10.322 80.7531 10.2905C80.9192 10.2589 81.1604 10.3527 81.4769 10.5717C81.9336 10.6675 82.2829 10.8278 82.5249 11.0526C82.7841 11.2573 82.9974 11.5965 83.165 12.0704C83.3555 12.5987 83.4515 13.2372 83.4531 13.9859C83.4718 14.7147 83.2278 15.6789 82.7212 16.8787C82.4235 17.6318 82.1122 18.2081 81.7873 18.6076C81.4809 19.0056 81.1016 19.428 80.6493 19.8748C80.3186 20.1998 80.0108 20.4576 79.7259 20.648C79.4411 20.8385 79.0882 20.9967 78.6673 21.1228ZM80.6447 17.6285C80.9739 17.0415 81.2229 16.5074 81.3917 16.0264C81.5778 15.5252 81.708 14.9067 81.7823 14.1709C81.8038 13.9633 81.7937 13.7113 81.7522 13.4149C81.7092 13.1 81.6404 12.8151 81.5459 12.5603C81.47 12.304 81.3754 12.1709 81.2623 12.1609C81.0132 12.0865 80.7434 12.1073 80.4528 12.2233C80.1607 12.3207 79.8522 12.5691 79.5273 12.9686C79.2396 13.3652 78.9834 13.8062 78.7587 14.2916C78.5526 14.7755 78.3687 15.3045 78.207 15.8786C78.0453 16.4528 77.8958 17.0634 77.7584 17.7105C77.6268 18.4321 77.6777 18.9711 77.9111 19.3276C78.1631 19.6826 78.5332 19.7477 79.0214 19.5228C79.5081 19.2794 80.0492 18.6479 80.6447 17.6285Z" fill="#2F94F9"/>
<path d="M70.9504 20.7343C70.8044 20.783 70.6569 20.8131 70.508 20.8246C70.3763 20.816 70.2338 20.7895 70.0806 20.7452C69.8501 20.6693 69.6833 20.5698 69.5802 20.4467C69.4957 20.3222 69.447 20.1762 69.4341 20.0087C69.4284 19.6908 69.477 19.3501 69.58 18.9864C69.6816 18.6042 69.7016 18.2563 69.64 17.9427C69.6743 17.6593 69.7344 17.3457 69.8203 17.0021C69.9233 16.6384 70.0263 16.2748 70.1293 15.9111C70.2309 15.5289 70.3154 15.1666 70.3826 14.8245C70.4484 14.4637 70.4806 14.1523 70.4791 13.8903C70.4848 13.7213 70.4454 13.5746 70.3609 13.4501C70.2936 13.3055 70.2456 13.1688 70.217 13.0399C70.2069 12.9096 70.2792 12.7543 70.4338 12.5739C70.5541 12.4335 70.6657 12.3032 70.7688 12.183C70.8718 12.0627 70.9742 11.9331 71.0758 11.7942C71.2032 11.747 71.3228 11.719 71.4344 11.7104C71.5461 11.7018 71.6685 11.7111 71.8017 11.7383C71.8389 11.7354 71.8668 11.7333 71.8854 11.7318C71.9212 11.7104 71.9484 11.6989 71.967 11.6975C72.2347 11.5271 72.6162 11.376 73.1116 11.2442C73.6055 11.0938 74.1037 10.9992 74.6062 10.9605C75.1273 10.9203 75.5332 10.9639 75.8238 11.0913C76.0758 11.203 76.2548 11.3389 76.3608 11.4993C76.4653 11.641 76.4911 11.8543 76.4382 12.1392C76.3852 12.1807 76.3236 12.2323 76.2535 12.2939C76.202 12.354 76.1497 12.4048 76.0968 12.4464C75.9808 12.3991 75.8591 12.3991 75.7317 12.4464C75.6215 12.4736 75.5005 12.4829 75.3688 12.4744C75.1597 12.4343 74.8605 12.4387 74.4711 12.4874C74.1003 12.5347 73.741 12.6092 73.3931 12.7109C73.0438 12.794 72.7818 12.9171 72.6072 13.0804C72.5943 13.1562 72.5449 13.366 72.4591 13.7096C72.3904 14.0332 72.306 14.3954 72.2058 14.7963C72.1057 15.1972 72.0119 15.5601 71.9247 15.8851C71.856 16.2087 71.8138 16.3898 71.798 16.4284C71.5547 17.1586 71.3852 17.8738 71.2894 18.5739C71.1921 19.2554 71.0791 19.9755 70.9504 20.7343Z" fill="#2F94F9"/>
<path d="M59.6919 22.4164C59.0605 22.2404 58.5536 21.8582 58.1713 21.2698C57.7875 20.6628 57.5262 20.0652 57.3872 19.4768C57.3686 19.4782 57.3156 19.5197 57.2283 19.6013C57.1582 19.6629 57.0723 19.7631 56.9706 19.902C56.7302 20.1827 56.4296 20.5335 56.0688 20.9544C55.7067 21.3568 55.3231 21.7233 54.9179 22.0541C54.53 22.3648 54.1485 22.5159 53.7734 22.5074C53.6173 22.4258 53.4512 22.3356 53.2751 22.2369C53.1162 22.1181 52.9573 21.9993 52.7983 21.8805C52.7181 21.8118 52.6473 21.7423 52.5857 21.6722C52.5427 21.6006 52.4991 21.5197 52.4547 21.4295C52.2069 20.887 52.0572 20.4024 52.0056 19.9757C51.9526 19.5305 51.9654 19.0896 52.0441 18.6529C52.14 18.1962 52.2508 17.6915 52.3767 17.1388C52.3911 17.0816 52.4383 16.8439 52.5184 16.4259C52.6171 16.0064 52.7301 15.5296 52.8575 14.9956C52.9848 14.4615 53.1072 13.9841 53.2245 13.5631C53.3604 13.1408 53.4628 12.8895 53.5315 12.8093C53.5873 12.805 53.6432 12.8007 53.699 12.7964C53.772 12.7721 53.8364 12.7577 53.8923 12.7534C54.0784 12.7391 54.223 12.7935 54.3261 12.9166C54.4091 13.0225 54.5086 13.0991 54.6246 13.1463C54.7592 13.1921 54.858 13.2594 54.921 13.3481C55.0284 13.5271 54.9941 13.9323 54.8181 14.5636C54.6406 15.1764 54.4511 15.8744 54.2493 16.6575C54.0604 17.3648 53.9095 18.0785 53.7965 18.7987C53.682 19.5002 53.7172 20.0779 53.902 20.5317C54.0322 20.5216 54.2004 20.3963 54.4066 20.1558C54.6299 19.8952 54.8031 19.7134 54.9262 19.6103C55.1037 19.4842 55.3291 19.2516 55.6025 18.9122C55.8931 18.5528 56.1744 18.1942 56.4464 17.8362C56.7169 17.4596 56.9008 17.174 56.9981 16.9793C57.064 16.8619 57.1599 16.6485 57.2858 16.3393C57.4103 16.0114 57.5334 15.6649 57.655 15.2998C57.7939 14.9147 57.8976 14.5603 57.9663 14.2368C58.0536 13.9118 58.0829 13.6849 58.0542 13.556C58.0213 13.3713 58.0291 13.2303 58.0778 13.1329C58.1436 13.0155 58.2474 12.9046 58.3891 12.8C58.4822 12.7929 58.5846 12.785 58.6962 12.7764C58.8079 12.7678 58.911 12.7692 59.0055 12.7806C59.1272 12.9023 59.2575 13.0139 59.3964 13.1156C59.5352 13.2172 59.6748 13.3281 59.8152 13.4484C59.9355 13.7948 59.9162 14.2737 59.7574 14.8851C59.5986 15.4964 59.4433 16.1543 59.2917 16.8587C59.14 17.5631 59.0635 18.2711 59.0622 18.9826C59.0594 19.6755 59.2922 20.2661 59.7604 20.7542C60.1383 20.5566 60.4239 20.3754 60.6172 20.2107C60.8276 20.026 61.0287 19.842 61.2205 19.6588C61.4109 19.4569 61.6571 19.2507 61.9592 19.0402C62.1539 19.1375 62.3107 19.3501 62.4296 19.6779C62.5484 20.0057 62.6158 20.272 62.6315 20.4767C62.5614 20.5383 62.4913 20.5999 62.4211 20.6615C62.3682 20.703 62.3259 20.7624 62.2944 20.8397C62.2014 21.0903 61.9967 21.3494 61.6804 21.6172C61.364 21.885 61.0254 22.1076 60.6647 22.2852C60.3025 22.4442 59.9782 22.4879 59.6919 22.4164Z" fill="#2F94F9"/>
<path d="M36.3463 23.5139C36.2847 23.4437 36.2217 23.355 36.1572 23.2476C36.1114 23.1388 36.0856 23.0472 36.0799 22.9727C36.077 22.9355 36.0641 22.8897 36.0412 22.8353C36.0369 22.7795 35.9975 22.7544 35.9231 22.7601C35.863 22.7086 35.8837 22.4917 35.9853 22.1094C36.104 21.7071 36.2557 21.2461 36.4403 20.7264C36.6436 20.2052 36.8482 19.7027 37.0543 19.2187C37.2776 18.7148 37.4622 18.3167 37.6082 18.0247C37.697 17.9617 37.7471 17.8829 37.7585 17.7884C37.7871 17.6739 37.7828 17.618 37.7456 17.6209C37.7456 17.6209 37.7857 17.5336 37.8658 17.3589C37.9631 17.1642 38.0376 17.0367 38.0891 16.9766C38.2179 16.7046 38.3095 16.4354 38.3639 16.1691C38.4168 15.8842 38.4175 15.6501 38.3659 15.4669C38.2843 15.3796 38.1984 15.3581 38.1082 15.4025C38.018 15.4469 37.9729 15.4691 37.9729 15.4691C37.8999 15.4934 37.7911 15.5393 37.6465 15.6066C37.5191 15.6538 37.4024 15.719 37.2965 15.802C36.8914 16.1328 36.6137 16.2946 36.4633 16.2875C36.3116 16.2617 36.1254 16.0327 35.9049 15.6004C35.8147 15.4014 35.7753 15.2546 35.7867 15.1601C35.7982 15.0657 35.8647 14.9576 35.9864 14.8358C36.1252 14.6941 36.2584 14.5996 36.3858 14.5523C36.5118 14.4864 36.6098 14.4227 36.68 14.3612C36.8746 14.2151 37.035 14.1091 37.161 14.0433C37.3055 13.9759 37.4143 13.9301 37.4874 13.9058C37.9598 13.7196 38.3671 13.6601 38.7093 13.7273C39.0514 13.7946 39.3213 14.0172 39.519 14.3951C39.8039 14.6914 39.9622 15.0443 39.9937 15.4538C40.0238 15.8446 39.9287 16.3106 39.7083 16.8518L39.4614 17.2921C39.3827 17.4854 39.3712 17.5799 39.4271 17.5756C39.5015 17.5698 39.5803 17.4982 39.6633 17.3608C39.7134 17.282 39.8164 17.1618 39.9725 17C40.1285 16.8382 40.2344 16.7551 40.2903 16.7508C40.2903 16.7508 40.3081 16.7401 40.3439 16.7186C40.3983 16.6957 40.4205 16.6191 40.4105 16.4888C40.462 16.4287 40.5135 16.3685 40.5651 16.3084C40.6352 16.2468 40.6703 16.216 40.6703 16.216C40.7447 16.2103 40.8779 16.1158 41.0697 15.9325C41.2787 15.7292 41.5227 15.4951 41.8019 15.2302C41.9951 15.0655 42.1755 14.9767 42.343 14.9638C42.761 14.8005 43.1161 14.9136 43.4082 15.3029C43.7189 15.6909 43.8994 16.2106 43.9496 16.862L43.4795 18.4147L44.3899 17.1089C44.4901 16.9514 44.5917 16.8125 44.6948 16.6922C44.8164 16.5705 44.9209 16.4688 45.0083 16.3872C45.0354 16.2541 45.0855 16.1753 45.1586 16.151C45.2316 16.1266 45.2681 16.1144 45.2681 16.1144C45.2681 16.1144 45.2867 16.113 45.3239 16.1101C45.3597 16.0887 45.3754 16.05 45.3711 15.9942C45.4585 15.9125 45.5558 15.8395 45.6632 15.7751C45.7691 15.692 45.8378 15.6118 45.8693 15.5345C46.1756 15.3799 46.4627 15.339 46.7304 15.412C46.9967 15.4664 47.238 15.6818 47.4542 16.0583C47.6017 16.2716 47.6912 16.4613 47.7227 16.6273C47.7543 16.7934 47.7829 17.0439 47.8087 17.379C47.793 17.661 47.773 17.8872 47.7487 18.0576C47.7416 18.2079 47.7352 18.3675 47.7295 18.5365C47.7238 18.7054 47.7138 18.9402 47.6995 19.2409C47.6365 19.3955 47.6022 19.5573 47.5965 19.7262C47.6094 19.8937 47.6216 20.0519 47.6331 20.2008C47.6517 20.4427 47.6739 20.6095 47.6997 20.7012C47.724 20.7742 47.8014 20.8057 47.9316 20.7956C48.1879 20.7197 48.5315 20.5622 48.9624 20.323C49.4104 20.0638 49.7383 19.8233 49.9458 19.6013C50.2049 19.3192 50.4368 19.1703 50.6416 19.1545C50.8635 19.1187 51.0109 19.2103 51.084 19.4294C51.1269 19.5009 51.0747 19.6735 50.9273 19.9469C50.7985 20.219 50.641 20.4838 50.4549 20.7416C50.2875 20.9979 50.1572 21.1296 50.0642 21.1368C50.0083 21.1411 49.9475 21.2019 49.8816 21.3193C49.8144 21.4181 49.7364 21.499 49.6476 21.562C49.5274 21.7023 49.4064 21.8334 49.2847 21.9551C49.1817 22.0753 49.0557 22.1412 48.9068 22.1527C48.8324 22.1584 48.7414 22.1935 48.6341 22.258C48.5439 22.3024 48.4337 22.3296 48.3034 22.3396C48.1216 22.4098 47.8309 22.4041 47.4315 22.3226C47.0507 22.2396 46.7886 21.9977 46.6454 21.5968C46.5552 21.3978 46.4649 21.0771 46.3747 20.6348C46.283 20.1738 46.2564 19.7078 46.295 19.2368C46.3436 18.896 46.3665 18.5853 46.3636 18.3047C46.3607 18.0241 46.3829 17.8258 46.4301 17.7099C46.4258 17.654 46.4158 17.5238 46.4 17.319C46.3828 17.0957 46.3462 16.9862 46.2904 16.9905C46.216 16.9962 46.0499 17.1494 45.7923 17.4501C45.5518 17.7307 45.2612 18.0901 44.9205 18.5283C44.5985 18.965 44.2778 19.4203 43.9586 19.8942C43.6394 20.3682 43.3818 20.7905 43.1857 21.1614C43.034 21.379 42.9045 21.6417 42.7971 21.9496C42.6898 22.2574 42.6096 22.4321 42.5567 22.4736C42.4379 22.6325 42.2811 22.6633 42.0864 22.566C41.9103 22.4672 41.7385 22.3026 41.5709 22.0721C41.5065 21.9648 41.4621 21.8746 41.4377 21.8016C41.412 21.7099 41.4026 21.589 41.4098 21.4386C41.4341 21.2683 41.4806 21.0213 41.5492 20.6977C41.6365 20.3727 41.751 19.9146 41.8927 19.3233C42.0486 18.6747 42.1817 18.0934 42.2918 17.5795C42.4192 17.0454 42.4829 16.7784 42.4829 16.7784C42.4771 16.704 42.3433 16.7892 42.0813 17.034C41.8179 17.2603 41.5123 17.5459 41.1644 17.891C41.0127 18.1086 40.7572 18.4372 40.3979 18.8768C40.0386 19.3164 39.6464 19.8147 39.2213 20.3716C38.7962 20.9286 38.3918 21.5121 38.0082 22.122C37.5273 22.9267 37.1816 23.4214 36.9712 23.6061C36.7794 23.7894 36.5711 23.7586 36.3463 23.5139Z" fill="#2F94F9"/>
<path d="M31.9527 24.4703C31.7794 24.4087 31.6055 24.3379 31.4308 24.2577C31.2747 24.1762 31.143 24.0459 31.0356 23.8669C30.8695 23.6551 30.765 23.3917 30.722 23.0767C30.6976 22.7603 30.6775 22.3781 30.6617 21.93C30.6559 21.8555 30.681 21.6944 30.7368 21.4468C30.7926 21.1991 30.8562 20.9321 30.9278 20.6457C31.0165 20.3393 31.0902 20.0809 31.1489 19.8704C31.2061 19.6414 31.234 19.5175 31.2325 19.4989C31.0493 19.5505 30.8961 19.6278 30.773 19.7309C30.6499 19.834 30.5268 19.9371 30.4037 20.0402C30.2319 20.2406 29.995 20.4461 29.693 20.6566C29.3909 20.8671 29.1132 21.0289 28.8598 21.1421C28.6794 21.2309 28.4167 21.223 28.0717 21.1186C27.7438 20.9941 27.4954 20.8073 27.3264 20.5582C27.2605 20.4322 27.2047 20.3148 27.1588 20.206C27.1302 20.0772 27.1015 19.9483 27.0729 19.8195C26.9511 19.211 27.0076 18.6076 27.2423 18.0091C27.4283 17.508 27.6244 17.0155 27.8305 16.5315C28.0351 16.029 28.2312 15.5365 28.4187 15.054C28.5003 14.8979 28.5826 14.7512 28.6656 14.6137C28.7472 14.4576 28.8008 14.3037 28.8266 14.152C28.8409 14.0947 28.8903 14.0066 28.9747 13.8878C29.0592 13.769 29.1572 13.7052 29.2689 13.6966C29.4751 13.6995 29.6648 13.7316 29.838 13.7932C30.0284 13.8347 30.1967 13.9528 30.3427 14.1475C30.4644 14.2691 30.5317 14.4137 30.5446 14.5812C30.5561 14.7301 30.4946 14.9034 30.36 15.1009C30.0437 15.6121 29.7575 16.149 29.5013 16.7117C29.2637 17.2729 29.0354 17.8335 28.8165 18.3933C28.7535 18.5479 28.702 18.7297 28.6619 18.9388C28.6219 19.1478 28.6276 19.3439 28.6792 19.5272C28.9583 19.5057 29.327 19.3088 29.7851 18.9365C30.2417 18.5456 30.7227 18.106 31.228 17.6177C31.7333 17.1294 32.1778 16.702 32.5614 16.3354C32.9622 15.9488 33.3015 15.4921 33.5791 14.9652C33.6607 14.8091 33.7638 14.6889 33.8883 14.6044C34.0114 14.5013 34.1839 14.4318 34.4058 14.396C34.4631 14.4103 34.5404 14.4418 34.6378 14.4904C34.7351 14.5391 34.8411 14.5777 34.9556 14.6064C35.0659 14.8225 35.1633 14.9929 35.2478 15.1174C35.3509 15.2405 35.3981 15.3679 35.3895 15.4997C35.381 15.6314 35.2658 15.8368 35.0439 16.116C34.9523 16.1418 34.8063 16.3122 34.6059 16.6272C34.404 16.9236 34.2051 17.2572 34.009 17.628C33.8115 17.9802 33.6655 18.2723 33.571 18.5043C33.5224 18.6016 33.4558 18.7097 33.3714 18.8286C33.3041 18.9274 33.2383 19.0448 33.1738 19.1808L32.3109 21.8309C32.3052 21.9999 32.2917 22.1881 32.2702 22.3957C32.2473 22.5847 32.2774 22.7322 32.3605 22.8381C32.5094 22.8266 32.6382 22.798 32.747 22.7521C32.8558 22.7063 32.9524 22.7457 33.0369 22.8702C33.1529 23.1608 33.216 23.3713 33.226 23.5016C33.2532 23.6118 33.1394 23.8359 32.8846 24.1738C32.6456 24.473 32.3349 24.5719 31.9527 24.4703Z" fill="#2F94F9"/>
<path d="M20.1564 25.3791C19.9144 25.3977 19.7154 25.3663 19.5594 25.2847C19.4219 25.2017 19.2444 25.0843 19.0267 24.9326C18.6444 24.5876 18.3659 24.2533 18.1912 23.9298C18.0151 23.5877 17.9427 23.2562 17.9742 22.9355C18.0185 22.7824 18.0264 22.6413 17.9977 22.5125C17.9863 22.3636 17.9805 22.2892 17.9805 22.2892C17.8803 22.2033 17.8481 22.1496 17.8839 22.1281C17.9182 22.088 17.9511 22.0293 17.9826 21.952C18.0943 21.9434 18.1236 21.8382 18.0706 21.6363C18.0219 21.4903 18.0713 21.1588 18.2187 20.642C18.3661 20.1251 18.5621 19.6326 18.8069 19.1644C18.9042 18.9697 19.0531 18.7148 19.2534 18.3998C19.4524 18.0662 19.6707 17.7405 19.9083 17.4226C20.1631 17.0847 20.395 16.8141 20.604 16.6108C21.0391 16.1841 21.4264 15.864 21.7656 15.6507C22.1049 15.4373 22.4757 15.2683 22.878 15.1437C23.2802 15.0191 23.5558 14.9511 23.7047 14.9396C23.8722 14.9267 24.107 15.0584 24.4092 15.3346C24.8516 15.4877 25.1759 15.6874 25.3821 15.9336C25.6069 16.1784 25.7666 16.5499 25.8611 17.0481C25.96 17.6022 25.9629 18.2478 25.87 18.9852C25.7942 19.7024 25.425 20.6202 24.7623 21.7384C24.3486 22.4443 23.9593 22.9798 23.5943 23.3449C23.2278 23.6914 22.7869 24.0437 22.2715 24.4017C21.9008 24.6924 21.5622 24.915 21.2559 25.0697C20.9481 25.2058 20.5816 25.3089 20.1564 25.3791ZM22.6084 22.2133C23.0163 21.6764 23.3334 21.1745 23.5595 20.7078C23.8043 20.2396 24.0211 19.6519 24.21 18.9446C24.2686 18.7341 24.2958 18.4793 24.2915 18.1801C24.2857 17.8622 24.2541 17.5745 24.1968 17.3168C24.1567 17.0391 24.0794 16.8859 23.9648 16.8573C23.7315 16.7442 23.4587 16.7278 23.1466 16.808C22.8331 16.8696 22.5024 17.0729 22.1546 17.418C21.6149 17.9464 21.159 18.59 20.7869 19.3488C20.4133 20.089 20.057 20.9309 19.7178 21.8744C19.4903 22.566 19.4667 23.1107 19.6472 23.5087C19.8448 23.8866 20.1999 23.9997 20.7124 23.8478C21.2421 23.676 21.8741 23.1311 22.6084 22.2133Z" fill="#2F94F9"/>
<path d="M2.97106 27.771C2.39123 27.7782 2.03903 27.7024 1.91445 27.5435C1.80849 27.3831 1.74833 27.2099 1.73399 27.0238C1.80553 26.7375 1.8871 26.4597 1.97869 26.1905C2.08889 25.9199 2.16043 25.6336 2.19331 25.3315C2.2305 25.0853 2.26912 24.8576 2.30918 24.6486C2.34924 24.4396 2.39717 24.2112 2.45297 23.9635C2.56743 23.5054 2.69262 22.9434 2.82854 22.2777C2.98306 21.6105 3.14689 20.9426 3.32003 20.274C3.49317 19.6054 3.64699 19.0506 3.78151 18.6096C3.89741 18.1701 3.99041 17.7978 4.06052 17.4929C4.14924 17.1865 4.23868 16.8894 4.32883 16.6016C4.41899 16.3138 4.51414 15.9695 4.6143 15.5686C4.68871 15.3195 4.75454 15.0804 4.81177 14.8513C4.86757 14.6036 4.92337 14.356 4.97917 14.1083C5.05358 13.8592 5.1194 13.6201 5.17664 13.391C5.25105 13.1419 5.31616 12.8935 5.37195 12.6458C5.54369 12.2019 5.68895 11.7788 5.80772 11.3765C5.9451 10.9728 6.061 10.5332 6.15542 10.0579C6.21696 9.88467 6.19833 9.76442 6.09954 9.69714C6.01935 9.62843 5.96994 9.4731 5.95129 9.23116C5.91547 9.00925 5.95911 8.84675 6.08222 8.74365C6.22251 8.62051 6.40647 8.57825 6.63411 8.61687C6.89898 8.65263 7.26549 8.67119 7.73364 8.67255C8.22041 8.67248 8.65921 8.65739 9.05005 8.62727C9.45807 8.5771 9.67997 8.54128 9.71576 8.51979C9.80595 8.4754 10.1087 8.3959 10.6241 8.28129C11.1381 8.14807 11.763 7.99694 12.4988 7.8279C13.2347 7.65886 13.9899 7.49769 14.7644 7.34439C15.5575 7.18966 16.2583 7.0514 16.8667 6.92962C17.0686 6.87662 17.264 6.86156 17.453 6.88444C17.6606 6.90589 17.8589 6.92805 18.0478 6.95093C18.2927 6.96951 18.5447 7.08114 18.8038 7.28583C19.063 7.49053 19.1675 7.75394 19.1175 8.07607C19.0588 8.28653 18.9092 8.41039 18.6687 8.44765C18.4267 8.4663 18.0982 8.45417 17.683 8.41128C17.6458 8.41415 17.6143 8.49147 17.5885 8.64323C17.5628 8.79499 17.5299 8.97538 17.4898 9.18441C17.4684 9.39201 17.4197 9.61106 17.3439 9.84157C17.2423 9.98046 17.1313 10.2418 17.0111 10.6255C16.9095 11.0077 16.8015 11.4279 16.687 11.8861C16.5726 12.3442 16.4831 12.763 16.4188 13.1424C16.3544 13.5218 16.328 13.786 16.3394 13.9349C16.1104 14.3644 15.9587 14.8254 15.8844 15.3179C15.8286 15.809 15.7428 16.2743 15.6269 16.7138C15.614 16.7897 15.5596 17.056 15.4638 17.5127C15.3851 17.9494 15.2857 18.4813 15.1655 19.1084C15.0453 19.7354 14.9251 20.3625 14.805 20.9896C14.6834 21.5981 14.5832 22.1207 14.5045 22.5573C14.4259 22.994 14.3887 23.2403 14.393 23.2961C14.4031 23.6698 14.3859 24.0549 14.3416 24.4515C14.3159 24.8466 14.3081 25.231 14.3181 25.6047C14.3425 25.6777 14.3568 25.7421 14.3611 25.7979C14.364 25.8352 14.3296 25.8752 14.2581 25.9182C14.1192 26.06 13.873 26.1445 13.5194 26.1717C13.1643 26.1804 12.9359 26.1324 12.8343 26.0279C12.7484 25.8848 12.6732 25.7595 12.6087 25.6522C12.5429 25.5262 12.5135 25.388 12.5206 25.2377C12.5177 24.7137 12.5427 24.1876 12.5956 23.6593C12.6485 23.131 12.6935 22.622 12.7306 22.1324C12.7864 21.6413 12.8644 21.1953 12.9645 20.7945C13.0647 20.3936 13.1413 20.1724 13.1942 20.1308L13.5719 18.1078C13.7336 17.5337 13.8302 17.0863 13.8616 16.7656C13.8916 16.4263 13.9224 16.0963 13.9538 15.7756C14.0039 15.4535 14.1026 15.034 14.25 14.5171C14.4003 14.0375 14.5133 13.5607 14.5891 13.0868C14.6821 12.5929 14.7758 12.1083 14.8702 11.6329C14.9661 11.1762 15.0662 10.7753 15.1707 10.4303C15.2737 10.0666 15.3524 9.75166 15.4068 9.48536C15.4798 9.21763 15.4998 8.99142 15.4668 8.80674C15.0602 8.87552 14.6823 8.95145 14.333 9.03454C14.0023 9.11619 13.6529 9.19928 13.285 9.2838C12.9343 9.34827 12.5012 9.43781 11.9858 9.55242C11.6723 9.61403 11.2586 9.71144 10.7446 9.84466C10.2292 9.95926 9.75106 10.071 9.31012 10.1799C8.88636 10.2687 8.61865 10.3174 8.50698 10.326C8.37813 10.3547 8.26933 10.4005 8.18058 10.4635C8.09182 10.5265 8.05103 10.6045 8.0582 10.6976C7.82206 11.2775 7.59594 11.8659 7.37984 12.4629C7.16231 13.0414 6.97126 13.599 6.8067 14.1359C6.65931 14.6528 6.55415 15.1102 6.49121 15.5082C6.45973 15.5855 6.39962 15.7774 6.3109 16.0838C6.22218 16.3902 6.11844 16.7445 5.99967 17.1468C5.8809 17.5492 5.77 17.9321 5.66697 18.2958C5.56394 18.6595 5.48309 18.9465 5.42442 19.157C5.38293 19.3474 5.36791 19.3954 5.37935 19.3009C5.16902 20.2157 4.99088 20.9409 4.84493 21.4764C4.71615 21.9918 4.6074 22.4027 4.51868 22.7091C4.42996 23.0155 4.35699 23.2832 4.29975 23.5123C4.24252 23.7414 4.18887 24.017 4.13881 24.3391C4.05009 24.6455 3.9807 24.9597 3.93064 25.2819C3.88057 25.604 3.83051 25.9261 3.78045 26.2483C3.76901 26.3428 3.74898 26.4473 3.72036 26.5618C3.71036 26.6749 3.69106 26.9104 3.66248 27.2683C3.59951 27.423 3.51506 27.5418 3.40913 27.6249C3.32324 27.7251 3.17722 27.7738 2.97106 27.771Z" fill="#2F94F9"/>
<path d="M71.9165 64.2737C72.0603 62.0953 72.1997 59.9175 72.3074 57.7379C72.3184 57.491 72.3323 57.2404 72.3375 56.9931C72.3394 56.9211 72.3388 56.8471 72.3446 56.7781C72.3279 56.5672 72.381 56.3405 72.5384 56.1227C72.6839 55.9202 72.97 55.7545 73.2183 55.7313C73.5699 55.6996 73.9668 55.8255 74.1706 56.1355C74.4576 56.5647 74.3803 57.0607 74.3627 57.5434C74.3379 58.1369 74.3053 58.7326 74.2691 59.3276C74.2298 60.0283 74.1848 60.7309 74.1406 61.43C78.6619 56.7542 81.8727 49.9636 80.1738 43.3277C79.6209 41.1724 78.5084 39.1398 77.1247 37.3741C76.3085 36.3333 77.939 35.1054 78.7578 36.1482C81.4601 39.5823 82.9036 43.7566 82.6581 48.1151C82.4321 52.0763 80.8537 55.8641 78.6584 59.1143C77.906 60.228 77.0674 61.2773 76.1619 62.269C77.6026 61.6219 78.9672 60.8223 80.2635 59.9108C81.3341 59.1563 82.5834 60.792 81.5041 61.5498C79.6861 62.8315 77.7162 63.9389 75.6229 64.7067C74.8059 65.0089 73.9428 65.2961 73.0736 65.4254C72.3877 65.5304 71.8774 64.913 71.9195 64.2756L71.9165 64.2737ZM72.5377 57.3558C72.5621 57.3643 72.5857 57.3764 72.61 57.3849C72.5814 57.3526 72.5501 57.3183 72.5277 57.2807C72.5515 57.346 72.5599 57.3831 72.5397 57.3532L72.5377 57.3558ZM72.3556 56.8868L72.354 56.8754C72.354 56.8754 72.3511 56.8792 72.353 56.8848L72.3556 56.8868Z" fill="#2F94F9"/>
</svg>
