<svg width="173" height="66" viewBox="0 0 173 66" fill="none" xmlns="http://www.w3.org/2000/svg">
<path d="M164.552 50.8836C164.191 50.8178 163.902 50.709 163.685 50.5573C163.486 50.4042 163.366 50.1887 163.326 49.911C163.34 49.8537 163.343 49.7692 163.334 49.6576C163.327 49.5645 163.356 49.45 163.42 49.314C163.42 49.314 163.478 49.3376 163.594 49.3848C163.729 49.4306 163.942 49.4048 164.234 49.3074C164.608 49.2973 164.866 49.24 165.007 49.1355C165.149 49.031 165.347 48.8097 165.602 48.4718C165.785 48.1769 165.993 47.8332 166.225 47.4409C166.475 47.0472 166.638 46.7258 166.712 46.4766C166.994 46.249 167.194 46.0463 167.311 45.8688C167.427 45.6727 167.534 45.4772 167.631 45.2825C167.624 45.1894 167.639 45.0198 167.676 44.7735C167.712 44.5087 167.828 44.1908 168.024 43.82C168.193 43.3389 168.358 42.933 168.52 42.6023C168.68 42.2529 168.756 42.0317 168.749 41.9387C168.749 41.9387 168.772 41.8714 168.818 41.7368C168.864 41.6022 168.87 41.4426 168.837 41.2579C168.945 41.1935 169.028 41.0653 169.088 40.8735C169.166 40.6616 169.187 40.454 169.153 40.2507C169.149 40.1948 169.216 39.9744 169.355 39.5892C169.492 39.1855 169.555 38.7875 169.543 38.3952C169.696 37.7094 169.799 37.1023 169.852 36.5741C169.922 36.0257 169.961 35.433 169.968 34.7959C169.975 34.1588 169.969 33.3449 169.948 32.3542C169.921 31.5138 169.901 30.8882 169.888 30.4773C169.874 30.0478 169.839 29.7228 169.785 29.5023C169.749 29.2804 169.648 29.0636 169.482 28.8517C169.25 28.2705 169.069 27.9849 168.938 27.9949C168.883 27.9992 168.812 27.9298 168.726 27.7866C168.657 27.6234 168.65 27.4087 168.704 27.1424C168.68 27.0694 168.701 26.9835 168.769 26.8847C168.836 26.7859 168.954 26.7393 169.123 26.745C169.253 26.735 169.397 26.7801 169.555 26.8803C169.729 26.9604 169.847 27.0356 169.909 27.1057C169.978 27.0255 170.097 27.11 170.266 27.3591C170.452 27.5881 170.659 27.9653 170.886 28.4907C171.018 28.7427 171.119 28.9595 171.189 29.1414C171.258 29.3046 171.31 29.4971 171.346 29.719C171.38 29.9223 171.403 30.2201 171.415 30.6124C171.425 30.986 171.437 31.5093 171.452 32.1822C171.502 32.8336 171.511 33.5537 171.478 34.3426C171.462 35.1114 171.427 35.8723 171.373 36.6254C171.317 37.3598 171.247 38.0299 171.163 38.6355C171.07 39.1294 170.938 39.7293 170.768 40.4351C170.596 41.1224 170.397 41.821 170.171 42.5312C169.964 43.2399 169.76 43.8734 169.559 44.4318C169.378 44.9888 169.221 45.3846 169.089 45.6194C169.126 45.6166 169.079 45.7325 168.947 45.9674C168.834 46.2007 168.671 46.5036 168.456 46.8758C168.258 47.228 168.052 47.5903 167.838 47.9625C167.624 48.3534 167.444 48.6856 167.296 48.9591C167.047 49.3714 166.757 49.7308 166.425 50.0372C166.093 50.3437 165.764 50.5749 165.439 50.731C165.114 50.8871 164.819 50.938 164.552 50.8836Z" fill="#2F94F9"/>
<path d="M163.417 40.2437C163.073 40.4012 162.78 40.4893 162.538 40.5079C162.314 40.5065 162.054 40.4142 161.759 40.231C161.379 39.9233 161.232 39.5976 161.318 39.254C161.421 38.8903 161.702 38.5223 162.16 38.15C162.479 37.9195 162.713 37.7892 162.86 37.7591C163.026 37.7276 163.282 37.7733 163.629 37.8964C164.214 38.207 164.487 38.5792 164.445 39.013C164.422 39.4454 164.079 39.8556 163.417 40.2437ZM161.914 46.2569C161.571 46.4144 161.278 46.5025 161.036 46.5212C160.811 46.5198 160.551 46.4274 160.256 46.2442C159.877 45.9365 159.73 45.6108 159.816 45.2672C159.919 44.9035 160.2 44.5355 160.658 44.1632C160.977 43.9327 161.21 43.8024 161.358 43.7723C161.524 43.7408 161.78 43.7866 162.126 43.9096C162.712 44.2202 162.984 44.5924 162.943 45.0262C162.92 45.4586 162.577 45.8688 161.914 46.2569Z" fill="#2F94F9"/>
<path d="M148.117 48.1061C147.368 47.8642 146.862 47.4914 146.598 46.9875C146.352 46.4635 146.251 45.6382 146.295 44.5114C146.288 43.9316 146.277 43.5486 146.263 43.3625C146.248 43.1764 146.132 42.9982 145.913 42.8278C145.851 42.7577 145.741 42.6632 145.582 42.5444C145.442 42.4242 145.377 42.3168 145.389 42.2223C145.36 42.0935 145.358 41.9532 145.384 41.8014C145.409 41.631 145.458 41.543 145.532 41.5372C145.607 41.5315 145.68 41.5072 145.751 41.4642C145.842 41.4198 145.925 41.4134 146.003 41.4448C146.077 41.4391 146.162 41.442 146.256 41.4534C146.351 41.4648 146.401 41.5078 146.406 41.5822C146.491 41.7068 146.613 41.7161 146.774 41.6101C146.933 41.4855 147.091 41.2299 147.248 40.8434C147.411 40.5312 147.63 40.2148 147.905 39.8941C148.199 39.5719 148.485 39.2784 148.764 39.0135C149.06 38.7285 149.307 38.5223 149.503 38.3949C149.593 38.3505 149.729 38.2932 149.911 38.223C150.092 38.1529 150.284 38.0913 150.486 38.0383C150.707 37.9838 150.892 37.9602 151.042 37.9673C151.379 37.9601 151.665 38.0317 151.901 38.1819C152.156 38.3308 152.395 38.509 152.617 38.7166C152.871 38.8654 153.038 39.0773 153.115 39.3522C153.211 39.6256 153.252 39.9219 153.24 40.2412C153.227 40.5605 153.165 40.8554 153.055 41.126C153.013 41.3164 152.873 41.552 152.632 41.8326C152.392 42.1132 152.113 42.3874 151.797 42.6552C151.48 42.923 151.187 43.1234 150.916 43.2566C150.679 43.3311 150.366 43.402 149.978 43.4694C149.609 43.5353 149.256 43.5811 148.921 43.607C148.604 43.6127 148.387 43.592 148.271 43.5448C148.135 43.4804 148.04 43.5906 147.987 43.8755C147.934 44.1604 147.909 44.5649 147.912 45.0889C147.907 45.5012 147.93 45.799 147.981 45.9822C148.033 46.1655 148.08 46.2929 148.123 46.3645C148.263 46.4847 148.453 46.6386 148.692 46.8261C148.948 46.9936 149.286 46.9957 149.704 46.8324C150.05 46.7121 150.376 46.4436 150.681 46.0269C151.004 45.6088 151.305 45.2674 151.584 45.0025C151.649 44.8664 151.764 44.7827 151.93 44.7511C152.113 44.6996 152.31 44.6938 152.519 44.7339C152.733 44.8484 152.829 45.0001 152.806 45.1891C152.801 45.358 152.728 45.6258 152.588 45.9923C152.542 46.1269 152.424 46.3044 152.235 46.5249C152.064 46.7254 151.865 46.9373 151.638 47.1607C151.429 47.364 151.236 47.5287 151.059 47.6547C150.523 47.9955 150.014 48.1939 149.532 48.2498C149.048 48.2871 148.576 48.2392 148.117 48.1061ZM149.327 42.312C149.729 42.1873 150.05 42.0971 150.289 42.0412C150.528 41.9854 150.753 41.8651 150.963 41.6804C151.172 41.477 151.425 41.1112 151.721 40.5829C151.78 40.3724 151.783 40.1663 151.73 39.9644C151.695 39.7611 151.638 39.6251 151.558 39.5564C151.376 39.3832 151.167 39.3431 150.931 39.4362C150.712 39.5093 150.506 39.6281 150.312 39.7928C150.186 39.8587 150.002 40.0133 149.758 40.2567C149.532 40.4801 149.309 40.7407 149.089 41.0385C148.867 41.3177 148.69 41.5747 148.558 41.8095C148.427 42.0444 148.399 42.1775 148.477 42.209C148.445 42.2863 148.551 42.325 148.795 42.3249C149.057 42.3234 149.234 42.3191 149.327 42.312Z" fill="#2F94F9"/>
<path d="M131.696 49.2593C131.437 49.0546 131.2 48.8857 130.983 48.7526C130.784 48.5994 130.611 48.4162 130.464 48.2029C130.333 47.9695 130.224 47.641 130.135 47.2172C130.09 46.8836 130.085 46.5658 130.118 46.2637C130.15 45.9616 130.212 45.6667 130.302 45.3789C130.438 44.9566 130.584 44.5428 130.74 44.1376C130.896 43.7324 131.051 43.3179 131.206 42.8941C131.403 42.2985 131.625 41.7759 131.871 41.3264C132.116 40.8582 132.369 40.614 132.629 40.594C132.947 40.5882 133.179 40.6826 133.325 40.8773C133.488 41.052 133.703 41.2882 133.97 41.5859C133.947 41.7749 133.896 41.966 133.817 42.1593C133.737 42.334 133.638 42.5008 133.519 42.6597C133.295 42.9203 133.112 43.206 132.967 43.5167C132.822 43.8274 132.716 44.1445 132.647 44.4681C132.538 44.7573 132.43 45.0465 132.321 45.3357C132.211 45.6063 132.11 45.8855 132.02 46.1733C131.733 46.8133 131.64 47.1948 131.743 47.3179C131.847 47.441 132.057 47.378 132.375 47.1288C132.711 46.8783 133.058 46.5239 133.416 46.0657C133.724 45.6862 133.964 45.3963 134.135 45.1958C134.307 44.9954 134.468 44.777 134.619 44.5408C134.67 44.4806 134.787 44.3031 134.971 44.0082C135.171 43.6932 135.371 43.3689 135.57 43.0353C135.786 42.6816 135.945 42.4353 136.046 42.2964C136.181 42.0989 136.297 41.9027 136.394 41.708C136.49 41.4946 136.567 41.2827 136.626 41.0723C136.649 40.8833 136.714 40.7566 136.821 40.6921C136.946 40.6077 137.103 40.5769 137.292 40.5997C137.486 40.6971 137.682 40.813 137.88 40.9475C138.076 41.0635 138.252 41.2746 138.406 41.581C138.514 41.7599 138.499 42.0513 138.361 42.455C138.243 42.8573 138.096 43.2618 137.921 43.6684C137.78 44.0163 137.676 44.3707 137.61 44.7315C137.563 45.0908 137.507 45.4602 137.443 45.8396C137.407 46.1045 137.486 46.398 137.679 46.7201C138.04 46.5425 138.306 46.3535 138.478 46.153C138.667 45.9325 138.836 45.7041 138.987 45.4679C139.156 45.2302 139.382 45.0068 139.665 44.7978C139.741 44.5673 139.867 44.3797 140.043 44.2351C140.236 44.0704 140.361 43.8642 140.417 43.6165L141.406 42.2484C141.542 42.0695 141.657 41.8547 141.75 41.6041C141.86 41.3335 141.974 41.1095 142.091 40.9319C142.226 40.7343 142.379 40.657 142.551 40.6999C143.144 40.8602 143.555 41.2216 143.786 41.7842C143.804 42.0262 143.733 42.4342 143.571 43.0083C143.427 43.5624 143.329 44.1129 143.277 44.6598C143.246 44.9805 143.234 45.3091 143.241 45.6455C143.265 45.9619 143.337 46.284 143.456 46.6119C143.613 46.7121 143.802 46.7256 144.021 46.6526C144.257 46.5595 144.468 46.5058 144.654 46.4914C144.817 46.6661 144.9 46.8937 144.903 47.1743C144.906 47.4549 144.894 47.6618 144.867 47.7949C144.707 47.9009 144.545 47.9976 144.384 48.0849C144.221 48.1537 144.036 48.1866 143.83 48.1838C143.546 48.1495 143.346 48.0994 143.228 48.0335C143.111 47.9677 143.001 47.8825 142.9 47.778C142.815 47.6535 142.674 47.5239 142.477 47.3894C142.159 47.1518 141.928 46.8326 141.785 46.4317C141.66 46.0294 141.563 45.6157 141.493 45.1905C141.417 45.1776 141.302 45.2614 141.147 45.4418C140.992 45.6222 140.814 45.8606 140.612 46.157C140.409 46.4348 140.18 46.7426 139.925 47.0805C139.688 47.3984 139.421 47.7091 139.127 48.0127C138.936 48.2145 138.724 48.3807 138.491 48.511C138.256 48.6227 137.959 48.6549 137.6 48.6077C137.366 48.4947 137.157 48.3329 136.973 48.1225C136.805 47.892 136.604 47.7109 136.369 47.5793C136.279 47.3803 136.19 47.1999 136.103 47.0381C136.033 46.8563 135.972 46.6738 135.92 46.4905C135.87 46.3259 135.829 46.1605 135.798 45.9945C135.765 45.8098 135.789 45.6394 135.871 45.4834C135.756 45.4547 135.641 45.5385 135.525 45.7347C135.408 45.9122 135.274 46.1284 135.126 46.3833C134.975 46.6195 134.786 46.84 134.559 47.0448C134.28 47.3097 134.046 47.5524 133.857 47.7729C133.668 47.9934 133.479 48.2139 133.29 48.4344C133.101 48.6549 132.867 48.9069 132.59 49.1904L131.696 49.2593Z" fill="#2F94F9"/>
<path d="M125.06 50.1079C124.777 50.0736 124.514 50.0657 124.272 50.0844C124.049 50.1016 123.833 50.0902 123.624 50.0501C123.432 49.99 123.254 49.8726 123.091 49.698C122.872 49.5277 122.706 49.3158 122.593 49.0624C122.478 48.7904 122.408 48.4869 122.382 48.1519C122.335 47.5377 122.384 46.8412 122.53 46.0624C122.693 45.2635 122.894 44.471 123.133 43.685C123.372 42.899 123.607 42.1788 123.837 41.5245C124.068 40.8702 124.234 40.3612 124.337 39.9976C124.284 39.7957 124.341 39.679 124.507 39.6475C124.692 39.6145 124.898 39.6174 125.126 39.656C125.352 39.676 125.503 39.7018 125.581 39.7332C125.702 39.8549 125.825 39.9859 125.948 40.1262C126.07 40.2479 126.146 40.3917 126.178 40.5578C126.229 40.741 126.197 40.9307 126.081 41.1269C125.984 41.3216 125.885 41.4884 125.783 41.6273C125.613 41.8464 125.441 42.1685 125.268 42.5938C125.094 43.019 124.926 43.5094 124.763 44.0649C124.617 44.6003 124.491 45.1437 124.383 45.6949C124.276 46.2461 124.194 46.7579 124.137 47.2304C124.097 47.6828 124.097 48.0479 124.137 48.3256C124.671 48.4529 125.195 48.4593 125.711 48.3447C126.226 48.2301 126.679 48.0267 127.068 47.7346C127.475 47.4225 127.776 47.081 127.972 46.7101C128.201 46.2806 128.256 45.9019 128.137 45.5741C128.035 45.2262 127.713 45.0545 127.171 45.0588C126.89 45.0617 126.63 45.0911 126.391 45.147C126.152 45.2029 125.904 45.2594 125.646 45.3167C125.504 45.1779 125.401 45.0548 125.337 44.9474C125.272 44.84 125.226 44.7312 125.199 44.621C125.162 44.3805 125.24 44.1779 125.433 44.0132C125.644 43.8285 125.886 43.6882 126.159 43.5922C126.451 43.4948 126.71 43.4561 126.936 43.4761C127.313 43.5033 127.694 43.5956 128.081 43.753C128.486 43.909 128.82 44.108 129.082 44.3499C129.242 44.4873 129.377 44.6548 129.486 44.8523C129.612 45.0298 129.692 45.2202 129.726 45.4235C129.837 45.8831 129.86 46.3026 129.795 46.682C129.729 47.0428 129.596 47.3806 129.396 47.6956C129.08 48.2068 128.571 48.6485 127.869 49.0209C127.186 49.3918 126.548 49.7312 125.954 50.0391C125.768 50.0534 125.618 50.0556 125.505 50.0456C125.409 50.0155 125.261 50.0363 125.06 50.1079Z" fill="#2F94F9"/>
<path d="M114.868 50.8091C114.732 50.7446 114.589 50.7089 114.438 50.7017C114.307 50.6932 114.166 50.6853 114.015 50.6782C113.875 50.5579 113.753 50.4363 113.65 50.3132C113.564 50.17 113.496 50.0068 113.444 49.8236C113.417 49.7133 113.428 49.6095 113.476 49.5122C113.525 49.4148 113.574 49.3267 113.624 49.248C113.68 49.2437 113.746 49.248 113.822 49.2609C113.896 49.2551 113.971 49.2494 114.045 49.2436C114.343 48.9773 114.602 48.6952 114.823 48.3974C115.06 48.0796 115.288 47.7531 115.505 47.4181C115.739 47.0444 115.944 46.6728 116.121 46.3034C116.298 45.9154 116.435 45.5117 116.534 45.0922C116.577 44.9204 116.601 44.75 116.607 44.581C116.611 44.3935 116.644 44.2224 116.707 44.0678C116.802 43.8358 116.868 43.606 116.907 43.3784C116.963 43.1307 117.019 42.8923 117.077 42.6633C116.793 42.6289 116.576 42.6082 116.426 42.6011C116.293 42.5739 116.167 42.5181 116.048 42.4336C115.929 42.3492 115.76 42.2218 115.541 42.0514C115.502 41.7923 115.516 41.6041 115.582 41.4866C115.646 41.3506 115.815 41.2346 116.089 41.1387C116.197 41.0928 116.307 41.0563 116.417 41.0291C116.526 40.9833 116.636 40.9561 116.748 40.9475C116.951 40.9131 117.155 40.888 117.36 40.8722C117.565 40.8564 117.779 40.8492 118.004 40.8506C118.154 40.8578 118.305 40.8742 118.457 40.9C118.609 40.9257 118.761 40.9515 118.912 40.9772C119.084 41.0201 119.258 41.0817 119.432 41.1618C119.605 41.2234 119.778 41.2756 119.95 41.3185C120.081 41.3271 120.206 41.3643 120.323 41.4301C120.441 41.496 120.568 41.5704 120.706 41.6534C121.057 41.8323 121.337 42.0728 121.548 42.3749C121.757 42.6583 121.876 42.9861 121.904 43.3584C121.949 43.9353 121.907 44.4815 121.778 44.9969C121.712 45.3577 121.637 45.7192 121.552 46.0814C121.487 46.4422 121.412 46.8037 121.327 47.166C121.271 47.4137 121.215 47.652 121.158 47.8811C121.1 48.1102 121.062 48.3471 121.044 48.592C121.022 48.7995 121.011 49.0157 121.01 49.2405C121.008 49.4653 120.998 49.7001 120.98 49.9449C120.907 49.9692 120.834 49.9936 120.761 50.0179C120.706 50.0408 120.634 50.0745 120.544 50.1189C120.333 50.0602 120.113 50.0023 119.884 49.945C119.654 49.8692 119.481 49.686 119.365 49.3954C119.362 49.3581 119.359 49.3209 119.356 49.2837C119.37 49.2264 119.375 49.1606 119.369 49.0861C119.365 49.0303 119.36 48.9744 119.356 48.9186C119.352 48.8628 119.347 48.8069 119.343 48.7511C119.354 48.4132 119.385 48.0832 119.435 47.7611C119.484 47.4204 119.552 47.0875 119.639 46.7625C119.759 46.3788 119.852 46.0065 119.918 45.6457C119.983 45.2663 120.048 44.8962 120.113 44.5355C120.156 44.3636 120.181 44.1933 120.186 44.0243C120.209 43.8354 120.224 43.6564 120.229 43.4875C120.232 43.2813 120.168 43.0522 120.036 42.8003C119.838 42.6657 119.634 42.5691 119.424 42.5105C119.212 42.4332 118.984 42.3852 118.739 42.3667C118.712 42.4998 118.657 42.6444 118.576 42.8005C118.56 42.8391 118.555 42.8957 118.561 42.9701C118.565 43.026 118.549 43.0646 118.513 43.0861C118.407 43.1692 118.341 43.2773 118.314 43.4104C118.304 43.5235 118.294 43.6459 118.286 43.7776C118.274 43.8721 118.254 43.9673 118.224 44.0633C118.194 44.1592 118.154 44.2558 118.105 44.3532C118.037 44.4334 117.998 44.5393 117.99 44.671C117.98 44.7842 117.97 44.9066 117.962 45.0383C117.946 45.3203 117.902 45.5952 117.829 45.8629C117.756 46.1307 117.657 46.4285 117.532 46.7563C117.449 46.8938 117.376 47.0398 117.313 47.1945C117.249 47.3305 117.185 47.4758 117.122 47.6304C117.11 47.7063 117.078 47.7836 117.028 47.8624C116.976 47.9225 116.936 48.0005 116.906 48.0965C116.827 48.2898 116.74 48.4931 116.644 48.7064C116.546 48.9011 116.429 49.0787 116.292 49.239C116.068 49.4996 115.846 49.7695 115.624 50.0487C115.421 50.3265 115.169 50.5799 114.868 50.8091Z" fill="#2F94F9"/>
<path d="M109.802 50.6662C109.417 50.7707 109.167 50.818 109.054 50.808C108.958 50.778 108.801 50.6778 108.582 50.5074C108.273 50.3815 108.007 50.2147 107.785 50.0072C107.582 49.7982 107.424 49.5763 107.313 49.3415C107.218 49.0867 107.174 48.8748 107.179 48.7059C107.185 48.0502 107.289 47.3401 107.493 46.5755C107.696 45.811 107.957 45.0701 108.276 44.3527C108.595 43.6354 108.95 43.0183 109.341 42.5014C109.749 41.9645 110.152 41.6058 110.55 41.4254C110.911 41.2478 111.26 41.1647 111.598 41.1761C111.936 41.1875 112.191 41.3457 112.365 41.6506C112.685 42.1688 112.647 42.5182 112.249 42.6986C112.193 42.7029 112.13 42.7358 112.06 42.7974C111.988 42.8404 111.955 42.8991 111.961 42.9735C112.038 43.005 112.244 42.9985 112.577 42.9541C112.909 42.8911 113.24 42.8094 113.569 42.7091C113.916 42.5888 114.141 42.4779 114.246 42.3762C114.353 42.3117 114.435 42.2774 114.491 42.2731C114.546 42.2688 114.687 42.2766 114.914 42.2966C115.237 42.3653 115.404 42.4648 115.414 42.5951C115.42 42.6695 115.453 42.7418 115.515 42.812C115.575 42.8635 115.642 42.8864 115.717 42.8806C115.849 42.8892 115.836 42.9744 115.68 43.1362C115.543 43.2966 115.298 43.5214 114.946 43.8106C114.61 44.0612 114.398 44.2273 114.311 44.3089C114.24 44.3705 114.241 44.5015 114.313 44.7019C114.489 45.0441 114.53 45.4528 114.435 45.9281C114.341 46.4035 114.145 46.896 113.847 47.4057C113.549 47.9154 113.175 48.4029 112.724 48.8683C112.29 49.3136 111.815 49.706 111.298 50.0453C110.799 50.3647 110.3 50.5716 109.802 50.6662ZM109.232 49.4744C109.307 49.4687 109.434 49.4214 109.615 49.3326C109.794 49.2252 109.937 49.1393 110.044 49.0748C110.113 48.9947 110.199 48.9037 110.304 48.8021C110.426 48.6804 110.523 48.6073 110.596 48.583C110.67 48.5773 110.761 48.5422 110.869 48.4777C110.975 48.3947 111.122 48.2429 111.311 48.0224C111.499 47.7833 111.743 47.4368 112.045 46.9829C112.386 46.5448 112.646 46.1503 112.825 45.7995C113.002 45.4301 113.033 45.1001 112.917 44.8095C112.893 44.7365 112.833 44.6943 112.739 44.6828C112.663 44.6699 112.557 44.6313 112.421 44.5669C112.235 44.5812 112.054 44.5483 111.88 44.4682C111.722 44.368 111.535 44.242 111.317 44.0903L110.827 43.5664L110.389 44.0776C110.114 44.3983 109.832 44.8694 109.543 45.4907C109.271 46.0921 109.047 46.7084 108.871 47.3398C108.694 47.9526 108.6 48.4372 108.59 48.7937C108.593 49.0743 108.654 49.2569 108.773 49.3413C108.892 49.4258 109.045 49.4701 109.232 49.4744Z" fill="#2F94F9"/>
<path d="M101.09 52.264C100.954 52.1996 100.808 52.1359 100.654 52.073C100.518 52.0086 100.382 51.9442 100.245 51.8797C100.128 51.8139 100.02 51.7474 99.9212 51.6801C99.5031 51.3566 99.2131 50.9951 99.0513 50.5957C98.9066 50.1763 98.8379 49.7697 98.845 49.376C98.8521 48.9823 98.8821 48.6429 98.935 48.358C98.9865 48.0545 99.008 47.8469 98.9994 47.7352C98.9693 47.5878 98.9864 47.4461 99.0508 47.31C99.1138 47.1554 99.1768 47.0008 99.2397 46.8461C99.5246 46.1689 99.7886 45.5869 100.032 45.1001C100.292 44.5933 100.677 44.0019 101.187 43.3261C101.292 43.2245 101.387 43.1328 101.475 43.0512C101.579 42.9495 101.686 42.8758 101.795 42.83L102.473 43.2551C102.554 43.3238 102.607 43.4132 102.634 43.5235C102.66 43.6151 102.652 43.7468 102.609 43.9186C102.582 44.0518 102.545 44.1856 102.499 44.3202C102.471 44.4348 102.423 44.5414 102.355 44.6402C102.062 44.9624 101.837 45.3168 101.679 45.7033C101.52 46.0713 101.353 46.4493 101.177 46.8373C101.19 47.0048 101.135 47.1494 101.014 47.2711C100.891 47.3742 100.827 47.5195 100.823 47.7071C100.833 47.8374 100.824 47.9691 100.797 48.1022C100.77 48.2354 100.743 48.3778 100.717 48.5296C100.61 48.8374 100.577 49.1302 100.617 49.4079C100.657 49.6857 100.688 49.9734 100.711 50.2712C100.866 50.3342 101 50.3707 101.113 50.3807C101.225 50.3721 101.366 50.2675 101.538 50.0671C101.886 49.722 102.125 49.4227 102.255 49.1693C102.404 48.9145 102.516 48.6625 102.59 48.4133C102.664 48.1642 102.773 47.875 102.916 47.5457C103.078 47.215 103.205 46.8026 103.298 46.3087C103.391 45.8148 103.449 45.3516 103.472 44.9192C103.494 44.4683 103.471 44.1705 103.403 44.0259C103.378 43.9343 103.378 43.8219 103.405 43.6887C103.433 43.5556 103.367 43.4296 103.208 43.3108C103.277 43.2306 103.303 43.0882 103.287 42.8834C103.271 42.6787 103.236 42.4661 103.182 42.2456C103.127 42.0252 103.059 41.8713 102.978 41.784C102.883 41.0424 102.807 40.421 102.75 39.92C102.71 39.3988 102.685 38.9514 102.675 38.5778C102.682 38.1841 102.7 37.8176 102.73 37.4782C102.745 37.421 102.842 37.2263 103.022 36.8941C103.22 36.5419 103.404 36.2655 103.576 36.0651C103.871 35.7615 104.283 35.5145 104.811 35.324C105.356 35.1135 105.826 35.0118 106.22 35.0189C106.202 35.0389 106.315 35.0396 106.557 35.021C106.817 35.0009 107.105 34.9693 107.42 34.9263C107.735 34.8834 107.966 34.8468 108.114 34.8167C108.26 34.768 108.406 34.7193 108.552 34.6706C108.698 34.6219 108.94 34.4816 109.278 34.2496C109.419 34.1451 109.538 34.1078 109.634 34.1379L110.437 34.7219C110.459 35.2445 110.359 35.6453 110.137 35.9245C109.913 36.1851 109.46 36.3792 108.777 36.5067C108.666 36.5153 108.545 36.5246 108.415 36.5347C108.283 36.5261 108.153 36.5455 108.026 36.5927C107.917 36.6385 107.815 36.6464 107.719 36.6164C107.641 36.5849 107.528 36.5749 107.379 36.5864C107.175 36.6021 106.963 36.6466 106.744 36.7196C106.523 36.774 106.29 36.7827 106.044 36.7455C105.388 36.9832 104.886 37.2746 104.538 37.6197C104.191 37.9648 104.045 38.5003 104.101 39.2261C104.228 39.909 104.369 40.516 104.522 41.0471C104.694 41.5768 104.805 42.1674 104.855 42.8188C104.905 42.9834 104.962 43.1194 105.027 43.2268C105.091 43.3341 105.073 43.4573 104.971 43.5962C105.097 44.0171 105.176 44.4322 105.207 44.8417C105.237 45.2325 105.205 45.5346 105.109 45.7479C105.082 45.8811 105.072 46.1252 105.081 46.4802C105.107 46.8152 105.041 47.176 104.883 47.5626C104.523 48.4703 104.146 49.2857 103.752 50.0088C103.357 50.7132 102.833 51.3246 102.18 51.843C102.056 51.9275 101.902 51.9955 101.719 52.047C101.554 52.0972 101.344 52.1695 101.09 52.264Z" fill="#2F94F9"/>
<path d="M89.8751 52.2856C89.51 52.6508 89.0691 52.8813 88.5523 52.9773C88.0541 53.0719 87.5552 53.0355 87.0555 52.868C86.5544 52.682 86.1284 52.3778 85.7776 51.9555C85.4296 51.5704 85.189 51.1209 85.0558 50.607C84.9212 50.0744 84.8581 49.3772 84.8666 48.5153C84.8664 47.7852 85.0431 47.0414 85.3967 46.284C85.7487 45.508 86.191 44.8093 86.7235 44.1879C87.2746 43.565 87.83 43.1197 88.3898 42.8519C88.6546 42.6443 88.8808 42.5426 89.0684 42.5468C89.2731 42.5311 89.5816 42.526 89.9939 42.5317C90.4263 42.5545 90.7492 42.6139 90.9625 42.7098C91.1944 42.8042 91.3827 42.9395 91.5273 43.1156C91.828 43.3732 92.0356 43.6381 92.1502 43.9101C92.2634 44.1635 92.33 44.4204 92.35 44.681C92.3072 45.0962 92.0667 45.6202 91.6287 46.2531C91.2079 46.8659 90.6303 47.3878 89.8959 47.8188C89.4965 47.9807 89.0541 48.0709 88.5688 48.0896C88.0835 48.1083 87.674 48.0182 87.3404 47.8192C86.9753 47.6976 86.7448 47.7434 86.6489 47.9567C86.5516 48.1515 86.4851 48.6246 86.4494 49.3763C86.4294 50.0892 86.5254 50.6061 86.7374 50.9267C86.9479 51.2288 87.2135 51.3955 87.5342 51.427C87.9121 51.4727 88.2049 51.5063 88.4125 51.5278C88.6373 51.5292 88.9007 51.4246 89.2027 51.2141C89.4862 51.0051 89.6644 50.8884 89.7374 50.864C89.809 50.8211 89.862 50.7795 89.8963 50.7394C89.9479 50.6793 90.0595 50.549 90.2313 50.3485C90.3515 50.2082 90.4467 50.1073 90.5168 50.0457C90.5856 49.9655 90.6664 49.9218 90.7595 49.9147C90.8526 49.9075 90.9399 49.9476 91.0215 50.0349C91.1017 50.1036 91.1804 50.1537 91.2578 50.1852C91.4439 50.1708 91.4897 50.2796 91.3952 50.5116C91.3194 50.7421 91.1448 51.027 90.8714 51.3664C90.5965 51.6871 90.2644 51.9935 89.8751 52.2856ZM89.391 46.3693C89.5886 46.2605 89.7926 46.1137 90.003 45.929C90.212 45.7257 90.3831 45.5159 90.5162 45.2997C90.6665 45.0635 90.7359 44.8709 90.7244 44.722C90.7043 44.4615 90.5668 44.2568 90.312 44.1079C90.0557 43.9404 89.6906 43.9405 89.2168 44.1081C89.0163 44.1797 88.7945 44.3372 88.5511 44.5806C88.3063 44.8054 88.073 45.0574 87.8511 45.3366C87.6479 45.6144 87.4797 45.8614 87.3466 46.0776C87.2321 46.2923 87.1949 46.4169 87.2349 46.4513C87.298 46.54 87.4619 46.6023 87.7268 46.638C87.9902 46.6552 88.2794 46.6422 88.5943 46.5992C88.9279 46.5548 89.1935 46.4782 89.391 46.3693Z" fill="#2F94F9"/>
<path d="M81.7349 56.1427C81.629 55.9824 81.5058 55.8421 81.3655 55.7218C81.2266 55.6202 81.0956 55.4992 80.9724 55.359C80.8694 55.2358 80.7906 55.0641 80.7362 54.8436C80.9737 54.2823 81.1927 53.7225 81.393 53.1641C81.5934 52.6058 81.821 52.0359 82.0757 51.4546L81.9297 51.3816C81.692 51.4561 81.4172 51.5335 81.1051 51.6137C80.8101 51.6739 80.5546 51.7591 80.3384 51.8694C80.2125 51.9352 80.0958 52.0004 79.9884 52.0648C79.8997 52.1278 79.778 52.1279 79.6233 52.0649C79.2812 52.241 78.9183 52.3907 78.5346 52.5139C78.151 52.637 77.7787 52.7874 77.418 52.965C77.1818 53.0581 76.9355 53.1426 76.6793 53.2185C76.4216 53.2758 76.1639 53.3331 75.9062 53.3904C75.7044 53.4434 75.4939 53.5064 75.2749 53.5795C75.073 53.6325 74.8697 53.6669 74.665 53.6827C74.088 53.7271 73.4753 53.6714 72.8267 53.5154C72.1781 53.3595 71.6255 52.9902 71.1687 52.4075C70.9066 52.1656 70.7219 51.9552 70.6145 51.7763C70.5257 51.5959 70.4219 51.3418 70.303 51.0139C70.2071 50.7405 70.1798 50.3869 70.2213 49.9531C70.2814 49.5178 70.3765 49.0518 70.5067 48.555C70.6555 48.0568 70.8072 47.5958 70.9618 47.172C71.1335 46.7281 71.2845 46.3795 71.4148 46.1261C71.4448 46.0301 71.4562 45.9356 71.4491 45.8426C71.4419 45.7495 71.4634 45.6636 71.5135 45.5849C71.628 45.3701 71.7052 45.1582 71.7453 44.9492C71.7854 44.7402 71.854 44.5383 71.9514 44.3436C72.305 44.3163 72.6071 44.3492 72.8576 44.4422C73.1082 44.5352 73.3387 44.7328 73.5492 45.0348C73.492 45.2639 73.4054 45.5982 73.2895 46.0377C73.1736 46.4773 73.0477 46.9082 72.9117 47.3306C72.7758 47.753 72.6491 48.0529 72.5317 48.2305C72.4473 48.3493 72.3629 48.5898 72.2784 48.9521C72.194 49.3143 72.1196 49.6851 72.0553 50.0645C72.0081 50.4238 71.9909 50.6873 72.0038 50.8548C72.0139 50.9851 72.0518 51.1132 72.1177 51.2392C72.1836 51.3651 72.258 51.4811 72.3411 51.587C72.5917 51.68 72.8143 51.7752 73.009 51.8725C73.2023 51.9513 73.4013 51.9827 73.606 51.967C73.6991 51.9598 73.9038 51.944 74.2202 51.9196C74.5552 51.8938 74.8888 51.8494 75.2209 51.7863C75.5717 51.7219 75.8 51.6481 75.906 51.565C75.9217 51.5264 75.9274 51.4791 75.9231 51.4233C75.9188 51.3675 75.9152 51.3209 75.9124 51.2837C75.8923 51.0232 75.9023 50.7884 75.9423 50.5793C75.9809 50.3517 76.0188 50.1147 76.056 49.8685C76.1361 49.4504 76.2298 48.9658 76.3371 48.4146C76.4616 47.8433 76.5682 47.2828 76.6569 46.7331C76.7456 46.1833 76.7749 45.713 76.7447 45.3221C76.7247 45.0616 76.8714 44.9005 77.1849 44.8389C77.4984 44.7773 77.7182 44.8352 77.8442 45.0127C77.9874 45.1702 78.1592 45.3348 78.3597 45.5066C78.3855 45.5982 78.3898 45.7757 78.3726 46.0392C78.3727 46.2826 78.3541 46.5274 78.3169 46.7736C78.2983 47.0184 78.264 47.1802 78.2139 47.259C78.2311 47.4823 78.2004 47.8123 78.1217 48.249C78.0602 48.6656 77.9894 49.0829 77.9093 49.501C77.8292 49.9191 77.7512 50.2434 77.6753 50.4739C77.6625 50.5497 77.6596 50.6342 77.6668 50.7273C77.6911 50.8003 77.7248 50.8726 77.7677 50.9441C78.2402 50.758 78.714 50.5904 79.1893 50.4414C79.6646 50.2925 80.1299 50.1349 80.5851 49.9688C80.7125 49.9215 80.7626 49.8428 80.7354 49.7325C80.7254 49.6023 80.6989 49.5013 80.6559 49.4297C80.7203 49.0503 80.7567 48.6731 80.7653 48.298C80.7924 47.9215 80.8854 47.5492 81.0443 47.1813C81.06 47.1426 81.1022 46.9615 81.1709 46.6379C81.2396 46.3144 81.304 45.935 81.364 45.4997C81.4427 45.063 81.5157 44.6736 81.5829 44.3314C81.6487 43.9707 81.6873 43.743 81.6988 43.6485C81.789 43.6041 81.8799 43.569 81.9715 43.5433C82.0617 43.4989 82.1433 43.4645 82.2163 43.4401C82.3323 43.4874 82.4389 43.5353 82.5363 43.584C82.6508 43.6126 82.7661 43.6505 82.8821 43.6977C82.9451 43.7865 83.0088 43.8846 83.0732 43.9919C83.1549 44.0792 83.2365 44.1666 83.3181 44.2539C83.374 44.493 83.3554 44.8595 83.2624 45.3534C83.1866 45.8273 83.0857 46.3406 82.9598 46.8932C82.8525 47.4444 82.751 47.9484 82.6551 48.4051C82.5764 48.8418 82.5621 49.1424 82.6123 49.3071C82.9301 49.3013 83.2079 49.3829 83.4455 49.5518C83.6832 49.7207 83.8951 49.9196 84.0813 50.1487C84.2389 50.7356 84.2167 51.299 84.015 51.8388C83.8318 52.3771 83.5921 52.9104 83.2958 53.4388C83.0167 53.947 82.8142 54.4775 82.6883 55.0301C82.6181 55.3351 82.5036 55.5499 82.3448 55.6744C82.1873 55.8176 81.984 55.9737 81.7349 56.1427Z" fill="#2F94F9"/>
<path d="M63.7784 54.6061C63.0296 54.3642 62.5234 53.9914 62.2599 53.4875C62.0136 52.9635 61.9125 52.1382 61.9568 51.0114C61.9495 50.4316 61.9387 50.0486 61.9244 49.8625C61.91 49.6764 61.7933 49.4982 61.5743 49.3278C61.5127 49.2577 61.4024 49.1632 61.2435 49.0444C61.1032 48.9242 61.0387 48.8168 61.0502 48.7223C61.0215 48.5935 61.0201 48.4532 61.0458 48.3014C61.0701 48.131 61.1195 48.043 61.194 48.0372C61.2684 48.0315 61.3414 48.0072 61.413 47.9642C61.5032 47.9198 61.5869 47.9134 61.6643 47.9448C61.7387 47.9391 61.8232 47.942 61.9177 47.9534C62.0122 47.9648 62.0623 48.0078 62.068 48.0822C62.1525 48.2068 62.2749 48.2161 62.4352 48.1101C62.5941 47.9855 62.7523 47.7299 62.9097 47.3434C63.0729 47.0312 63.2919 46.7148 63.5667 46.3941C63.8602 46.0719 64.1465 45.7784 64.4256 45.5135C64.7219 45.2285 64.9681 45.0223 65.1643 44.8949C65.2544 44.8505 65.3904 44.7932 65.5722 44.723C65.7541 44.6529 65.9459 44.5913 66.1478 44.5383C66.3682 44.4838 66.5536 44.4602 66.7039 44.4673C67.0404 44.4601 67.3267 44.5317 67.563 44.6819C67.8178 44.8308 68.0562 45.009 68.2782 45.2166C68.533 45.3654 68.6991 45.5773 68.7765 45.8522C68.8724 46.1256 68.914 46.4219 68.9012 46.7412C68.8883 47.0605 68.8268 47.3554 68.7166 47.626C68.6751 47.8164 68.5341 48.052 68.2937 48.3326C68.0532 48.6132 67.7747 48.8874 67.4584 49.1552C67.142 49.423 66.8486 49.6234 66.578 49.7566C66.3404 49.8311 66.0275 49.902 65.6396 49.9694C65.2702 50.0353 64.918 50.0811 64.583 50.107C64.2652 50.1127 64.0483 50.092 63.9323 50.0448C63.7963 49.9804 63.7018 50.0906 63.6489 50.3755C63.596 50.6604 63.571 51.0649 63.5739 51.5889C63.5682 52.0012 63.5912 52.299 63.6428 52.4822C63.6943 52.6655 63.7416 52.7929 63.7845 52.8645C63.9249 52.9847 64.1146 53.1386 64.3537 53.3261C64.61 53.4936 64.9472 53.4957 65.3652 53.3324C65.7116 53.2121 66.0373 52.9436 66.3422 52.5269C66.6657 52.1088 66.967 51.7674 67.2461 51.5025C67.3105 51.3664 67.4258 51.2827 67.5918 51.2511C67.7751 51.1996 67.9712 51.1938 68.1802 51.2339C68.395 51.3484 68.491 51.5001 68.4681 51.6891C68.4624 51.858 68.3894 52.1258 68.2491 52.4923C68.2033 52.6269 68.086 52.8044 67.897 53.0249C67.7253 53.2254 67.5263 53.4373 67.3001 53.6607C67.0911 53.864 66.8979 54.0287 66.7204 54.1547C66.185 54.4955 65.676 54.6939 65.1936 54.7498C64.7097 54.7871 64.2379 54.7392 63.7784 54.6061ZM64.9887 48.812C65.391 48.6873 65.7117 48.5971 65.9508 48.5412C66.1898 48.4854 66.4146 48.3651 66.625 48.1804C66.834 47.977 67.0867 47.6112 67.3829 47.0829C67.4416 46.8724 67.4444 46.6663 67.3914 46.4644C67.357 46.2611 67.2998 46.1251 67.2196 46.0564C67.0377 45.8832 66.8287 45.8431 66.5925 45.9362C66.3735 46.0093 66.1673 46.1281 65.9741 46.2928C65.8481 46.3587 65.6634 46.5133 65.4201 46.7567C65.1939 46.9801 64.9706 47.2407 64.7502 47.5385C64.5283 47.8177 64.3515 48.0747 64.2198 48.3096C64.0882 48.5444 64.061 48.6775 64.1383 48.709C64.1068 48.7863 64.2127 48.825 64.4561 48.8249C64.7181 48.8234 64.8957 48.8191 64.9887 48.812Z" fill="#2F94F9"/>
<path d="M40.3975 56.0427C40.336 55.9725 40.2729 55.8838 40.2085 55.7764C40.1627 55.6676 40.1369 55.576 40.1312 55.5015C40.1283 55.4643 40.1154 55.4185 40.0925 55.3641C40.0882 55.3083 40.0488 55.2832 39.9744 55.2889C39.9142 55.2374 39.935 55.0205 40.0365 54.6382C40.1553 54.2359 40.307 53.7749 40.4916 53.2552C40.6948 52.734 40.8995 52.2315 41.1056 51.7476C41.3289 51.2436 41.5135 50.8455 41.6595 50.5535C41.7482 50.4905 41.7983 50.4117 41.8098 50.3172C41.8384 50.2027 41.8341 50.1468 41.7969 50.1497C41.7969 50.1497 41.8369 50.0624 41.9171 49.8877C42.0144 49.693 42.0888 49.5656 42.1404 49.5054C42.2692 49.2334 42.3608 48.9642 42.4151 48.6979C42.4681 48.413 42.4687 48.1789 42.4172 47.9957C42.3356 47.9084 42.2497 47.8869 42.1595 47.9313C42.0693 47.9757 42.0242 47.9979 42.0242 47.9979C41.9512 48.0222 41.8424 48.0681 41.6978 48.1354C41.5704 48.1826 41.4537 48.2478 41.3478 48.3308C40.9427 48.6616 40.6649 48.8234 40.5146 48.8163C40.3628 48.7906 40.1767 48.5615 39.9562 48.1292C39.8659 47.9302 39.8265 47.7834 39.838 47.689C39.8494 47.5945 39.916 47.4864 40.0377 47.3647C40.1765 47.2229 40.3096 47.1284 40.437 47.0811C40.563 47.0153 40.6611 46.9515 40.7312 46.89C40.9259 46.7439 41.0862 46.6379 41.2122 46.5721C41.3568 46.5048 41.4656 46.4589 41.5386 46.4346C42.011 46.2484 42.4184 46.1889 42.7605 46.2562C43.1027 46.3234 43.3726 46.546 43.5702 46.9239C43.8552 47.2202 44.0134 47.5731 44.045 47.9826C44.0751 48.3734 43.98 48.8394 43.7596 49.3806L43.5127 49.8209C43.4339 50.0142 43.4225 50.1087 43.4783 50.1044C43.5528 50.0986 43.6315 50.027 43.7145 49.8896C43.7646 49.8108 43.8677 49.6906 44.0237 49.5288C44.1798 49.367 44.2857 49.2839 44.3415 49.2796C44.3415 49.2796 44.3594 49.2689 44.3952 49.2474C44.4496 49.2245 44.4718 49.1479 44.4617 49.0176C44.5133 48.9575 44.5648 48.8973 44.6163 48.8372C44.6865 48.7756 44.7216 48.7448 44.7216 48.7448C44.796 48.7391 44.9291 48.6446 45.1209 48.4613C45.3299 48.258 45.574 48.0239 45.8531 47.759C46.0464 47.5943 46.2268 47.5055 46.3943 47.4926C46.8123 47.3293 47.1674 47.4424 47.4595 47.8318C47.7702 48.2197 47.9507 48.7394 48.0009 49.3908L47.5308 50.9435L48.4412 49.6377C48.5413 49.4802 48.643 49.3413 48.746 49.221C48.8677 49.0993 48.9722 48.9976 49.0595 48.916C49.0867 48.7829 49.1368 48.7041 49.2098 48.6798C49.2828 48.6554 49.3193 48.6432 49.3193 48.6432C49.3193 48.6432 49.338 48.6418 49.3752 48.6389C49.411 48.6175 49.4267 48.5788 49.4224 48.523C49.5097 48.4414 49.6071 48.3683 49.7144 48.3039C49.8204 48.2208 49.8891 48.1406 49.9206 48.0633C50.2269 47.9087 50.514 47.8678 50.7817 47.9408C51.048 47.9952 51.2893 48.2106 51.5055 48.5871C51.653 48.8004 51.7425 48.9901 51.774 49.1561C51.8055 49.3222 51.8342 49.5728 51.86 49.9078C51.8443 50.1898 51.8243 50.416 51.8 50.5864C51.7928 50.7367 51.7864 50.8963 51.7807 51.0653C51.775 51.2342 51.765 51.469 51.7508 51.7697C51.6878 51.9243 51.6535 52.0861 51.6477 52.255C51.6607 52.4225 51.6728 52.5807 51.6843 52.7296C51.703 52.9716 51.7252 53.1383 51.751 53.23C51.7753 53.303 51.8526 53.3345 51.9829 53.3244C52.2392 53.2485 52.5827 53.091 53.0136 52.8518C53.4617 52.5926 53.7895 52.3521 53.9971 52.1301C54.2562 51.848 54.4881 51.6991 54.6928 51.6833C54.9147 51.6475 55.0622 51.7391 55.1352 51.9582C55.1782 52.0297 55.126 52.2023 54.9786 52.4757C54.8497 52.7478 54.6923 53.0126 54.5062 53.2704C54.3387 53.5267 54.2085 53.6584 54.1154 53.6656C54.0596 53.6699 53.9988 53.7307 53.9329 53.8481C53.8656 53.9469 53.7876 54.0278 53.6989 54.0908C53.5786 54.2312 53.4577 54.3622 53.336 54.4839C53.2329 54.6042 53.107 54.67 52.9581 54.6815C52.8836 54.6872 52.7927 54.7223 52.6853 54.7868C52.5952 54.8312 52.4849 54.8584 52.3546 54.8684C52.1728 54.9386 51.8822 54.9329 51.4828 54.8514C51.1019 54.7684 50.8399 54.5265 50.6967 54.1256C50.6064 53.9266 50.5162 53.606 50.4259 53.1636C50.3343 52.7026 50.3077 52.2366 50.3463 51.7656C50.3949 51.4248 50.4178 51.1141 50.4149 50.8335C50.412 50.5529 50.4341 50.3546 50.4814 50.2387C50.4771 50.1828 50.467 50.0526 50.4512 49.8478C50.434 49.6245 50.3975 49.515 50.3417 49.5193C50.2672 49.525 50.1012 49.6782 49.8435 49.9789C49.603 50.2596 49.3125 50.6189 48.9718 51.0571C48.6497 51.4938 48.3291 51.9491 48.0099 52.423C47.6907 52.897 47.4331 53.3193 47.237 53.6902C47.0853 53.9078 46.9557 54.1705 46.8484 54.4784C46.7411 54.7862 46.6609 54.9609 46.6079 55.0024C46.4891 55.1613 46.3324 55.1921 46.1377 55.0948C45.9616 54.996 45.7897 54.8314 45.6222 54.6009C45.5577 54.4936 45.5134 54.4034 45.489 54.3304C45.4632 54.2388 45.4539 54.1178 45.461 53.9675C45.4854 53.7971 45.5318 53.5501 45.6005 53.2265C45.6878 52.9015 45.8023 52.4434 45.9439 51.8521C46.0999 51.2035 46.2329 50.6223 46.3431 50.1083C46.4705 49.5742 46.5341 49.3072 46.5341 49.3072C46.5284 49.2328 46.3945 49.318 46.1326 49.5628C45.8692 49.7891 45.5636 50.0747 45.2157 50.4198C45.064 50.6374 44.8085 50.9661 44.4492 51.4056C44.0899 51.8452 43.6977 52.3435 43.2726 52.9005C42.8475 53.4574 42.4431 54.0409 42.0595 54.6508C41.5786 55.4555 41.2329 55.9502 41.0225 56.1349C40.8306 56.3182 40.6223 56.2874 40.3975 56.0427Z" fill="#2F94F9"/>
<path d="M34.1413 57.6481C33.3224 57.7112 32.6287 57.4558 32.0602 56.8818C31.4903 56.2891 31.1788 55.5268 31.1257 54.5948C31.1113 53.9219 31.1864 53.1953 31.3509 52.4151C31.5326 51.6147 31.7916 50.8459 32.128 50.1085C32.4629 49.3526 32.8422 48.6868 33.2659 48.1112C33.6896 47.5356 34.1441 47.1168 34.6294 46.8547C34.8083 46.7473 34.998 46.6578 35.1984 46.5862C35.4174 46.5132 35.6386 46.468 35.862 46.4508C36.0667 46.435 36.2836 46.4558 36.5127 46.513C36.7403 46.5516 36.9314 46.6024 37.0861 46.6654C37.4125 46.7713 37.6666 46.9108 37.8485 47.084C38.0303 47.2572 38.2015 47.5342 38.3619 47.915C38.4449 48.2644 38.4922 48.5135 38.5037 48.6624C38.5152 48.8113 38.4859 49.0382 38.4158 49.3431C38.2441 50.0304 38 50.6295 37.6837 51.1407C37.3674 51.6518 36.9243 52.0979 36.3546 52.4788C36.2129 52.5833 36.0418 52.6714 35.8414 52.743C35.6581 52.7946 35.4642 52.8282 35.2594 52.844C34.8872 52.8727 34.5193 52.8355 34.1556 52.7325C33.8091 52.6094 33.5228 52.4162 33.2965 52.1528L33.0839 51.9445L33.0173 52.1743C32.8699 52.6912 32.7569 53.1679 32.6782 53.6046C32.6182 54.0398 32.6018 54.4343 32.629 54.7879C32.6462 55.0112 32.6813 55.2238 32.7343 55.4257C32.8059 55.6261 32.894 55.7972 32.9985 55.9389C33.0816 56.0448 33.209 56.1192 33.3808 56.1622C33.5698 56.185 33.7667 56.1886 33.9714 56.1728C34.1017 56.1628 34.232 56.1527 34.3622 56.1427C34.5097 56.1126 34.6464 56.0646 34.7724 55.9988C35.0802 55.8627 35.3221 55.7224 35.4982 55.5777C35.6929 55.4317 35.8868 55.2763 36.0801 55.1117L36.1875 55.0472L36.1595 55.0494C36.3743 54.9205 36.5611 54.7938 36.72 54.6692C36.8975 54.5432 36.9862 54.4802 36.9862 54.4802C37.0607 54.4744 37.1316 54.4222 37.1988 54.3234C37.342 54.2374 37.5303 54.251 37.7636 54.3641C38.0156 54.4757 38.1495 54.6339 38.1653 54.8386C38.1538 54.9331 38.0816 55.0885 37.9484 55.3047C37.8139 55.5023 37.66 55.692 37.4868 55.8738C37.3322 56.0542 37.1998 56.158 37.0896 56.1853C37.0724 56.2053 37.0101 56.2476 36.9028 56.312C36.794 56.3578 36.7224 56.4008 36.688 56.4409L36.7159 56.4387C36.5656 56.675 36.4068 56.7995 36.2393 56.8125L36.0159 56.8297C35.9515 56.9657 35.721 57.1332 35.3245 57.3323C34.9265 57.5127 34.5321 57.618 34.1413 57.6481ZM34.9242 51.4095C35.2592 51.3837 35.5405 51.2684 35.7681 51.0637C36.0129 50.8389 36.219 50.5983 36.3865 50.342C36.72 49.8108 36.8967 49.3104 36.9167 48.8408C36.9539 48.3512 36.8722 48.0205 36.6718 47.8487C36.5558 47.8015 36.4513 47.7815 36.3582 47.7886C36.2823 47.7758 36.1263 47.8159 35.8901 47.909C35.7255 47.9591 35.5036 48.1166 35.2244 48.3815C34.9453 48.6464 34.6683 48.9392 34.3935 49.26C34.1372 49.5793 33.9426 49.847 33.8095 50.0632L33.4917 50.6774C33.6363 50.6101 33.7737 50.5714 33.904 50.5614C34.0515 50.5313 34.136 50.5342 34.1574 50.57C34.1703 50.7375 34.2104 50.8935 34.2778 51.0381C34.3622 51.1626 34.4539 51.2586 34.5527 51.3258C34.6701 51.3917 34.7939 51.4196 34.9242 51.4095Z" fill="#2F94F9"/>
<path d="M25.1454 58.0889C25.091 58.1119 24.9586 58.094 24.7481 58.0353C24.5362 57.958 24.3043 57.8636 24.0523 57.7519C23.8175 57.6203 23.6299 57.4943 23.4896 57.3741C23.3263 57.1994 23.1724 57.0241 23.0278 56.848C22.9003 56.6519 22.8266 56.4235 22.8065 56.163C22.6547 55.8938 22.558 55.6111 22.5165 55.3148C22.4921 54.9984 22.4591 54.692 22.4176 54.3956C22.3631 53.9318 22.4289 53.4493 22.6149 52.9482C22.7995 52.4285 22.9476 52.0426 23.0593 51.7906C23.1323 51.5229 23.2926 51.1735 23.5402 50.7426C23.805 50.2916 24.1356 49.8448 24.5321 49.4024C24.9286 48.9599 25.3509 48.6091 25.799 48.3499C26.0853 48.1781 26.3738 48.0342 26.6644 47.9182C26.9722 47.7821 27.3365 47.7728 27.7575 47.8901C27.9665 47.9301 28.1211 47.9931 28.2213 48.079C28.3216 48.1649 28.4311 48.2501 28.55 48.3345C28.6902 48.2114 28.7904 47.9322 28.8505 47.4969C28.9277 47.0417 28.9541 46.5341 28.9297 45.9744C28.9225 45.3945 28.8523 44.8476 28.719 44.3337C28.603 43.7997 28.4118 43.3838 28.1455 43.0861C27.6515 42.5063 27.1274 42.1442 26.5733 41.9997C26.0193 41.8551 25.4094 41.9583 24.7437 42.3092C24.5132 42.2333 24.2949 42.0723 24.0887 41.8261C23.9011 41.5784 23.8345 41.3214 23.8888 41.0551C24.0277 40.9134 24.2038 40.7688 24.4171 40.6213C24.6304 40.4738 24.8472 40.3728 25.0677 40.3184C25.324 40.2425 25.5817 40.1852 25.8408 40.1465C26.1185 40.1063 26.4127 40.1586 26.7234 40.3031C27.7156 40.5449 28.4759 40.9357 29.0042 41.4753C29.5498 41.9949 29.9465 42.6477 30.1942 43.4337C30.442 44.2196 30.6247 45.1323 30.7422 46.1717C30.8024 46.4666 30.8325 46.7357 30.8326 46.9791C30.8498 47.2024 30.8513 47.5861 30.837 48.1302C30.6695 48.3865 30.6173 48.6807 30.6804 49.0128C30.7606 49.3249 30.7463 49.6256 30.6375 49.9148C30.6433 50.2326 30.589 50.4989 30.4745 50.7137C30.3599 50.9284 30.3099 51.1289 30.3242 51.315C30.0609 52.2714 29.6752 53.2185 29.1671 54.1563C28.6776 55.0927 28.095 55.9145 27.4194 56.6219C26.7438 57.3292 25.9858 57.8182 25.1454 58.0889ZM24.8381 56.2872C25.0299 56.3473 25.3033 56.2514 25.6584 55.9994C26.0119 55.7287 26.3691 55.3829 26.7298 54.962C27.0891 54.5224 27.3847 54.1064 27.6166 53.7141C27.6996 53.5767 27.8041 53.3533 27.93 53.0441C28.0746 52.7334 28.2012 52.4334 28.31 52.1442C28.4374 51.8536 28.5075 51.6703 28.5204 51.5944C28.652 51.1162 28.7113 50.6717 28.6984 50.2608C28.7026 49.8299 28.6346 49.5543 28.4943 49.434C28.2709 49.2079 27.9316 49.1779 27.4763 49.344C27.0397 49.5087 26.6281 49.7557 26.2416 50.0851C25.9611 50.3313 25.7141 50.6499 25.5009 51.0408C25.3048 51.4116 25.0973 51.7553 24.8783 52.0717C24.9069 52.2005 24.8783 52.3151 24.7924 52.4153C24.7251 52.5141 24.6486 52.6136 24.5627 52.7138C24.3566 53.1978 24.2321 53.6473 24.1892 54.0625C24.1449 54.4591 24.1263 54.7039 24.1335 54.797C24.1564 55.0948 24.2266 55.3983 24.344 55.7075C24.4615 56.0167 24.6262 56.21 24.8381 56.2872Z" fill="#2F94F9"/>
<path d="M14.4598 64.6694C14.0231 64.8341 13.5314 64.8907 12.9845 64.8392C12.4576 64.8049 11.9894 64.6819 11.5799 64.47C11.1518 64.2597 10.8984 64.0077 10.8196 63.7142C10.7924 63.604 10.8203 63.4802 10.9033 63.3427C10.9677 63.2067 11.0629 63.1057 11.1889 63.0399C11.2977 62.994 11.4029 63.0234 11.5046 63.1279C11.6606 63.2095 11.9391 63.3003 12.34 63.4005C12.7423 63.5193 13.1818 63.5135 13.6586 63.3831C14.0795 63.2571 14.4789 62.9735 14.8567 62.5325C15.2533 62.0901 15.5682 61.682 15.8015 61.3083C15.9332 61.0735 16.1536 60.654 16.4627 60.0498C16.7719 59.4456 17.086 58.7848 17.4052 58.0675C17.7415 57.3302 18.017 56.6537 18.2317 56.038C18.2761 55.8848 18.3276 55.703 18.3862 55.4925C18.4449 55.2821 18.5251 55.1074 18.6267 54.9685C18.7211 54.7366 18.7984 54.5247 18.8585 54.3328C18.9358 54.1209 18.9809 53.977 18.9938 53.9011C19.0052 53.8066 19.0746 53.6141 19.202 53.3234C19.3294 53.0328 19.4474 52.7429 19.5562 52.4536C19.6277 52.1673 19.7358 51.7471 19.8803 51.193C20.0248 50.6389 20.1772 50.1872 20.3375 49.8379C20.5279 49.3926 20.6781 49.0347 20.7883 48.7641C20.9157 48.4734 21.061 48.2937 21.2242 48.225C21.3817 48.0818 21.4883 48.008 21.5441 48.0037C21.6186 47.998 21.7625 48.0431 21.9758 48.139C22.2164 48.3451 22.3732 48.5577 22.4462 48.7767C22.5178 48.9771 22.51 49.2398 22.4227 49.5648C22.3526 49.8698 22.198 50.2936 21.959 50.8362C21.8446 51.2944 21.7086 51.7167 21.5512 52.1033C21.4109 52.4698 21.2986 52.7125 21.2141 52.8314C21.1383 53.0619 21.046 53.3217 20.9372 53.6109C20.8456 53.8801 20.7619 54.1299 20.6861 54.3605C20.4084 55.1307 20.1666 55.7578 19.9605 56.2418C19.7544 56.7257 19.5733 57.1703 19.4173 57.5754C19.2613 57.9806 19.1011 58.4517 18.9365 58.9886C18.5615 59.7102 18.1929 60.3939 17.8308 61.0396C17.4888 61.7025 17.1152 62.321 16.7101 62.8952C16.5369 63.077 16.3193 63.2904 16.0573 63.5352C15.7954 63.7801 15.5227 64.0071 15.2392 64.2161C14.9744 64.4238 14.7146 64.5748 14.4598 64.6694ZM17.7122 57.6788C17.4302 57.6631 17.1381 57.5171 16.836 57.2408C16.5525 56.9631 16.3234 56.6625 16.1487 56.339C15.974 56.0154 15.8995 55.7778 15.9252 55.626C15.918 55.533 15.9123 55.4585 15.908 55.4027C15.9037 55.3468 15.9016 55.3189 15.9016 55.3189C15.7899 55.3275 15.6768 55.1958 15.5622 54.9238C15.4662 54.6504 15.3824 54.2918 15.3108 53.848C15.2391 53.4042 15.1746 52.9317 15.1173 52.4306C15.0786 51.9281 15.0606 51.4521 15.0634 51.0026C15.1135 50.6804 15.1242 50.3333 15.0955 49.961C15.0654 49.5702 15.051 49.2624 15.0524 49.0376C15.0108 48.7413 15.0237 48.5437 15.091 48.4449C15.1568 48.3275 15.2248 48.238 15.2949 48.1764C15.7989 47.9129 16.1539 48.026 16.3602 48.5156C16.5836 48.9851 16.7004 49.8935 16.7106 51.2407C16.7307 51.988 16.7881 52.7325 16.8827 53.4741C16.9773 54.2157 17.1299 54.8592 17.3404 55.4046C17.5695 55.9486 17.8502 56.3108 18.1824 56.4911C18.3184 56.5555 18.3914 56.6529 18.4015 56.7832C18.4115 56.9134 18.385 57.0559 18.3221 57.2105C18.2577 57.3465 18.1639 57.4661 18.0408 57.5692C17.9349 57.6523 17.8253 57.6888 17.7122 57.6788Z" fill="#2F94F9"/>
<path d="M4.04549 59.9116C3.86081 59.9445 3.57806 59.9195 3.19722 59.8365C2.83356 59.7335 2.58157 59.6219 2.44125 59.5016C2.29663 59.3256 2.15844 59.1115 2.02669 58.8596C1.91355 58.6062 1.82118 58.3793 1.74957 58.1789C1.69513 57.9584 1.66648 57.8296 1.66361 57.7923L1.82005 55.4494C1.90019 55.2747 1.9331 55.0943 1.91875 54.9082C1.92302 54.7207 1.95592 54.5403 2.01746 54.367C1.99168 54.2754 2.00525 54.0871 2.05818 53.8022C2.12829 53.4973 2.20555 53.1637 2.28997 52.8014C2.39156 52.4192 2.48672 52.0748 2.57544 51.7685C2.66273 51.4435 2.71209 51.2337 2.72353 51.1392C2.77646 50.8543 2.85731 50.5672 2.96607 50.278C3.07484 49.9888 3.1743 49.7003 3.26445 49.4125C3.37605 48.9172 3.46047 48.555 3.5177 48.3259C3.57494 48.0968 3.62645 47.915 3.67225 47.7804C3.73665 47.6444 3.80893 47.489 3.88908 47.3144C3.96779 47.1211 4.07656 46.8319 4.21537 46.4467L5.57419 42.5789C5.38091 42.5002 5.19978 42.3363 5.0308 42.0872C4.8604 41.8195 4.76659 41.574 4.74938 41.3506C4.72216 41.2404 4.73503 41.1645 4.788 41.123C4.83953 41.0628 4.92828 40.9998 5.05426 40.934C5.25899 40.9182 5.4723 40.8924 5.69421 40.8566C5.91611 40.8207 6.14016 40.8128 6.36637 40.8328C6.53531 40.8385 6.64626 40.8206 6.69923 40.7791C6.75076 40.719 6.86171 40.7011 7.03208 40.7254C7.20389 40.7683 7.37282 40.774 7.53889 40.7425C7.72357 40.7095 7.87819 40.6508 8.00273 40.5663C8.05856 40.562 8.22535 40.5398 8.50309 40.4997C8.78083 40.4595 9.08648 40.4173 9.42005 40.3728C9.77224 40.327 10.0779 40.2847 10.337 40.246C10.6148 40.2059 10.7815 40.1837 10.8374 40.1794C10.8188 40.1808 10.939 40.1622 11.1981 40.1235C11.4759 40.0833 11.8002 40.0396 12.1709 39.9923C12.5403 39.9264 12.8732 39.8727 13.1695 39.8311C13.4644 39.771 13.6298 39.7301 13.6656 39.7087C14.0492 39.5855 14.322 39.6019 14.4838 39.7579C14.6456 39.914 14.7694 40.0636 14.8554 40.2067C14.8998 40.2969 14.9542 40.3957 15.0186 40.503C15.0816 40.5918 15.1253 40.6727 15.1496 40.7457C15.1912 40.7987 15.1847 40.8366 15.1303 40.8595C15.0473 40.997 14.9242 41.1001 14.761 41.1688C14.6164 41.2361 14.4389 41.2404 14.2284 41.1818C14.1525 41.1689 13.8827 41.1897 13.4188 41.2442C12.955 41.2986 12.3902 41.3796 11.7245 41.4871C11.0774 41.5931 10.4124 41.7099 9.7295 41.8374C9.06379 41.9449 8.48183 42.0459 7.98363 42.1404C7.80612 42.2664 7.65939 42.4275 7.54346 42.6237C7.42609 42.8012 7.31945 42.9967 7.22356 43.21C7.17633 43.326 7.06613 43.5966 6.89296 44.0218C6.7384 44.4456 6.5681 44.9081 6.38206 45.4092C6.19601 45.9103 6.04217 46.3434 5.92053 46.7085C5.79745 47.0549 5.7352 47.2189 5.73377 47.2003C5.60065 47.4165 5.6472 47.5346 5.8734 47.5546C6.11822 47.5732 6.32438 47.576 6.49189 47.5631C6.64078 47.5516 6.79254 47.5774 6.94717 47.6403C7.11897 47.6833 7.2786 47.6897 7.42606 47.6596C7.51769 47.6338 7.69665 47.6481 7.96294 47.7025C8.24642 47.7368 8.55066 47.7976 8.87566 47.8849C9.21784 47.9521 9.52351 48.0315 9.79268 48.1231C10.079 48.1947 10.2809 48.2634 10.3983 48.3292C10.8464 48.5568 11.2388 48.7886 11.5752 49.0248C11.9117 49.261 12.1873 49.558 12.4021 49.9159C12.6169 50.2738 12.8045 50.6431 12.965 51.0239C13.1254 51.4047 13.2034 51.8106 13.1992 52.2415C13.2064 52.3346 13.1935 52.5322 13.1606 52.8343C13.1449 53.1163 13.1113 53.4091 13.0598 53.7126C13.0083 54.0161 12.9418 54.2459 12.8602 54.402C12.6656 54.7914 12.4509 55.1637 12.2161 55.5188C11.9985 55.8538 11.7967 56.1502 11.6106 56.4079C11.3415 56.8031 11.0123 57.1467 10.6229 57.4389C10.2507 57.7109 9.8585 57.9658 9.44622 58.2035C9.12412 58.3969 8.8736 58.5472 8.69466 58.6546C8.53289 58.742 8.379 58.81 8.23297 58.8587C8.08695 58.9074 7.88581 58.9697 7.62955 59.0456C7.64816 59.0442 7.55726 59.0793 7.35683 59.1509C7.15498 59.2039 6.95384 59.2662 6.75341 59.3378C6.55299 59.4094 6.45278 59.4452 6.45278 59.4452C6.22087 59.5942 5.97607 59.6973 5.71838 59.7546C5.45925 59.7933 5.19941 59.8226 4.93885 59.8427C4.78995 59.8542 4.64034 59.8564 4.49002 59.8492C4.34113 59.8607 4.19295 59.8815 4.04549 59.9116ZM3.68021 58.4513C3.95795 58.4112 4.24571 58.3797 4.54349 58.3567C4.84128 58.3338 5.13619 58.2736 5.42824 58.1762C6.33873 57.8439 7.18265 57.4981 7.95999 57.1386C8.75595 56.7777 9.46025 56.1992 10.0729 55.4031C10.4966 54.8275 10.8022 54.2985 10.9896 53.816C11.1957 53.332 11.341 52.7873 11.4254 52.1817C11.4769 51.8781 11.4561 51.6083 11.363 51.3721C11.2684 51.1172 11.1796 50.8152 11.0965 50.4659C10.8989 50.0879 10.7206 49.8396 10.5617 49.7208C10.4013 49.5833 10.2453 49.5018 10.0935 49.476C9.94176 49.4503 9.78856 49.4059 9.63394 49.3429C9.37621 49.1568 9.02114 49.0438 8.56873 49.0038C8.11631 48.9637 7.80564 48.9409 7.6367 48.9352C7.7498 48.9452 7.72189 48.9473 7.55295 48.9416C7.40119 48.9159 7.17498 48.8959 6.87433 48.8816C6.57224 48.8487 6.27087 48.8251 5.97022 48.8109C5.66957 48.7966 5.43549 48.7959 5.26799 48.8088C5.16066 49.1166 5.04617 49.4531 4.92453 49.8182C4.8215 50.1818 4.70917 50.5462 4.58753 50.9113C4.48307 51.2564 4.38791 51.6007 4.30206 51.9443C4.15754 52.4984 4.02304 53.061 3.89857 53.6323C3.77266 54.1849 3.65678 54.7462 3.55091 55.316C3.50085 55.6381 3.45581 56.0254 3.41579 56.4778C3.37576 56.9302 3.37081 57.3518 3.40093 57.7427C3.44823 58.1135 3.54132 58.3497 3.68021 58.4513Z" fill="#2F94F9"/>
<path d="M60.9683 5.97344C62.5182 7.51093 64.0643 9.05097 65.588 10.6133C65.7596 10.791 65.936 10.9696 66.1035 11.1515C66.1526 11.2042 66.2012 11.2601 66.2512 11.308C66.3783 11.4771 66.5682 11.6119 66.8303 11.671C67.0734 11.7263 67.3975 11.6612 67.5991 11.5142C67.8835 11.3052 68.0977 10.948 68.0452 10.5808C67.9761 10.0692 67.5899 9.74857 67.2572 9.39845C66.8457 8.96999 66.4269 8.5451 66.0059 8.12309C65.5125 7.62396 65.0137 7.12711 64.5178 6.63247C71.0018 7.14387 77.9038 10.1079 81.0234 16.2063C82.0358 18.1877 82.5475 20.4476 82.6792 22.687C82.7565 24.0075 84.7915 23.8484 84.7149 22.5248C84.4669 18.1619 82.7854 14.0777 79.7161 10.9735C76.9244 8.15415 73.2339 6.36002 69.4369 5.37731C68.1357 5.04066 66.8125 4.80936 65.4773 4.66544C66.9855 4.19677 68.5376 3.89276 70.1127 3.71773C71.4145 3.5745 71.2681 1.52152 69.9574 1.66801C67.7463 1.91088 65.5368 2.38493 63.4597 3.19521C62.6472 3.50961 61.8102 3.86572 61.0731 4.3442C60.4895 4.71949 60.5158 5.52015 60.9693 5.97005L60.9683 5.97344ZM66.0135 10.7472C66.0261 10.7247 66.0359 10.7 66.0485 10.6775C66.0483 10.7207 66.0476 10.767 66.0557 10.8101C66.0304 10.7454 66.0121 10.712 66.0167 10.7478L66.0135 10.7472ZM66.1875 11.2193L66.1939 11.2288C66.1939 11.2288 66.1891 11.2279 66.1869 11.2225L66.1875 11.2193Z" fill="#2F94F9"/>
</svg>
