<svg width="88" height="67" viewBox="0 0 88 67" fill="none" xmlns="http://www.w3.org/2000/svg">
<path d="M76.6156 28.2655C76.2511 28.2249 75.955 28.1365 75.7274 28.0002C75.5183 27.8612 75.384 27.6546 75.3247 27.3803C75.335 27.3221 75.332 27.2377 75.3157 27.1269C75.3021 27.0345 75.3227 26.9183 75.3775 26.7781C75.3775 26.7781 75.437 26.7977 75.556 26.8368C75.6934 26.8731 75.9044 26.8326 76.189 26.7152C76.5611 26.6792 76.8142 26.6042 76.9483 26.4901C77.0824 26.3759 77.2649 26.1415 77.4956 25.7867C77.6579 25.4798 77.8411 25.1226 78.0452 24.7152C78.2678 24.305 78.4076 23.9731 78.4645 23.7194C78.7301 23.4727 78.9152 23.2567 79.02 23.0715C79.1221 22.8678 79.2149 22.6654 79.2985 22.4644C79.2849 22.3721 79.2881 22.2018 79.3081 21.9535C79.3254 21.6868 79.419 21.3617 79.5889 20.9782C79.724 20.4866 79.8607 20.0702 79.9992 19.729C80.1348 19.3694 80.1959 19.1434 80.1823 19.0511C80.1823 19.0511 80.2004 18.9823 80.2368 18.8449C80.2731 18.7075 80.2685 18.5478 80.2228 18.3658C80.3254 18.2941 80.4001 18.1605 80.4467 17.9649C80.5091 17.7482 80.5161 17.5396 80.4677 17.3392C80.4596 17.2838 80.5114 17.0591 80.6231 16.6653C80.7322 16.253 80.7674 15.8516 80.7287 15.461C80.8339 14.7663 80.8945 14.1536 80.9106 13.6229C80.9425 13.071 80.9399 12.477 80.9028 11.841C80.8656 11.2049 80.8027 10.3934 80.7138 9.40651C80.6283 8.57004 80.5648 7.94731 80.5234 7.53831C80.4793 7.11084 80.4224 6.78903 80.3528 6.57286C80.3017 6.35398 80.1859 6.14462 80.0055 5.94479C79.7338 5.38105 79.5333 5.10871 79.404 5.12776C79.3486 5.13592 79.2731 5.07158 79.1774 4.93473C79.0975 4.77669 79.0755 4.56295 79.1112 4.29353C79.0819 4.22238 79.0973 4.13519 79.1576 4.03197C79.2179 3.92875 79.3325 3.87413 79.5014 3.8681C79.6307 3.84905 79.7773 3.88404 79.9414 3.97307C80.1212 4.04091 80.2442 4.10769 80.3105 4.17339C80.3735 4.08864 80.4979 4.16464 80.6838 4.40141C80.8854 4.61699 81.1179 4.97895 81.3815 5.48728C81.5304 5.72949 81.6462 5.93885 81.7288 6.11536C81.8087 6.2734 81.8742 6.46186 81.9254 6.68075C81.9738 6.88117 82.0173 7.17664 82.056 7.56717C82.092 7.93924 82.1405 8.4604 82.2015 9.13067C82.2967 9.77702 82.3554 10.4948 82.3773 11.284C82.415 12.0521 82.4329 12.8136 82.431 13.5686C82.4263 14.3052 82.4029 14.9785 82.3607 15.5885C82.3022 16.0877 82.2125 16.6952 82.0916 17.4112C81.9679 18.1086 81.818 18.8194 81.6417 19.5436C81.4838 20.2649 81.3243 20.9111 81.1632 21.482C81.0205 22.0502 80.8916 22.456 80.7765 22.6994C80.8135 22.694 80.7744 22.8129 80.6593 23.0563C80.5627 23.297 80.4202 23.6104 80.2319 23.9967C80.0592 24.3617 79.8787 24.7374 79.6904 25.1237C79.5047 25.5284 79.3479 25.8723 79.2198 26.1553C78.9999 26.5839 78.7349 26.9626 78.4249 27.2913C78.1148 27.62 77.8031 27.8735 77.4898 28.0518C77.1764 28.2301 76.885 28.3013 76.6156 28.2655Z" fill="#2F94F9"/>
<path d="M71.4273 27.8697C71.2427 27.8969 71.1199 27.8961 71.0591 27.8674C71.0194 27.8543 70.9531 27.7886 70.8602 27.6702C70.8412 27.541 70.8525 27.4261 70.8943 27.3256C70.9546 27.2224 71.0398 27.0966 71.15 26.9483C71.3075 26.7364 71.4859 26.4743 71.6851 26.1619C71.8871 25.8679 72.0692 25.5675 72.2315 25.2606C72.4123 24.9509 72.5366 24.7062 72.6045 24.5263C72.6484 24.3123 72.6777 24.0627 72.6922 23.7775C72.7253 23.4897 72.7543 23.1741 72.7791 22.8308C72.7574 22.683 72.7383 22.5538 72.722 22.443C72.7214 22.311 72.7526 22.2026 72.8156 22.1178C72.9258 21.9695 73.0284 21.8978 73.1235 21.9026C73.237 21.9048 73.3457 22.002 73.4495 22.1942C73.5718 22.3838 73.6813 22.6789 73.7781 23.0798C73.9119 23.4752 73.9663 23.8445 73.9414 24.1878C73.9165 24.5311 73.8379 24.9578 73.7055 25.4679C73.6876 25.6026 73.5962 25.8142 73.4311 26.1027C73.2661 26.3911 73.0983 26.6612 72.9279 26.9127C72.7574 27.1642 72.6444 27.2941 72.589 27.3023C72.5152 27.3131 72.4532 27.3411 72.4033 27.3862C72.3561 27.4498 72.3009 27.524 72.238 27.6087C72.175 27.6935 72.0696 27.7467 71.9219 27.7685C71.7953 27.806 71.6305 27.8398 71.4273 27.8697ZM74.7444 17.7297C74.4126 17.9107 74.1266 18.0189 73.8866 18.0543C73.6622 18.0685 73.3966 17.9944 73.0897 17.8321C72.6898 17.5514 72.5208 17.2367 72.5826 16.8879C72.6602 16.518 72.9145 16.1314 73.3457 15.7283C73.6481 15.4761 73.8719 15.33 74.0169 15.2897C74.1804 15.2468 74.4392 15.2747 74.7934 15.3734C75.3991 15.6426 75.6964 15.9951 75.6851 16.4307C75.6923 16.8636 75.3787 17.2966 74.7444 17.7297Z" fill="#2F94F9"/>
<path d="M57.3812 27.3359C56.7778 27.5946 56.3469 27.743 56.0883 27.7811C55.8298 27.8192 55.5337 27.7308 55.2001 27.5158C55.0942 27.4371 55.0252 27.3529 54.9931 27.2633C54.9583 27.1552 54.9026 27.0974 54.826 27.0898C54.7885 26.9632 54.7828 26.8603 54.8088 26.781C54.8506 26.6805 54.9584 26.5797 55.1322 26.4786C55.4337 26.604 55.7914 26.5985 56.2052 26.462C56.6191 26.3255 57.0115 26.1073 57.3824 25.8074C57.769 25.4862 58.0565 25.1325 58.2449 24.7463C58.5489 24.2486 58.7739 23.791 58.9199 23.3732C59.0632 22.937 59.1209 22.5605 59.0931 22.2439C59.0659 22.0592 59.0191 21.934 58.9529 21.8683C58.9023 21.7814 58.7896 21.6565 58.6146 21.4936C58.2985 21.6534 58.0129 21.8276 57.7576 22.0162C57.5209 22.202 57.3316 22.3903 57.1899 22.581C56.7039 23.1243 56.3258 23.5668 56.0554 23.9086C55.8034 24.2476 55.5884 24.5812 55.4104 24.9093C55.2508 25.2347 55.0507 25.6699 54.8103 26.2147C54.6898 26.4212 54.5717 26.5801 54.456 26.6915C54.3588 26.8001 54.2456 26.864 54.1163 26.8831C54.2261 27.2442 54.1295 27.4849 53.8265 27.605C53.4066 27.5726 53.0934 27.4961 52.887 27.3755C52.6778 27.2366 52.5761 26.9308 52.582 26.4582C52.6177 26.1888 52.6467 25.8732 52.6689 25.5114C52.6883 25.1312 52.7265 24.8142 52.7835 24.5606C53.0525 23.3133 53.2852 22.2036 53.4815 21.2312C53.6963 20.2561 53.9044 19.5557 54.1058 19.1297L54.4825 17.461C54.7992 17.4332 55.0488 17.4624 55.2313 17.5487C55.4111 17.6166 55.6391 17.8189 55.9151 18.1555C55.9287 18.2479 55.8758 18.5293 55.7565 18.9997C55.6529 19.4489 55.5218 19.9682 55.3634 20.5576C55.2235 21.1443 55.0873 21.6927 54.9549 22.2028C54.8383 22.6917 54.7566 23.0339 54.71 23.2295C54.666 23.4435 54.716 23.3984 54.8598 23.0942C55.0222 22.7872 55.3213 22.3846 55.7573 21.8864C55.962 21.611 56.2249 21.3458 56.5458 21.091C56.864 20.8176 57.135 20.6079 57.3587 20.4617C57.601 20.3128 57.8038 20.2169 57.9673 20.1739C58.1308 20.1309 58.2481 20.0948 58.3192 20.0654C58.7809 19.9974 59.1679 20.063 59.4803 20.2623C59.79 20.443 60.022 20.673 60.1764 20.9521C60.3492 21.2286 60.4492 21.4591 60.4764 21.6438C60.5753 21.9311 60.6545 22.2119 60.7138 22.4862C60.7888 22.7393 60.8111 23.019 60.7808 23.3254C60.7472 23.4813 60.6756 23.6994 60.5659 23.9797C60.4563 24.26 60.3203 24.5536 60.158 24.8606C60.0114 25.1463 59.8211 25.3914 59.5871 25.5957C59.4454 25.7864 59.2496 25.9945 58.9998 26.22C58.75 26.4455 58.4804 26.6645 58.1909 26.8769C57.9172 27.0682 57.6473 27.2212 57.3812 27.3359ZM63.2083 26.93C62.8704 26.942 62.5785 26.8813 62.3324 26.7477C62.102 26.593 61.9148 26.347 61.7708 26.0097C61.7245 25.6958 61.7193 25.4041 61.755 25.1347C61.8065 24.8441 61.8409 24.5654 61.8582 24.2987C61.888 23.8603 61.9547 23.4165 62.0583 22.9673C62.1619 22.5181 62.247 22.0716 62.3137 21.6278C62.3864 21.3529 62.442 21.09 62.4805 20.839C62.519 20.588 62.5575 20.3371 62.5959 20.0861C62.6447 19.777 62.6949 19.4772 62.7464 19.1866C62.7979 18.896 62.8494 18.6053 62.9009 18.3147C62.9394 18.0638 62.9581 17.8063 62.9569 17.5423C62.9742 17.2756 62.9823 17.0103 62.9811 16.7463C63.1516 16.4947 63.3596 16.3697 63.6051 16.3713C63.8691 16.3701 64.2143 16.5362 64.6408 16.8696C64.7658 17.0776 64.8419 17.274 64.8692 17.4586C64.8937 17.6248 64.8733 17.8071 64.8082 18.0054C64.7588 18.1824 64.694 18.4467 64.6137 18.7982C64.5519 19.1469 64.4809 19.497 64.4006 19.8485C64.336 20.1788 64.2883 20.4311 64.2574 20.6054C64.2504 20.814 64.1978 21.1614 64.0997 21.6476C64.02 22.131 63.9338 22.6343 63.841 23.1574C63.7456 23.6621 63.6827 24.0676 63.6524 24.3739C63.5824 24.6673 63.5388 24.9473 63.5215 25.214C63.5042 25.4807 63.4964 25.812 63.4981 26.208C63.5596 26.3688 63.5523 26.5114 63.4763 26.6358C63.416 26.739 63.3267 26.8371 63.2083 26.93Z" fill="#2F94F9"/>
<path d="M50.2053 28.1953C50.0076 28.2621 49.8058 28.3013 49.5999 28.3128C49.3941 28.3243 49.1893 28.279 48.9856 28.1769C48.8899 28.04 48.7731 27.8875 48.6351 27.7191C48.5128 27.5296 48.4777 27.3555 48.5298 27.1969C48.5895 26.9617 48.5894 26.6409 48.5295 26.2346C48.4881 25.8256 48.5116 25.4731 48.6001 25.177C48.6131 25.1374 48.6182 25.1083 48.6155 25.0899C48.6285 25.0502 48.6323 25.0119 48.6269 24.975C48.6181 24.7876 48.6303 24.5499 48.6633 24.262C48.7121 23.953 48.7427 23.7126 48.7552 23.541C48.7682 23.5013 48.7728 23.3402 48.7689 23.0578C48.765 22.7753 48.7584 22.4744 48.7491 22.155C48.7397 21.8356 48.7255 21.6113 48.7065 21.4821C48.6929 21.3897 48.7097 21.3118 48.7569 21.2482C48.8199 21.1634 48.8063 21.0711 48.7161 20.9712C48.4615 21.2917 48.1479 21.7248 47.7755 22.2702C47.4215 22.813 47.0873 23.3622 46.773 23.918C46.4559 24.4553 46.2124 24.9157 46.0426 25.2992C46.0165 25.3785 45.9799 25.45 45.9326 25.5135C45.8854 25.5771 45.8474 25.6393 45.8186 25.7002C45.7611 25.8219 45.6837 25.937 45.5865 26.0457C45.4893 26.1544 45.4239 26.2866 45.3903 26.4425C45.1226 26.8028 44.9076 27.1363 44.7453 27.4433C44.6014 27.7475 44.3758 28.0732 44.0685 28.4204C43.8366 28.5112 43.6123 28.5254 43.3955 28.463C43.1972 28.3978 42.9911 28.3433 42.7771 28.2994C42.7265 28.2125 42.6668 28.127 42.5977 28.0428C42.526 27.9401 42.4649 27.8454 42.4143 27.7585C42.4071 27.3256 42.414 26.7962 42.435 26.1705C42.4533 25.5263 42.4545 24.894 42.4385 24.2737C42.4411 23.6507 42.3994 23.1757 42.3134 22.8487C42.2814 22.7591 42.2612 22.6866 42.2531 22.6312C42.2449 22.5758 42.2631 22.5071 42.3076 22.4251C42.3022 22.3881 42.2967 22.3512 42.2913 22.3143C42.3043 22.2746 42.3094 22.2455 42.3067 22.2271C42.2008 22.1483 42.1687 22.0587 42.2105 21.9582C42.2523 21.8577 42.2387 21.7654 42.1697 21.6812C42.1485 21.6655 42.1181 21.6511 42.0784 21.6381C42.0572 21.6223 42.0268 21.6079 41.9871 21.5949C41.6734 22.2827 41.3173 22.9389 40.9188 23.5637C40.536 24.1673 40.1666 24.7972 39.8105 25.4535C39.5721 25.8848 39.3526 26.3795 39.1518 26.9374C38.9694 27.4926 38.7181 27.9636 38.3977 28.3504C38.2875 28.4987 38.18 28.6655 38.0752 28.8508C37.9862 29.0149 37.8667 29.1645 37.7169 29.2998C37.699 29.4345 37.6401 29.547 37.5402 29.6372C37.456 29.7062 37.34 29.7516 37.1923 29.7734C36.9153 29.8142 36.6247 29.7627 36.3204 29.6188C36.0162 29.475 35.8372 29.2844 35.7833 29.047C35.7643 28.9178 35.8006 28.7803 35.8924 28.6347C35.9054 28.5951 35.9092 28.5568 35.9038 28.5198C35.9168 28.4802 35.9312 28.4498 35.9469 28.4286C36.276 28.2291 36.5874 27.9096 36.8812 27.4701C37.1934 27.0279 37.483 26.5607 37.7501 26.0685C38.0145 25.5578 38.2634 25.1343 38.4968 24.798C38.7173 24.5014 38.881 24.2037 38.9879 23.9049C39.0921 23.5876 39.2346 23.2742 39.4153 22.9645C39.6406 22.5728 39.8619 22.1534 40.079 21.7063C40.3146 21.2565 40.5423 20.8172 40.7622 20.3886C41.0005 19.9573 41.2456 19.5721 41.4976 19.2331C41.6377 19.2879 41.7765 19.3335 41.9139 19.3698C42.0699 19.4034 42.2309 19.408 42.3971 19.3835C42.5058 19.4807 42.6052 19.5793 42.6954 19.6792C42.8013 19.7579 42.9165 19.8353 43.0409 19.9113C43.3321 20.0948 43.5511 20.3644 43.6979 20.7201C43.8447 21.0759 43.9493 21.4661 44.0119 21.8909C44.1017 22.5003 44.1283 23.1285 44.0915 23.7754C44.0705 24.4011 44.0636 24.9305 44.0708 25.3634C44.0736 25.3819 44.0763 25.4003 44.079 25.4188C44.0975 25.4161 44.1081 25.4239 44.1108 25.4424C44.4654 25.0317 44.7656 24.5723 45.0115 24.0644C45.2574 23.5564 45.5259 23.0734 45.8169 22.6155C46.3516 21.763 46.7501 21.1383 47.0124 20.7411C47.2931 20.3413 47.5056 20.0552 47.6501 19.883C47.7945 19.7108 47.9389 19.5385 48.0834 19.3663C48.199 19.2549 48.3291 19.1131 48.4735 18.9409C48.6337 18.7474 48.8397 18.4812 49.0917 18.1422C49.2394 18.1204 49.3779 18.1 49.5072 18.081C49.6549 18.0592 49.7934 18.0388 49.9227 18.0197C50.084 18.0903 50.2057 18.1478 50.2878 18.1924C50.3671 18.2184 50.4926 18.2376 50.6642 18.2501C50.6963 18.3397 50.7536 18.4728 50.8362 18.6493C50.9189 18.8258 50.9485 18.9629 50.9252 19.0607C50.9073 19.1954 50.9079 19.3274 50.9269 19.4567C50.946 19.5859 50.9189 19.722 50.8456 19.8649C50.7305 20.1083 50.6464 20.498 50.5933 21.0342C50.556 21.5491 50.5279 22.0627 50.5091 22.5749C50.506 23.066 50.5102 23.4144 50.5216 23.6203C50.4995 23.982 50.461 24.233 50.4062 24.3731C50.3486 24.4948 50.3109 24.623 50.293 24.7577C50.2751 24.8925 50.2877 25.0416 50.3306 25.205C50.3709 25.3501 50.3728 25.4913 50.3365 25.6287C50.3207 25.6499 50.305 25.6711 50.2892 25.6923C50.2892 25.6923 50.2814 25.7029 50.2656 25.7241C50.2928 25.9087 50.3214 26.1026 50.3513 26.3058C50.397 26.4877 50.3846 26.6594 50.314 26.8207C50.37 26.9446 50.3997 27.0817 50.403 27.2322C50.4063 27.3826 50.4465 27.5276 50.5237 27.6672C50.4607 27.752 50.4069 27.8354 50.3624 27.9174C50.3179 27.9994 50.2655 28.092 50.2053 28.1953Z" fill="#2F94F9"/>
<path d="M18.813 32.0008C18.5908 31.9015 18.3816 31.7625 18.1855 31.5839C17.9866 31.3868 17.8627 31.122 17.8137 30.7896C17.7865 30.6049 17.7772 30.2855 17.7857 29.8314C17.7943 29.3773 17.8224 28.8637 17.87 28.2907C17.9176 27.7176 17.9707 27.1815 18.0292 26.6823C18.1649 26.3227 18.2729 25.9671 18.3532 25.6157C18.4334 25.2642 18.4681 25.0515 18.4573 24.9777C18.4615 24.7506 18.4696 24.4853 18.4815 24.1816C18.5118 23.8753 18.5462 23.5966 18.5847 23.3456C18.6232 23.0947 18.6582 22.948 18.6896 22.9056C18.7684 22.7997 18.871 22.728 18.9976 22.6904C19.1214 22.6345 19.2534 22.6339 19.3935 22.6887C19.5494 22.7223 19.6779 22.826 19.779 22.9998C20.0148 23.1915 20.1558 23.4443 20.2021 23.7582C20.2457 24.0537 20.2094 24.5119 20.0934 25.1328C19.9816 25.5266 19.8793 25.9851 19.7866 26.5082C19.6939 27.0313 19.6142 27.5148 19.5475 27.9586C19.4966 28.3812 19.4728 28.6677 19.4761 28.8182L18.9465 29.066C19.2169 28.7243 19.4675 28.376 19.6983 28.0212C19.9263 27.648 20.0913 27.3595 20.1934 27.1558C20.4447 26.6848 20.6608 26.2945 20.8416 25.9848C21.0381 25.6539 21.2911 25.2582 21.6006 24.7975C21.9073 24.3183 22.2293 24.0067 22.5666 23.8626C22.9196 23.6974 23.1977 23.5998 23.4008 23.5699C23.818 23.5839 24.1725 23.7486 24.4642 24.0641C24.7718 24.3584 25.0115 24.8325 25.1833 25.4865C25.2214 25.745 25.2386 26.0538 25.2349 26.4128C25.2497 26.7692 25.2571 26.9473 25.2571 26.9473C25.2571 26.9473 25.3762 26.7316 25.6146 26.3003C25.8714 25.8662 26.2243 25.3802 26.6733 24.8423C26.9861 24.5321 27.306 24.334 27.6329 24.2481C27.9572 24.1437 28.269 24.211 28.5683 24.4499C29.0866 24.6376 29.459 24.9884 29.6857 25.5022C29.9096 25.9975 30.0446 26.6569 30.0904 27.4803C30.1058 27.9686 30.1496 28.3301 30.2219 28.5647C30.2915 28.7809 30.3796 28.9944 30.4861 29.2051C30.6447 29.2572 30.6956 29.4101 30.6386 29.6637C30.5789 29.899 30.4845 30.0261 30.3552 30.0451C30.1705 30.0724 29.9527 30.0667 29.7018 30.0282C29.4693 29.987 29.2484 29.8969 29.0393 29.7579C28.8458 29.5977 28.726 29.3607 28.6797 29.0467L28.4266 27.3293C28.3668 26.923 28.2993 26.5933 28.2243 26.3402C28.1677 26.0844 28.0984 25.9342 28.0164 25.8897C27.7969 25.8089 27.5191 25.9724 27.183 26.3805C26.8469 26.7885 26.5008 27.3206 26.1447 27.9769C25.7885 28.6332 25.4628 29.3038 25.1676 29.9889C24.9011 30.6131 24.7284 30.9781 24.6497 31.0841C24.5867 31.1688 24.4441 31.1615 24.222 31.0622C23.7966 30.9928 23.5122 30.8555 23.3688 30.6502C23.241 30.4237 23.1924 30.1573 23.2227 29.851C23.2687 29.5234 23.317 29.0823 23.3673 28.5277C23.4361 27.9704 23.4984 27.4329 23.5542 26.9153C23.6073 26.3791 23.6359 25.9975 23.6402 25.7705C23.5446 25.6336 23.4085 25.6065 23.232 25.6891C23.0712 25.7506 22.908 25.8595 22.7424 26.016C22.5426 26.1964 22.3156 26.5129 22.0616 26.9654C21.8075 27.418 21.5537 27.9365 21.3002 28.521C21.1303 28.9046 20.9512 29.2895 20.7628 29.6757C20.5718 30.0435 20.3937 30.3716 20.2287 30.6601C20.0636 30.9486 19.9168 31.1684 19.7881 31.3194C19.5894 31.7638 19.4466 32.0112 19.3597 32.0618C19.2728 32.1123 19.0906 32.092 18.813 32.0008Z" fill="#2F94F9"/>
<path d="M14.6274 16.3437C14.9452 16.5799 15.2161 16.9457 15.4401 17.441C15.6613 17.9178 15.8298 18.4213 15.9457 18.9514C16.08 19.4788 16.1402 19.951 16.1262 20.3682C16.1159 20.4263 16.1233 20.6045 16.1483 20.9027C16.1707 21.1824 16.1906 21.5097 16.2081 21.8845C16.2256 22.2593 16.239 22.6063 16.2484 22.9257C16.255 23.2266 16.2374 23.4274 16.1956 23.5279C16.2288 23.8815 16.1868 24.2367 16.0696 24.5936C15.9681 24.9293 15.9169 25.2859 15.916 25.6634C15.9132 25.645 15.8742 25.7639 15.7987 26.0203C15.7233 26.2767 15.6376 26.5913 15.5416 26.9639C15.4428 27.3181 15.3492 27.6432 15.2608 27.9393C15.1881 28.2142 15.1452 28.3714 15.1322 28.4111C14.8565 29.3574 14.4608 30.3214 13.9451 31.303C13.4294 32.2847 12.8629 33.1135 12.2455 33.7894C11.9854 34.073 11.6514 34.3675 11.2436 34.6729C10.8357 34.9783 10.5197 35.1381 10.2953 35.1523C10.0868 35.1453 9.88089 35.1568 9.67775 35.1867C9.47733 35.2351 9.27692 35.2835 9.0765 35.3319C8.87608 35.3803 8.59227 35.375 8.22506 35.3159C7.87632 35.2541 7.54469 35.1803 7.23017 35.0946C6.93139 34.9877 6.75157 34.9198 6.69073 34.891C6.69073 34.891 6.60733 34.8373 6.44055 34.7298C6.27104 34.6038 6.0817 34.4714 5.87253 34.3324C5.67911 34.1722 5.50824 34.037 5.35992 33.9268C5.2116 33.8165 5.13744 33.7614 5.13744 33.7614C5.01303 33.6854 4.95189 33.5907 4.95403 33.4771C4.95617 33.3636 4.92273 33.2648 4.85372 33.1806C4.8059 33.1122 4.80804 32.9986 4.86014 32.84C4.9307 32.6787 5.01186 32.5252 5.10361 32.3796C5.21383 32.2313 5.29528 32.1438 5.34796 32.1172C5.48812 32.172 5.61904 32.2282 5.74073 32.2857C5.87816 32.3221 6.01696 32.3676 6.15712 32.4225C6.20066 32.7179 6.38271 32.993 6.70326 33.2477C7.03956 33.4811 7.36497 33.6407 7.6795 33.7264C7.74034 33.7552 7.85659 33.7758 8.02824 33.7883C8.21835 33.798 8.40711 33.7985 8.5945 33.7897C8.77917 33.7625 8.88074 33.7475 8.89921 33.7448C9.35817 33.6583 9.80323 33.4135 10.2344 33.0103C10.684 32.6044 11.0714 32.1605 11.3967 31.6786C11.7403 31.194 11.9933 30.7982 12.1557 30.4913C12.3728 30.0442 12.5324 29.7188 12.6344 29.515C12.7338 29.2928 12.8016 29.113 12.838 28.9756C12.8901 28.817 12.9552 28.6187 13.0333 28.3808C13.1087 28.1244 13.2417 27.7463 13.4322 27.2465C13.5337 26.9108 13.6341 26.6318 13.7334 26.4096C13.83 26.169 13.862 25.9378 13.8294 25.7162C13.5969 25.675 13.2802 25.7028 12.8794 25.7996C12.4943 25.8752 12.0763 25.984 11.6255 26.1259C11.1905 26.2466 10.7647 26.366 10.3481 26.484C9.94726 26.5808 9.61349 26.6205 9.34678 26.6032C9.0931 26.5463 8.90512 26.423 8.78285 26.2335C8.65786 26.0255 8.54997 25.8056 8.45919 25.5736C8.40048 25.4314 8.37083 25.2942 8.37025 25.1622C8.38541 25.009 8.47989 24.8819 8.65367 24.7808L10.7589 24.4706C11.3417 24.3281 11.906 24.1883 12.4519 24.0513C13.0162 23.9115 13.5309 23.8828 13.9958 23.9652C14.0724 23.9728 14.1449 23.9527 14.2134 23.9049C14.2791 23.8386 14.3157 23.7672 14.3233 23.6906C14.3243 23.3131 14.3543 22.9407 14.4134 22.5735C14.4725 22.2063 14.4564 21.8407 14.365 21.4768C14.3469 20.9701 14.3175 20.5782 14.2766 20.3012C14.2358 20.0241 14.1991 19.7748 14.1664 19.5532C14.1495 19.3104 14.1309 18.9924 14.1107 18.5992C14.0699 18.3221 13.9682 18.0164 13.8057 17.6818C13.6405 17.3288 13.3914 17.1108 13.0584 17.0278C12.8813 16.9784 12.6594 16.9451 12.3927 16.9278C12.1417 16.8893 11.912 16.8665 11.7034 16.8595C11.5105 16.8314 11.4141 16.8173 11.4141 16.8173C11.1577 16.7418 10.865 16.8039 10.5359 17.0033C10.2252 17.2 9.93062 17.4416 9.65205 17.7279C9.39196 18.0115 9.18182 18.25 9.02164 18.4435C9.12487 18.5037 9.19115 18.5694 9.22051 18.6406C9.24986 18.7117 9.22896 18.762 9.15781 18.7913C9.03127 18.8288 8.91803 18.8927 8.81812 18.9829C8.71548 19.0546 8.62616 19.1527 8.55015 19.2771C8.45567 19.4042 8.30551 19.4735 8.09965 19.485C7.89378 19.4965 7.74955 19.414 7.66693 19.2375C7.61853 19.037 7.54786 18.8776 7.45494 18.7592C7.36202 18.6409 7.30604 18.517 7.28699 18.3878C7.26522 18.24 7.32382 18.0616 7.46281 17.8524C7.71961 17.4183 8.00954 17.0171 8.33262 16.6487C8.67144 16.2592 9.03554 15.9131 9.4249 15.6104C9.45912 15.5865 9.56584 15.5425 9.74507 15.4783C9.94276 15.4114 10.0731 15.3356 10.1361 15.2509C10.1963 15.1476 10.2675 15.1183 10.3495 15.1628C10.45 15.2046 10.5318 15.1831 10.5948 15.0984C11.1733 15.1829 11.6619 15.2336 12.0606 15.2503C12.4777 15.2643 12.8754 15.3377 13.2534 15.4707C13.65 15.601 14.108 15.892 14.6274 16.3437Z" fill="#2F94F9"/>
<path d="M72.5934 65.1597C71.7824 63.1328 70.9675 61.1084 70.1234 59.096C70.0267 58.8687 69.931 58.6366 69.8289 58.4113C69.7995 58.3455 69.767 58.2791 69.7424 58.2143C69.6363 58.0313 69.5863 57.8039 69.6342 57.5395C69.678 57.294 69.8644 57.021 70.0784 56.8928C70.3818 56.7125 70.7942 56.6545 71.1119 56.8462C71.556 57.1093 71.7006 57.59 71.8931 58.033C72.1271 58.579 72.355 59.1304 72.5793 59.6827C72.8464 60.3317 73.1093 60.9848 73.3713 61.6344C75.4299 55.4645 75.3932 47.9531 70.995 42.7017C69.5655 40.9965 67.6843 39.6437 65.6737 38.6488C64.488 38.0626 65.4284 36.2508 66.6172 36.8378C70.5376 38.7681 73.6423 41.9097 75.3032 45.9467C76.8101 49.6171 77.0224 53.7151 76.446 57.5946C76.2484 58.9241 75.9451 60.2327 75.5568 61.5182C76.5767 60.3123 77.4621 59.0018 78.2377 57.6198C78.8774 56.477 80.7107 57.4127 80.0645 58.5624C78.9783 60.5035 77.6798 62.3531 76.1234 63.9495C75.517 64.575 74.8626 65.2068 74.1345 65.6988C73.5612 66.0897 72.8343 65.7532 72.5969 65.1601L72.5934 65.1597ZM70.1661 58.6519C70.1917 58.6491 70.2183 58.6498 70.2439 58.647C70.2041 58.6302 70.1611 58.6128 70.1246 58.5885C70.1743 58.6371 70.1979 58.667 70.1668 58.6488L70.1661 58.6519ZM69.7993 58.3076L69.793 58.298C69.793 58.298 69.792 58.3027 69.7961 58.3069L69.7993 58.3076Z" fill="#2F94F9"/>
</svg>
