<svg width="104" height="61" viewBox="0 0 104 61" fill="none" xmlns="http://www.w3.org/2000/svg">
<path d="M17.2133 7.65278C17.5354 7.70285 17.7824 7.87103 17.9543 8.15734C18.1433 8.4236 18.2034 8.71852 18.1348 9.04209C18.1076 9.17523 18.0625 9.31912 17.9995 9.47375C17.9537 9.60834 17.9094 9.76153 17.8665 9.93334C17.7548 10.1853 17.616 10.5705 17.45 11.0888C17.2826 11.5884 17.0994 12.1268 16.9005 12.7038C16.7187 13.2607 16.5513 13.7604 16.3982 14.2028C16.2451 14.6452 16.1363 14.9344 16.0719 15.0704C15.9145 15.457 15.7477 15.8443 15.5717 16.2323C15.3956 16.6203 15.2103 17.009 15.0156 17.3985C14.7595 17.9611 14.4847 18.5253 14.1912 19.0908C13.8978 19.6564 13.5951 20.2226 13.2831 20.7896C13.1858 20.9843 13.004 21.2979 12.7378 21.7303C12.4887 22.1427 12.2304 22.5557 11.9627 22.9695C11.6936 23.3647 11.4911 23.6518 11.3551 23.8308C11.0588 24.3591 10.7138 24.8631 10.3202 25.3427C9.94373 25.8024 9.55796 26.2627 9.16288 26.7237C9.0269 26.9027 8.88161 27.0824 8.72702 27.2628C8.57242 27.4432 8.41783 27.6237 8.26323 27.8041C8.12869 28.0017 7.97481 28.1914 7.8016 28.3732C7.56542 28.7097 7.25262 28.7806 6.86317 28.586C6.66845 28.4886 6.51024 28.3791 6.38853 28.2575C6.26682 28.1358 6.2353 27.9697 6.29397 27.7593C6.30828 27.702 6.41849 27.5531 6.62462 27.3125C6.82931 27.0534 7.05977 26.7641 7.31599 26.4448C7.59083 26.1241 7.8399 25.8334 8.0632 25.5728C8.30368 25.2922 8.46758 25.1111 8.5549 25.0295C8.79251 24.7116 9.03943 24.393 9.29565 24.0737C9.55044 23.7358 9.78447 23.3714 9.99773 22.9805C9.52237 22.6427 9.13576 22.2419 8.83791 21.7781C8.55866 21.3128 8.32452 20.8254 8.13546 20.3157C8.08533 20.1511 8.01731 19.9972 7.93138 19.8541C7.86408 19.7095 7.83327 19.5527 7.83898 19.3838L7.17505 16.9636C7.21941 16.8104 7.21724 16.6608 7.16855 16.5148C7.11985 16.3688 7.08046 16.222 7.05037 16.0746L6.59226 11.2234C6.59656 11.2793 6.59154 11.2141 6.5772 11.028C6.58003 10.8219 6.57928 10.5692 6.57494 10.27C6.56917 9.95213 6.56484 9.65291 6.56193 9.3723C6.57764 9.09026 6.5905 8.89269 6.6005 8.77959C6.61051 8.66648 6.59975 8.5269 6.56823 8.36083C6.55532 8.19333 6.57248 8.05159 6.61971 7.93562C6.68412 7.7996 6.80007 7.72514 6.96757 7.71223C7.22527 7.65492 7.47223 7.70142 7.70848 7.85171C7.94473 8.002 8.12657 8.17521 8.25402 8.37133C8.40008 8.56601 8.44019 8.72206 8.37435 8.83946C8.27846 9.0528 8.24842 9.27041 8.28425 9.49232C8.32007 9.71422 8.32726 9.92897 8.30581 10.1366C8.29868 10.2869 8.3023 10.5768 8.31667 11.0063C8.32962 11.4172 8.34686 11.8839 8.36841 12.4065C8.38853 12.9104 8.41723 13.4043 8.45452 13.8882C8.49038 14.3535 8.52766 14.7157 8.56635 14.9749C8.53626 14.8274 8.53913 14.8646 8.57496 15.0865C8.60934 15.2898 8.65878 15.5668 8.72325 15.9176C8.78773 16.2683 8.85077 16.6005 8.91237 16.914C8.97398 17.2275 9.01696 17.4208 9.04131 17.4938C9.05995 17.7358 9.1323 18.0672 9.25835 18.4881C9.38296 18.8903 9.53764 19.3184 9.72239 19.7722C9.90714 20.226 10.089 20.6426 10.268 21.022C10.447 21.4013 10.601 21.6984 10.7299 21.9131L11.0841 21.4084C11.2316 21.1349 11.3904 20.8887 11.5608 20.6696C11.7297 20.4319 11.8599 20.1785 11.9515 19.9093C12.0746 19.5628 12.227 19.2328 12.4088 18.9193C12.5906 18.6057 12.753 18.2843 12.8961 17.955C13.0378 17.607 13.1996 17.2763 13.3813 16.9628C13.5617 16.6306 13.7141 16.3006 13.8386 15.9727L15.3886 12.399C15.5288 11.7891 15.7084 11.0826 15.9273 10.2794C16.1649 9.47473 16.3036 8.72452 16.3436 8.02872C16.3837 7.81969 16.4968 7.70801 16.6829 7.69366C16.7759 7.68649 16.8683 7.67001 16.9599 7.64423C17.0515 7.61845 17.136 7.6213 17.2133 7.65278ZM29.9233 17.0078C29.9233 17.0078 29.8281 17.1088 29.6377 17.3107C29.4459 17.4939 29.2111 17.7273 28.9334 18.0108C28.6543 18.2757 28.3759 18.5499 28.0982 18.8335C27.8377 19.0969 27.6122 19.3296 27.4218 19.5315C27.2486 19.7133 27.162 19.8043 27.162 19.8043L25.2252 21.6385C25.2439 21.8805 25.2962 22.073 25.3821 22.2162C25.4666 22.3407 25.614 22.554 25.8245 22.8561C26.0551 23.1753 26.3322 23.4909 26.6558 23.803C26.998 24.1136 27.3087 24.3799 27.5879 24.6017C27.8857 24.8222 28.0754 24.976 28.157 25.0634C28.2816 25.2223 28.2723 25.3447 28.1292 25.4306C27.986 25.5165 27.8042 25.5867 27.5837 25.6411C27.3618 25.6769 27.1965 25.7178 27.0877 25.7636C26.767 25.7321 26.4262 25.5618 26.0654 25.2526C25.7046 24.9434 25.3688 24.5949 25.0581 24.2069C24.766 23.8176 24.5641 23.5055 24.4524 23.2707C24.166 22.9558 23.949 22.6917 23.8015 22.4784C23.6541 22.2651 23.4879 21.9315 23.3032 21.4777C23.2016 21.6166 23.1178 21.7447 23.052 21.8622C22.9861 21.9796 22.9074 22.1728 22.8158 22.442C22.7586 22.6711 22.6856 22.9388 22.5969 23.2452C22.5068 23.533 22.4238 23.7921 22.3479 24.0226C22.2892 24.2331 22.2785 24.3369 22.3157 24.334C22.3745 24.6103 22.3802 24.8065 22.333 24.9224C22.2858 25.0384 22.1849 25.1866 22.0303 25.367L21.2787 25.453C20.9064 25.2383 20.6744 25.0222 20.5828 24.8046C20.4897 24.5684 20.4345 24.3386 20.4173 24.1153C20.5747 23.7287 20.7315 23.3328 20.8875 22.9276C21.0606 22.5024 21.1765 22.0629 21.2352 21.609C21.1235 21.6176 21.0133 21.6448 20.9045 21.6907C20.7942 21.7179 20.6382 21.758 20.4363 21.811C20.1787 22.1117 19.9367 22.3737 19.7106 22.5971C19.5016 22.8004 19.2582 23.0438 18.9805 23.3273C18.7214 23.6094 18.3686 24.011 17.922 24.5322C17.6457 24.8344 17.3702 25.1458 17.0953 25.4665C16.8205 25.7872 16.5757 26.1337 16.361 26.506C16.1936 26.7623 15.8049 26.8203 15.195 26.6801L14.5076 25.7783C14.4962 25.6294 14.5233 25.4962 14.5892 25.3788C14.655 25.2614 14.7502 25.1605 14.8748 25.076C14.9449 25.0144 15.1102 24.8519 15.3708 24.5884C15.6298 24.3064 15.9147 23.9942 16.2253 23.652C16.5546 23.3084 16.823 23.0256 17.0305 22.8036C17.0821 22.7435 17.2037 22.6218 17.3955 22.4385C17.6045 22.2352 17.8049 22.0419 17.9968 21.8586C18.2072 21.6739 18.3217 21.5808 18.3403 21.5794C18.4777 21.419 18.7125 21.1856 19.0446 20.8792C19.3767 20.5727 19.6286 20.3193 19.8004 20.1188C19.5914 19.8354 19.3708 19.5248 19.1389 19.1869C18.924 18.829 18.6742 18.5019 18.3892 18.2056C18.1802 17.9222 17.9704 17.6294 17.7599 17.3274C17.568 17.0239 17.3568 16.7125 17.1262 16.3933C17.1992 16.1256 17.3653 15.9724 17.6244 15.9337C17.8835 15.895 18.1484 15.9307 18.419 16.0409C18.8972 16.416 19.2824 16.9199 19.5746 17.5526C19.8882 17.9778 20.1488 18.3228 20.3564 18.5876C20.5626 18.8338 20.7588 19.0714 20.9449 19.3005C21.1311 19.5295 21.3502 19.8216 21.6022 20.1766C21.6851 19.5524 21.7767 18.9181 21.8768 18.2738C21.9769 17.6296 22.0491 17.1092 22.0935 16.7126C22.1192 16.5608 22.1357 16.4098 22.1428 16.2595C22.1685 16.1077 22.1563 15.9495 22.1062 15.7849C22.0804 15.6932 22.074 15.6095 22.0869 15.5336C22.1169 15.4377 22.1391 15.3611 22.1534 15.3038C22.1806 15.1707 22.2486 15.0812 22.3574 15.0353C22.4662 14.9895 22.5893 15.0081 22.7267 15.0911C23.0203 15.2557 23.2987 15.4683 23.5622 15.7288C23.8443 15.9879 23.9517 16.2885 23.8845 16.6307C23.8859 16.6493 23.8551 16.8576 23.7922 17.2557C23.7278 17.6351 23.6592 18.0803 23.5862 18.5914C23.5119 19.0839 23.4425 19.5199 23.3781 19.8993C23.3137 20.2787 23.2823 20.4777 23.2837 20.4963L23.5672 20.5306C23.9208 20.26 24.2829 19.9793 24.6537 19.6887C25.023 19.3794 25.3036 19.1331 25.4954 18.9498C25.7416 18.7436 26.0465 18.4486 26.4101 18.0649C26.7737 17.6812 27.1273 17.2888 27.4708 16.8879C27.8144 16.487 28.0806 16.1763 28.2696 15.9558C28.4256 15.794 28.5301 15.6923 28.5831 15.6508C28.6532 15.5892 28.7892 15.5319 28.9911 15.4789C29.2058 15.5934 29.4149 15.7552 29.6182 15.9642C29.8387 16.1531 29.9755 16.3485 30.0285 16.5504C30.0614 16.7351 30.0264 16.8875 29.9233 17.0078ZM35.2774 24.1214C34.9124 24.4866 34.4715 24.7171 33.9547 24.8131C33.4565 24.9077 32.9575 24.8713 32.4579 24.7038C31.9567 24.5178 31.5308 24.2136 31.18 23.7913C30.832 23.4062 30.5914 22.9567 30.4582 22.4428C30.3236 21.9102 30.2605 21.213 30.2689 20.3511C30.2688 19.621 30.4455 18.8772 30.799 18.1198C31.1511 17.3438 31.5934 16.6451 32.1259 16.0237C32.677 15.4008 33.2324 14.9555 33.7922 14.6877C34.057 14.4801 34.2832 14.3784 34.4707 14.3826C34.6755 14.3669 34.984 14.3618 35.3963 14.3675C35.8287 14.3903 36.1515 14.4497 36.3649 14.5456C36.5968 14.64 36.7851 14.7753 36.9297 14.9514C37.2304 15.209 37.438 15.4739 37.5526 15.7459C37.6657 15.9993 37.7323 16.2562 37.7524 16.5168C37.7095 16.932 37.4691 17.456 37.0311 18.0889C36.6103 18.7017 36.0327 19.2236 35.2983 19.6546C34.8989 19.8165 34.4565 19.9067 33.9712 19.9254C33.4858 19.9441 33.0764 19.854 32.7428 19.655C32.3777 19.5334 32.1472 19.5792 32.0513 19.7925C31.954 19.9873 31.8874 20.4604 31.8518 21.2121C31.8318 21.925 31.9278 22.4419 32.1397 22.7625C32.3502 23.0646 32.6158 23.2313 32.9365 23.2628C33.3145 23.3085 33.6073 23.3421 33.8149 23.3636C34.0397 23.365 34.3031 23.2604 34.6051 23.0499C34.8886 22.8409 35.0668 22.7242 35.1398 22.6998C35.2114 22.6569 35.2643 22.6153 35.2987 22.5752C35.3502 22.5151 35.4619 22.3848 35.6337 22.1843C35.7539 22.044 35.8491 21.9431 35.9192 21.8815C35.9879 21.8013 36.0688 21.7577 36.1619 21.7505C36.2549 21.7433 36.3423 21.7834 36.4239 21.8707C36.5041 21.9394 36.5828 21.9895 36.6601 22.021C36.8463 22.0066 36.8921 22.1154 36.7976 22.3474C36.7218 22.5779 36.5472 22.8628 36.2738 23.2022C35.9989 23.5229 35.6668 23.8293 35.2774 24.1214ZM34.7934 18.2051C34.991 18.0963 35.195 17.9495 35.4054 17.7648C35.6144 17.5615 35.7854 17.3517 35.9186 17.1355C36.0688 16.8993 36.1383 16.7067 36.1268 16.5578C36.1067 16.2973 35.9692 16.0926 35.7144 15.9437C35.4581 15.7762 35.093 15.7763 34.6191 15.9439C34.4187 16.0155 34.1968 16.173 33.9535 16.4164C33.7087 16.6412 33.4754 16.8932 33.2535 17.1724C33.0502 17.4502 32.8821 17.6972 32.7489 17.9134C32.6344 18.1281 32.5972 18.2527 32.6373 18.2871C32.7003 18.3758 32.8643 18.4381 33.1291 18.4738C33.3926 18.491 33.6818 18.478 33.9967 18.435C34.3303 18.3906 34.5959 18.314 34.7934 18.2051ZM47.4859 23.5176C47.0764 23.5491 46.7679 23.5542 46.5603 23.5327C46.3527 23.5113 46.1902 23.4677 46.0728 23.4018C45.9554 23.336 45.8172 23.2437 45.6583 23.1249C45.5724 22.9817 45.4671 22.8307 45.3425 22.6718C45.2179 22.5129 45.1156 22.3991 45.0354 22.3304C44.9394 22.0569 44.8742 21.6969 44.8398 21.2502C44.824 20.8021 44.8425 20.3139 44.8954 19.7856C44.9669 19.2559 45.0785 18.7605 45.2302 18.2995C45.2932 18.1448 45.3469 17.9909 45.3912 17.8377C45.4356 17.6845 45.4578 17.6079 45.4578 17.6079C45.4506 17.5149 45.5451 17.2829 45.7411 16.9121C45.9558 16.5399 46.1877 16.1475 46.4368 15.7352C46.7044 15.3214 46.9249 15.0236 47.0981 14.8417C47.2169 14.6828 47.4001 14.5095 47.6478 14.322C47.914 14.1329 48.1466 13.9933 48.3456 13.9031C48.5446 13.8129 48.7443 13.732 48.9448 13.6603C49.1638 13.5873 49.4129 13.54 49.6921 13.5185C49.9526 13.4984 50.1989 13.5356 50.4308 13.6301C50.6628 13.7245 50.8919 13.9034 51.1181 14.1668C51.4789 14.476 51.6909 14.7967 51.7539 15.1288C51.8341 15.4409 51.8499 15.7673 51.8013 16.1081C51.7369 16.4875 51.6382 16.7853 51.505 17.0015C51.3705 17.1991 51.2095 17.2957 51.0219 17.2915C50.8344 17.2872 50.6096 17.1641 50.3475 16.9222C50.2616 16.779 50.2151 16.6609 50.2079 16.5679C50.1993 16.4562 50.2243 16.2951 50.283 16.0847C50.3374 15.8184 50.3166 15.5485 50.2206 15.2751C50.1246 15.0016 49.9929 14.8714 49.8254 14.8843C49.5835 14.9029 49.3222 15.0354 49.0416 15.2817C48.7782 15.5079 48.5098 15.7907 48.2364 16.1301C48.1176 16.289 47.9494 16.536 47.7319 16.871C47.5315 17.186 47.334 17.5382 47.1393 17.9277C46.9432 18.2985 46.7836 18.6572 46.6606 19.0037C46.5032 19.6336 46.3737 20.1397 46.2721 20.522C46.1891 20.9028 46.1476 21.0932 46.1476 21.0932C46.1534 21.1677 46.1777 21.2407 46.2207 21.3123C46.2808 21.3638 46.3137 21.4268 46.3195 21.5012C46.3367 21.7246 46.4806 21.8914 46.7512 22.0016C46.966 22.1161 47.2136 22.1719 47.4943 22.169C47.7734 22.1474 48.1106 22.0278 48.5057 21.8102C48.792 21.6383 49.0561 21.4214 49.298 21.1594C49.5585 20.8959 49.8305 20.6596 50.114 20.4506C50.3086 20.3045 50.4582 20.1807 50.5627 20.079C50.6858 19.9759 50.7503 19.9616 50.756 20.036C50.7617 20.1105 50.7925 20.1455 50.8484 20.1412C50.9042 20.1369 50.9665 20.0947 51.0352 20.0145C51.1354 19.857 51.2492 19.7546 51.3766 19.7074C51.5026 19.6415 51.6128 19.6143 51.7073 19.6257C51.819 19.6171 51.8769 19.6407 51.8812 19.6966C51.8569 19.8669 51.9049 20.0036 52.0252 20.1067C52.0309 20.1811 52.0109 20.2857 51.9651 20.4202C51.9365 20.5348 51.8878 20.6321 51.8191 20.7123C51.7361 20.8498 51.608 21.0094 51.4348 21.1913C51.2802 21.3717 51.1335 21.5328 50.9946 21.6745C50.8543 21.7977 50.7842 21.8592 50.7842 21.8592C50.7083 21.8464 50.6353 21.8707 50.5651 21.9323C50.5136 21.9924 50.4535 22.0626 50.3848 22.1428C50.2459 22.2845 50.1142 22.3976 49.9897 22.4821C49.8637 22.548 49.7635 22.5838 49.6891 22.5895C49.5645 22.674 49.4657 22.7285 49.3927 22.7528C49.3383 22.7757 49.314 22.8244 49.3197 22.8988C49.148 23.0993 48.9254 23.2475 48.6519 23.3435C48.3957 23.4194 48.007 23.4774 47.4859 23.5176ZM53.702 23.0666C53.5058 22.9507 53.3569 22.8405 53.2553 22.736C53.1536 22.6315 53.1042 22.4761 53.107 22.27C53.1227 21.9879 53.1563 21.6952 53.2078 21.3916C53.2579 21.0695 53.3273 20.7552 53.416 20.4488C53.446 20.1095 53.4853 19.7695 53.534 19.4288C53.6012 19.0866 53.7257 18.7587 53.9075 18.4452C54.155 17.5274 54.3768 16.6398 54.5728 15.7822C54.786 14.9045 55.0808 13.8708 55.4572 12.681C55.5344 12.4691 55.6067 12.3138 55.674 12.215C55.7584 12.0962 55.8336 11.978 55.8994 11.8606C55.9123 11.7848 55.9653 11.7432 56.0583 11.7361C56.1686 11.7088 56.291 11.7181 56.4256 11.7639C56.5587 11.7911 56.6661 11.8484 56.7477 11.9357C56.8207 11.9113 56.9324 12.0244 57.0828 12.2749C57.2517 12.524 57.3233 12.7244 57.2976 12.8762C57.3033 12.9506 57.2926 13.0544 57.2654 13.1876C57.2382 13.3207 57.1917 13.446 57.1259 13.5634C57.0572 13.6436 56.9913 13.761 56.9284 13.9156C56.864 14.0517 56.7659 14.2371 56.6342 14.4719C56.4883 15.0074 56.3638 15.4569 56.2608 15.8206C56.1577 16.1842 56.0304 16.5966 55.8787 17.0576C55.7628 17.2537 55.6798 17.5129 55.6297 17.835C55.5796 18.1572 55.5289 18.47 55.4774 18.7735C55.3729 19.1185 55.2756 19.435 55.1854 19.7227C55.1139 20.0091 55.081 20.1895 55.0867 20.2639C54.988 20.6834 54.9172 21.1008 54.8743 21.5159C54.83 21.9125 54.7355 22.2662 54.591 22.5769C54.5939 22.8575 54.5245 23.05 54.3828 23.1546C54.2596 23.2577 54.0327 23.2283 53.702 23.0666ZM60.4086 22.9991C60.108 22.9848 59.8803 22.9462 59.7257 22.8832C59.5696 22.8016 59.2754 22.6277 58.843 22.3615C58.6025 22.1554 58.2688 21.8347 57.8421 21.3996C57.4154 20.9644 56.9866 20.5013 56.5556 20.0103C56.1231 19.5007 55.7623 19.0698 55.4731 18.7177L56.4993 17.094C56.7642 17.3731 56.9812 17.6373 57.1501 17.8863C57.3191 18.1354 57.4537 18.3029 57.5539 18.3888C58.0308 18.9886 58.4052 19.4746 58.6773 19.8468C58.968 20.2176 59.225 20.516 59.4484 20.7422C59.6717 20.9684 59.9023 21.1659 60.14 21.3348C60.3962 21.5023 60.7091 21.6747 61.0785 21.8522C61.1372 21.8851 61.1973 21.9367 61.2589 22.0068C61.3205 22.077 61.3477 22.1872 61.3405 22.3375C61.2819 22.548 61.2082 22.6847 61.1194 22.7477C61.0478 22.7907 60.8109 22.8745 60.4086 22.9991ZM55.3656 18.417C55.2296 18.1092 55.2424 17.79 55.4042 17.4592C55.5831 17.1085 55.7885 16.8586 56.0204 16.7097C56.0848 16.5737 56.1528 16.4842 56.2244 16.4412C56.3131 16.3782 56.3639 16.3088 56.3768 16.2329C56.4083 16.1556 56.4935 16.046 56.6323 15.9043C56.7898 15.7611 56.9293 15.6286 57.051 15.5069C57.3345 15.2979 57.6522 15.0487 58.0044 14.7595C58.3737 14.4502 58.7244 14.1423 59.0565 13.8359C59.3886 13.5295 59.6678 13.2646 59.894 13.0412C60.1387 12.8164 60.2869 12.6739 60.3384 12.6138C60.3885 12.535 60.4594 12.4828 60.551 12.457C60.6598 12.4111 60.8008 12.419 60.9741 12.4805C61.2017 12.5192 61.3578 12.6007 61.4423 12.7253C61.5253 12.8312 61.5797 13.0517 61.6056 13.3867C61.6772 13.5871 61.6106 13.8169 61.4059 14.0761C61.2184 14.3152 60.9214 14.5908 60.5148 14.903C60.3731 15.0075 60.1792 15.1629 59.9329 15.3691C59.7053 15.5738 59.5049 15.7671 59.3317 15.949C59.2072 16.0335 59.0218 16.1788 58.7756 16.385C58.5465 16.5712 58.3454 16.7552 58.1722 16.937C58.0305 17.0415 57.848 17.2241 57.6247 17.4847C57.3999 17.7267 57.1709 17.9128 56.9376 18.0431C56.385 18.6474 56.0171 18.9753 55.8339 19.0269C55.6506 19.0784 55.4946 18.8751 55.3656 18.417ZM65.7623 21.6878C65.3772 21.7924 65.1281 21.8397 65.015 21.8297C64.919 21.7996 64.7615 21.6994 64.5425 21.5291C64.2332 21.4032 63.9676 21.2364 63.7457 21.0288C63.5423 20.8198 63.3848 20.598 63.2731 20.3632C63.1786 20.1084 63.1342 19.8965 63.1399 19.7275C63.1455 19.0718 63.2499 18.3617 63.4531 17.5972C63.6563 16.8326 63.9175 16.0917 64.2366 15.3744C64.5558 14.6571 64.9108 14.04 65.3015 13.5231C65.7095 12.9862 66.1124 12.6275 66.5104 12.447C66.8712 12.2695 67.2205 12.1864 67.5584 12.1978C67.8962 12.2092 68.1518 12.3673 68.3251 12.6723C68.6459 13.1905 68.6073 13.5398 68.2093 13.7203C68.1534 13.7246 68.0905 13.7575 68.0203 13.8191C67.9487 13.862 67.9158 13.9207 67.9216 13.9952C67.9989 14.0267 68.2043 14.0202 68.5379 13.9758C68.87 13.9127 69.2007 13.8311 69.53 13.7308C69.8764 13.6105 70.1019 13.4995 70.2064 13.3978C70.3138 13.3334 70.3954 13.299 70.4512 13.2947C70.507 13.2904 70.6481 13.2983 70.8743 13.3183C71.1978 13.387 71.3646 13.4864 71.3747 13.6167C71.3804 13.6912 71.4141 13.7635 71.4756 13.8336C71.5358 13.8851 71.6031 13.908 71.6775 13.9023C71.8092 13.9109 71.7971 13.9961 71.641 14.1579C71.5036 14.3182 71.2588 14.543 70.9067 14.8323C70.5703 15.0829 70.3584 15.249 70.2711 15.3306C70.201 15.3922 70.2017 15.5232 70.2733 15.7236C70.4495 16.0657 70.4903 16.4745 70.3959 16.9498C70.3015 17.4251 70.1054 17.9176 69.8077 18.4274C69.51 18.9371 69.1357 19.4246 68.6848 19.89C68.251 20.3353 67.7758 20.7276 67.259 21.067C66.7594 21.3863 66.2605 21.5933 65.7623 21.6878ZM65.193 20.4961C65.2674 20.4903 65.3949 20.4431 65.5752 20.3543C65.7542 20.2469 65.8973 20.1609 66.0047 20.0965C66.0734 20.0163 66.16 19.9254 66.2645 19.8237C66.3862 19.702 66.4835 19.629 66.5565 19.6046C66.631 19.5989 66.7219 19.5638 66.8293 19.4994C66.9352 19.4163 67.0826 19.2646 67.2716 19.044C67.4591 18.8049 67.7039 18.4584 68.0059 18.0046C68.3465 17.5664 68.6063 17.172 68.7852 16.8212C68.9627 16.4518 68.9935 16.1218 68.8775 15.8312C68.8531 15.7581 68.7937 15.7159 68.6992 15.7045C68.6233 15.6916 68.5174 15.653 68.3813 15.5886C68.1952 15.6029 68.0148 15.57 67.8402 15.4899C67.6827 15.3897 67.4951 15.2637 67.2775 15.112L66.7878 14.5881L66.3497 15.0992C66.0749 15.42 65.7929 15.891 65.5038 16.5124C65.2319 17.1137 65.0079 17.7301 64.8319 18.3615C64.6545 18.9743 64.5608 19.4589 64.5508 19.8154C64.5537 20.096 64.6146 20.2785 64.7334 20.363C64.8523 20.4474 65.0055 20.4918 65.193 20.4961ZM71.3103 28.618C71.2358 28.6238 71.1428 28.6309 71.0311 28.6395C70.9209 28.6668 70.8128 28.6002 70.7068 28.4399C70.6252 28.3526 70.5679 28.2166 70.5349 28.0319C70.5206 27.8458 70.5413 27.5072 70.5971 27.0161C70.6657 26.6925 70.7158 26.3704 70.7473 26.0497C70.7801 25.7476 70.7908 25.5221 70.7794 25.3732C70.7736 25.2988 70.7808 25.1485 70.8008 24.9222C70.8408 24.7132 70.8573 24.5622 70.8501 24.4691C70.9317 24.3131 70.9904 24.1026 71.0261 23.8377C71.0619 23.5729 71.0719 23.3381 71.0561 23.1333C71.0389 22.91 71.1348 22.6967 71.3438 22.4933C71.3323 22.3445 71.3459 22.1562 71.3845 21.9285C71.4417 21.6995 71.4675 21.5477 71.4617 21.4733C71.4975 21.2084 71.5833 20.7431 71.7192 20.0774C71.8723 19.3916 72.0562 18.6192 72.2708 17.7601C72.504 16.8997 72.7294 16.0585 72.9469 15.2367C73.1644 14.4149 73.3633 13.7162 73.5436 13.1407C73.7268 12.6023 73.8413 12.1442 73.887 11.7662C73.95 11.3682 73.9742 11.0761 73.9599 10.89C73.9542 10.8156 73.9685 10.7583 74.0028 10.7182C74.0357 10.6595 74.1116 10.5507 74.2304 10.3918C74.4022 10.1913 74.5561 10.1233 74.6921 10.1877C74.8467 10.2507 75.0321 10.3487 75.2483 10.4818C75.4159 10.7123 75.534 10.9091 75.6028 11.0723C75.6901 11.2341 75.7124 11.5226 75.6695 11.9378C75.691 12.2169 75.6631 12.4625 75.5858 12.6744C75.5085 12.8863 75.437 13.0509 75.3711 13.1683C75.3039 13.2671 75.2881 13.3058 75.3239 13.2843C76.0597 12.8719 76.7154 12.6341 77.2909 12.571C77.8836 12.4879 78.3847 12.5523 78.7942 12.7641C79.2209 12.9559 79.5523 13.2486 79.7886 13.6423C80.0249 14.036 80.1638 14.5027 80.2054 15.0424C80.2226 15.2657 80.1969 15.5392 80.1282 15.8628C80.0581 16.1677 79.9587 16.4562 79.8299 16.7282C79.7182 16.9802 79.6109 17.1664 79.5078 17.2866C79.4334 17.2924 79.3639 17.3633 79.2995 17.4993C79.2337 17.6167 79.1693 17.7527 79.1063 17.9073C78.9718 18.1049 78.7463 18.3376 78.43 18.6054C78.1308 18.8531 77.8287 19.0636 77.5238 19.2369C77.2174 19.3915 76.9877 19.4467 76.8345 19.4023C76.8345 19.4023 76.8073 19.4138 76.7529 19.4367C76.7157 19.4395 76.7006 19.4875 76.7078 19.5806C76.7107 19.6178 76.5682 19.713 76.2805 19.8662C75.9913 20.0009 75.6556 20.1391 75.2734 20.2809C74.8897 20.404 74.549 20.4771 74.2512 20.5001C73.8603 20.5302 73.5754 20.4772 73.3965 20.3413C73.3621 20.3813 73.3199 20.4408 73.2698 20.5195C73.2383 20.5968 73.2247 20.6634 73.229 20.7192C73.2376 20.8309 73.2076 21.0485 73.1389 21.3721C73.0874 21.6756 73.0166 21.9713 72.9264 22.259C72.8363 22.5468 72.7447 22.6943 72.6516 22.7015C72.6516 22.7015 72.6352 22.7308 72.6022 22.7895C72.5693 22.8482 72.5937 22.9212 72.6753 23.0086C72.6753 23.0086 72.6739 23.1116 72.671 23.3178C72.6882 23.5411 72.6561 23.7308 72.5745 23.8869C72.5859 24.0358 72.5752 24.2613 72.5424 24.5634C72.5095 24.8655 72.4615 25.0938 72.3986 25.2484C72.4158 25.4718 72.3951 25.6887 72.3364 25.8991C72.2978 26.1268 72.2412 26.2435 72.1668 26.2492C72.0938 26.2736 72.0558 26.3888 72.053 26.595C72.0516 26.8197 72.0545 26.9787 72.0617 27.0717C72.0789 27.5384 72.0138 27.9085 71.8664 28.182C71.719 28.4555 71.5336 28.6008 71.3103 28.618ZM73.9697 19.0333C74.1185 19.0219 74.4206 18.9331 74.8759 18.7669C75.3311 18.6008 75.7935 18.406 76.2631 18.1826C76.7498 17.9392 77.1063 17.7057 77.3324 17.4824C77.7833 17.017 78.1183 16.5044 78.3372 15.9446C78.5734 15.3648 78.5139 14.8358 78.1588 14.3576C77.9898 14.1086 77.712 14.027 77.3255 14.1129C76.9375 14.1803 76.5209 14.3622 76.0757 14.6586C75.6305 14.955 75.2183 15.3144 74.8389 15.7368C74.6342 15.996 74.4525 16.3095 74.2936 16.6775C74.1347 17.0455 74.0038 17.4113 73.9008 17.7749C73.8163 18.1371 73.7741 18.4399 73.7742 18.6833C73.7742 18.9267 73.8394 19.0434 73.9697 19.0333ZM84.4371 21.1473C84.1965 21.1846 83.9997 21.181 83.8465 21.1366C83.6919 21.0737 83.4979 20.9857 83.2645 20.8726C82.8306 20.5877 82.4992 20.295 82.2701 19.9944C82.0581 19.6737 81.9493 19.3545 81.9435 19.0367C81.9678 18.8663 81.9563 18.7174 81.9091 18.59C81.8804 18.4611 81.8661 18.3967 81.8661 18.3967C81.7473 18.3123 81.7057 18.2593 81.7415 18.2378C81.7759 18.1977 81.7995 18.1397 81.8124 18.0639C81.9584 18.0152 81.9691 17.9114 81.8445 17.7525C81.7772 17.6079 81.7793 17.2707 81.8508 16.741C81.9395 16.1912 82.0683 15.6758 82.2372 15.1947C82.3145 14.9828 82.4239 14.7029 82.5656 14.355C82.7259 14.0057 82.9048 13.6549 83.1023 13.3027C83.2984 12.9318 83.4816 12.6369 83.652 12.4178C84.0256 11.921 84.362 11.5487 84.6611 11.301C84.9775 11.0332 85.3347 10.8091 85.7327 10.6286C86.0934 10.4511 86.3568 10.3465 86.5229 10.315C86.689 10.2835 86.9302 10.3772 87.2466 10.5962C87.7034 10.6921 88.0527 10.8524 88.2947 11.0771C88.5538 11.2818 88.7672 11.6211 88.9348 12.0949C89.1253 12.6232 89.2213 13.2617 89.2228 14.0105C89.2415 14.7392 88.9976 15.7034 88.4909 16.9033C88.1933 17.6564 87.882 18.2326 87.557 18.6321C87.2507 19.0302 86.8714 19.4526 86.419 19.8993C86.0884 20.2243 85.7806 20.4821 85.4957 20.6725C85.2108 20.863 84.858 21.0212 84.4371 21.1473ZM86.4144 17.653C86.7436 17.066 86.9926 16.5319 87.1615 16.0509C87.3476 15.5498 87.4778 14.9313 87.5521 14.1954C87.5735 13.9878 87.5635 13.7358 87.5219 13.4395C87.4789 13.1245 87.4102 12.8396 87.3156 12.5848C87.2397 12.3285 87.1452 12.1954 87.0321 12.1854C86.783 12.111 86.5131 12.1318 86.2225 12.2478C85.9305 12.3452 85.622 12.5936 85.297 12.9931C85.0093 13.3897 84.7531 13.8307 84.5284 14.3161C84.3223 14.8 84.1384 15.329 83.9767 15.9032C83.8151 16.4773 83.6655 17.0879 83.5282 17.735C83.3966 18.4566 83.4475 18.9956 83.6809 19.3521C83.9329 19.7071 84.303 19.7722 84.7912 19.5474C85.2779 19.3039 85.819 18.6725 86.4144 17.653ZM92.0025 19.2724C91.6589 19.43 91.3661 19.5181 91.1242 19.5367C90.8994 19.5353 90.6395 19.443 90.3446 19.2598C89.9652 18.952 89.8184 18.6264 89.9042 18.2827C90.0072 17.9191 90.2878 17.5511 90.7459 17.1788C91.0651 16.9483 91.2984 16.8179 91.4459 16.7879C91.612 16.7563 91.8683 16.8021 92.2147 16.9252C92.8003 17.2358 93.0724 17.608 93.0309 18.0418C93.0081 18.4741 92.6653 18.8844 92.0025 19.2724ZM96.6993 18.9105C96.3557 19.068 96.063 19.1561 95.821 19.1747C95.5963 19.1733 95.3364 19.081 95.0414 18.8978C94.662 18.5901 94.5152 18.2644 94.6011 17.9208C94.7041 17.5571 94.9846 17.1891 95.4427 16.8168C95.762 16.5863 95.9953 16.456 96.1428 16.4259C96.3088 16.3944 96.5651 16.4401 96.9116 16.5632C97.4972 16.8738 97.7692 17.246 97.7278 17.6798C97.7049 18.1122 97.3621 18.5224 96.6993 18.9105ZM101.396 18.5485C101.053 18.706 100.76 18.7941 100.518 18.8128C100.293 18.8114 100.033 18.7191 99.7383 18.5358C99.3589 18.2281 99.2121 17.9024 99.2979 17.5588C99.4009 17.1951 99.6815 16.8272 100.14 16.4549C100.459 16.2243 100.692 16.094 100.84 16.0639C101.006 16.0324 101.262 16.0782 101.608 16.2012C102.194 16.5118 102.466 16.884 102.425 17.3178C102.402 17.7502 102.059 18.1604 101.396 18.5485Z" fill="#2F94F9"/>
<path d="M17.0484 54.9855C18.5983 53.4481 20.1444 51.908 21.6681 50.3457C21.8397 50.168 22.0161 49.9893 22.1836 49.8074C22.2327 49.7547 22.2812 49.6988 22.3313 49.651C22.4584 49.4818 22.6482 49.3471 22.9104 49.288C23.1535 49.2326 23.4776 49.2978 23.6792 49.4448C23.9636 49.6538 24.1778 50.0109 24.1253 50.3782C24.0562 50.8898 23.67 51.2104 23.3372 51.5605C22.9257 51.989 22.507 52.4139 22.086 52.8359C21.5926 53.335 21.0938 53.8319 20.5979 54.3265C27.0819 53.8151 33.9839 50.851 37.1035 44.7527C38.1158 42.7713 38.6276 40.5113 38.7593 38.272C38.8366 36.9515 40.8716 37.1106 40.7949 38.4342C40.547 42.7971 38.8655 46.8813 35.7962 49.9855C33.0045 52.8048 29.314 54.599 25.517 55.5817C24.2158 55.9183 22.8926 56.1496 21.5574 56.2935C23.0656 56.7622 24.6177 57.0662 26.1928 57.2413C27.4946 57.3845 27.3482 59.4375 26.0375 59.291C23.8264 59.0481 21.6169 58.5741 19.5397 57.7638C18.7273 57.4494 17.8903 57.0933 17.1532 56.6148C16.5696 56.2395 16.5959 55.4388 17.0494 54.9889L17.0484 54.9855ZM22.0936 50.2118C22.1062 50.2343 22.1159 50.259 22.1285 50.2815C22.1284 50.2383 22.1277 50.1919 22.1358 50.1488C22.1104 50.2136 22.0922 50.247 22.0968 50.2112L22.0936 50.2118ZM22.2676 49.7397L22.274 49.7301C22.274 49.7301 22.2692 49.7311 22.2669 49.7365L22.2676 49.7397Z" fill="#2F94F9"/>
</svg>
