<svg width="139" height="98" viewBox="0 0 139 98" fill="none" xmlns="http://www.w3.org/2000/svg">
<path d="M123.208 47.6995C122.688 47.8105 122.335 47.5702 122.147 46.9789C121.959 46.3876 121.978 45.5651 122.203 44.5116C122.308 44.2839 122.394 44.0663 122.462 43.8585C122.529 43.6321 122.56 43.4536 122.556 43.323C122.622 43.078 122.706 42.795 122.807 42.4741C122.926 42.1339 123.047 41.8216 123.168 41.5374C123.288 41.2345 123.375 41.0354 123.428 40.9403C123.502 40.9378 123.575 40.8699 123.645 40.7368C123.734 40.6031 123.776 40.4709 123.772 40.3403C123.767 40.1911 123.789 40.0222 123.839 39.8338C123.907 39.6447 123.977 39.5116 124.049 39.4345C124.046 39.3412 124.08 39.2373 124.151 39.1229C124.222 39.0084 124.256 38.9139 124.253 38.8392C124.251 38.7646 124.267 38.6987 124.303 38.6415C124.357 38.5836 124.383 38.5174 124.38 38.4427C124.538 38.1386 124.738 37.6929 124.979 37.1058C125.239 36.4993 125.488 35.8652 125.728 35.2034C125.985 34.541 126.199 33.9548 126.369 33.4448C126.538 32.9348 126.621 32.6239 126.617 32.5119C126.65 32.3614 126.702 32.2476 126.774 32.1704C126.846 32.0933 126.957 32.0709 127.108 32.1031C127.181 32.0447 127.254 32.0142 127.329 32.0116C127.403 31.9905 127.477 31.9786 127.552 31.9761C127.552 31.9761 127.581 32.0125 127.639 32.0852C127.717 32.1573 127.823 32.2658 127.959 32.4106C128.112 32.5362 128.201 32.6826 128.226 32.8499C128.25 33.0171 128.266 33.2127 128.273 33.4366C128.267 33.7917 128.15 34.1972 127.922 34.6531C127.695 35.1091 127.441 35.6126 127.161 36.1637C126.986 36.5244 126.811 36.8665 126.635 37.19C126.478 37.5128 126.401 37.7115 126.403 37.7861C126.406 37.8608 126.372 37.974 126.302 38.1257C126.233 38.2775 126.155 38.4669 126.069 38.6939C125.964 38.8842 125.85 39.1122 125.728 39.3778C125.607 39.6434 125.493 39.89 125.389 40.1177C125.303 40.326 125.26 40.4582 125.262 40.5142C125.246 40.5894 125.221 40.665 125.186 40.7409C125.17 40.8161 125.126 40.8923 125.054 40.9695C124.979 40.972 124.934 41.0295 124.919 41.1421C124.923 41.2354 124.924 41.282 124.924 41.282C124.927 41.3566 124.886 41.5354 124.802 41.8184C124.736 42.0821 124.616 42.4037 124.442 42.7831C124.121 43.7838 123.896 44.5852 123.767 45.1872C123.637 45.7706 123.561 46.2681 123.537 46.6798C123.515 47.1288 123.487 47.3913 123.452 47.4672C123.436 47.5424 123.354 47.6199 123.208 47.6995ZM121.847 52.228C121.497 52.3705 121.201 52.4459 120.959 52.4541C120.734 52.443 120.478 52.3396 120.192 52.1438C119.826 51.8199 119.693 51.4882 119.794 51.1486C119.913 50.7898 120.209 50.4342 120.682 50.0821C121.011 49.8655 121.25 49.7454 121.399 49.7217C121.566 49.6974 121.82 49.7542 122.161 49.8921C122.733 50.2277 122.988 50.6113 122.928 51.0429C122.887 51.4738 122.526 51.8689 121.847 52.228Z" fill="#2F94F9"/>
<path d="M117.822 52.5875C117.629 52.4073 117.434 52.1617 117.237 51.8509C117.039 51.5213 116.877 51.1439 116.75 50.7186C116.708 50.5706 116.682 50.366 116.673 50.1049C116.683 49.843 116.677 49.6565 116.655 49.5452C116.603 49.6777 116.514 49.8207 116.389 49.9744C116.281 50.1088 116.173 50.2245 116.064 50.3215C115.992 50.3987 115.829 50.5536 115.576 50.7863C115.322 51.0003 115.066 51.177 114.809 51.3164C114.207 51.729 113.701 51.9608 113.292 52.012C112.901 52.0625 112.521 51.8699 112.152 51.4341C111.845 51.2017 111.621 50.9384 111.481 50.6443C111.359 50.3496 111.345 49.9391 111.439 49.413C111.454 48.7588 111.526 48.1213 111.655 47.5006C111.783 46.8613 112.062 46.0114 112.493 44.9509C112.859 44.1728 113.139 43.603 113.332 43.2416C113.525 42.8616 113.648 42.6333 113.701 42.5568C113.978 42.4541 114.211 42.4555 114.402 42.5612C114.591 42.6482 114.709 42.8216 114.755 43.0815C114.874 43.2643 114.866 43.5821 114.732 44.0349C114.616 44.487 114.402 45.0453 114.088 45.7096C113.848 46.3527 113.627 46.9952 113.424 47.637C113.241 48.2783 113.138 48.8234 113.115 49.2724C113.093 49.7214 113.214 49.9881 113.479 50.0726C113.65 50.1602 113.938 50.1225 114.343 49.9594C114.767 49.7956 115.23 49.4065 115.733 48.7918C116.254 48.1766 116.745 47.2541 117.208 46.0245C117.345 45.6463 117.446 45.3161 117.511 45.0337C117.575 44.7327 117.611 44.4047 117.618 44.0496C117.573 43.827 117.576 43.6308 117.626 43.461C117.694 43.2719 117.838 43.1083 118.058 42.9701C118.129 42.8743 118.229 42.7869 118.357 42.7079C118.484 42.6102 118.568 42.6074 118.609 42.6994L119.056 42.6563C119.13 42.6351 119.178 42.6802 119.2 42.7915C119.241 42.8835 119.309 42.9653 119.405 43.0367C119.616 43.1977 119.684 43.5596 119.609 44.1224C119.535 44.6853 119.3 45.4776 118.905 46.4995C118.576 47.2764 118.353 47.8629 118.236 48.2591C118.137 48.6547 118.085 49.0393 118.079 49.4131C118.09 49.7489 118.166 50.0638 118.307 50.3579C118.448 50.652 118.662 50.9156 118.95 51.1487C119.16 51.2723 119.277 51.4178 119.301 51.5851C119.344 51.7517 119.36 51.9473 119.349 52.1718C119.317 52.341 119.21 52.4847 119.027 52.6029C118.862 52.7019 118.668 52.7551 118.444 52.7627C118.22 52.7702 118.013 52.7118 117.822 52.5875Z" fill="#2F94F9"/>
<path d="M108.821 52.388C108.617 52.4323 108.412 52.4485 108.207 52.4368C108.001 52.4251 107.802 52.357 107.611 52.2327C107.532 52.086 107.433 51.9213 107.315 51.7385C107.214 51.5364 107.199 51.3595 107.269 51.2077C107.354 50.9807 107.39 50.662 107.376 50.2515C107.381 49.8405 107.444 49.4928 107.565 49.2086C107.583 49.1706 107.591 49.1423 107.591 49.1237C107.608 49.0857 107.616 49.0481 107.615 49.0108C107.627 48.8236 107.666 48.5888 107.731 48.3065C107.814 48.0048 107.872 47.7694 107.903 47.6003C107.921 47.5623 107.943 47.4028 107.971 47.1217C107.999 46.8406 108.026 46.5408 108.053 46.2224C108.08 45.904 108.091 45.6795 108.086 45.5489C108.083 45.4557 108.109 45.3801 108.163 45.3222C108.235 45.2451 108.232 45.1518 108.153 45.0424C107.864 45.3323 107.504 45.7273 107.073 46.2275C106.66 46.727 106.266 47.2353 105.891 47.7522C105.516 48.2505 105.222 48.6806 105.01 49.0427C104.976 49.1185 104.931 49.1854 104.877 49.2433C104.823 49.3011 104.778 49.3587 104.743 49.4159C104.672 49.5303 104.582 49.6361 104.473 49.7332C104.365 49.8302 104.285 49.9543 104.234 50.1054C103.927 50.4333 103.676 50.7406 103.48 51.0274C103.303 51.3135 103.043 51.6118 102.698 51.9223C102.458 51.9864 102.233 51.9753 102.025 51.889C101.835 51.802 101.636 51.7246 101.428 51.6569C101.388 51.5649 101.338 51.4732 101.279 51.3818C101.219 51.2718 101.169 51.1707 101.129 51.0787C101.17 50.6477 101.237 50.1225 101.328 49.5031C101.418 48.865 101.491 48.2369 101.544 47.6187C101.617 46.9999 101.629 46.5233 101.58 46.1887C101.558 46.0961 101.547 46.0218 101.545 45.9658C101.543 45.9098 101.569 45.8436 101.622 45.7671C101.621 45.7298 101.619 45.6924 101.618 45.6551C101.636 45.6172 101.644 45.5889 101.643 45.5702C101.547 45.4801 101.525 45.3874 101.578 45.2923C101.631 45.1971 101.628 45.1038 101.568 45.0124C101.549 44.9944 101.521 44.9767 101.483 44.9593C101.463 44.9413 101.435 44.9236 101.397 44.9062C101.008 45.5543 100.58 46.1664 100.114 46.7425C99.6659 47.2992 99.228 47.8837 98.8004 48.4958C98.5151 48.8976 98.2414 49.3645 97.9791 49.8963C97.7356 50.4274 97.4329 50.8672 97.0711 51.2156C96.9449 51.3506 96.8194 51.5043 96.6945 51.6766C96.5876 51.8296 96.452 51.9649 96.2879 52.0825C96.255 52.2144 96.1839 52.3195 96.0744 52.3979C95.983 52.457 95.8627 52.4891 95.7135 52.4942C95.4336 52.5036 95.1506 52.4198 94.8645 52.2426C94.5784 52.0655 94.4219 51.856 94.395 51.6141C94.3906 51.4835 94.4422 51.351 94.5497 51.2167C94.5671 51.1787 94.5752 51.1411 94.5739 51.1038C94.5913 51.0658 94.609 51.0372 94.6271 51.018C94.9765 50.8567 95.3218 50.5743 95.6631 50.1705C96.023 49.7662 96.3633 49.3344 96.684 48.8754C97.0041 48.3976 97.299 48.0048 97.5687 47.6969C97.8211 47.4269 98.0172 47.1494 98.157 46.8645C98.2962 46.561 98.473 46.2655 98.6874 45.9781C98.9553 45.6142 99.2222 45.2223 99.4882 44.8025C99.7729 44.382 100.048 43.9711 100.315 43.5699C100.6 43.168 100.887 42.8128 101.176 42.5043C101.309 42.5745 101.442 42.6354 101.574 42.6869C101.725 42.7379 101.885 42.7605 102.053 42.7548C102.15 42.8636 102.237 42.9727 102.316 43.0821C102.412 43.1723 102.518 43.2621 102.633 43.3516C102.902 43.5666 103.089 43.8592 103.195 44.2291C103.301 44.5991 103.361 44.9986 103.376 45.4277C103.396 46.0434 103.352 46.6706 103.243 47.3093C103.152 47.9287 103.085 48.4539 103.044 48.8849C103.045 48.9035 103.045 48.9222 103.046 48.9408C103.064 48.9402 103.074 48.9492 103.075 48.9679C103.473 48.5996 103.823 48.1769 104.125 47.6998C104.426 47.2227 104.747 46.7729 105.088 46.3505C105.715 45.5636 106.181 44.9875 106.486 44.6224C106.81 44.2566 107.053 43.9962 107.216 43.8413C107.379 43.6864 107.542 43.5315 107.705 43.3766C107.832 43.2789 107.977 43.1526 108.14 42.9977C108.321 42.8235 108.556 42.5821 108.844 42.2735C108.993 42.2685 109.133 42.2637 109.264 42.2593C109.413 42.2543 109.553 42.2496 109.684 42.2452C109.836 42.3334 109.951 42.4043 110.027 42.4577C110.103 42.4925 110.226 42.5257 110.395 42.5574C110.417 42.65 110.459 42.7887 110.521 42.9734C110.583 43.158 110.597 43.2976 110.563 43.3922C110.53 43.524 110.516 43.6553 110.52 43.7858C110.525 43.9164 110.482 44.0486 110.394 44.1823C110.252 44.4113 110.124 44.7891 110.012 45.3159C109.917 45.8234 109.831 46.3305 109.755 46.8374C109.696 47.325 109.661 47.6717 109.65 47.8775C109.587 48.2345 109.521 48.4796 109.45 48.6127C109.38 48.7271 109.328 48.8503 109.295 48.9821C109.262 49.114 109.258 49.2635 109.282 49.4308C109.306 49.5794 109.292 49.72 109.24 49.8525C109.222 49.8718 109.204 49.891 109.186 49.9103C109.186 49.9103 109.177 49.92 109.159 49.9393C109.165 50.1258 109.172 50.3217 109.179 50.5269C109.204 50.7128 109.172 50.882 109.084 51.0344C109.126 51.1637 109.14 51.3033 109.126 51.4532C109.112 51.6031 109.136 51.7517 109.197 51.8991C109.125 51.9762 109.062 52.0531 109.009 52.1296C108.955 52.2061 108.893 52.2922 108.821 52.388Z" fill="#2F94F9"/>
<path d="M94.1397 43.0489C94.3867 43.1713 94.5497 43.2965 94.6287 43.4246C94.7071 43.534 94.8636 43.7435 95.0982 44.0531C95.0665 44.2223 95.019 44.476 94.9557 44.8144C94.9105 45.1334 94.8556 45.4434 94.791 45.7445C94.7265 46.0455 94.6594 46.2719 94.5898 46.4236C94.6359 46.6836 94.5835 47.0682 94.4326 47.5776C94.2998 48.0677 94.1585 48.5861 94.0088 49.1328C93.8586 49.6608 93.736 50.1786 93.641 50.686C93.5461 51.1935 93.5422 51.6326 93.6294 52.0032C93.5747 52.0424 93.5203 52.0909 93.4662 52.1488C93.4308 52.206 93.3764 52.2545 93.3031 52.2944C93.083 52.4139 92.8594 52.4307 92.6324 52.345C92.4054 52.2593 92.2228 52.1067 92.0846 51.8872C91.9459 51.6491 91.9001 51.3985 91.9472 51.1354C91.995 50.891 92.076 50.5241 92.1902 50.0346C92.3038 49.5265 92.4252 48.9714 92.5543 48.3694C92.6834 47.7674 92.8038 47.1843 92.9155 46.6202C93.0266 46.0375 93.1218 45.5393 93.2012 45.1257C93.2807 44.7121 93.3182 44.4401 93.3138 44.3095C93.3081 44.1416 93.1744 44.0527 92.9126 44.0428C92.6688 44.0137 92.3986 44.0322 92.102 44.0982C91.8234 44.145 91.6381 44.1886 91.5461 44.229C91.16 44.4102 90.8413 44.6544 90.5902 44.9617C90.3391 45.269 90.1359 45.612 89.9806 45.9908C89.8253 46.3696 89.6796 46.7574 89.5436 47.1542C89.566 47.2655 89.5788 47.3678 89.5819 47.4611C89.5845 47.5357 89.6246 47.6184 89.7024 47.7092C89.8001 47.8366 89.9431 47.9252 90.1316 47.9749C90.32 48.0245 90.5175 48.0646 90.724 48.095C90.9304 48.1253 91.1096 48.1753 91.2613 48.2449C91.3179 48.2617 91.3649 48.2694 91.4022 48.2682C91.4389 48.2483 91.4759 48.2377 91.5132 48.2364C91.5692 48.2345 91.6171 48.2703 91.6569 48.3436C91.795 48.5631 91.8946 48.7465 91.9556 48.8939C92.0166 49.0412 91.9583 49.2486 91.7805 49.5161C91.3248 49.849 90.8781 50.1723 90.4404 50.4859C90.0028 50.7995 89.5757 51.1501 89.1592 51.5377C89.033 51.6727 88.8779 51.7806 88.6938 51.8616C88.5278 51.9232 88.382 52.0308 88.2565 52.1845C88.149 52.3189 88.0225 52.4445 87.877 52.5615C87.7495 52.6592 87.6227 52.7755 87.4965 52.9105C87.4244 52.9877 87.352 53.0555 87.2793 53.114C87.2059 53.1538 87.1213 53.138 87.0255 53.0665C86.7451 53.0573 86.5358 52.943 86.3976 52.7235C86.2595 52.504 86.1477 52.237 86.0624 51.9223C86.2588 51.6542 86.5662 51.3544 86.9846 51.0227C87.4023 50.6724 87.8667 50.3206 88.3778 49.9671C88.9068 49.5944 89.4002 49.2696 89.8578 48.9927C89.3714 48.9717 88.9949 48.8817 88.728 48.7226C88.4605 48.5449 88.221 48.3662 88.0095 48.1866C87.7756 47.8956 87.6613 47.5539 87.6668 47.1615C87.6908 46.7685 87.7805 46.3826 87.9359 46.0038C88.0905 45.6063 88.2474 45.2742 88.4065 45.0074C88.4426 44.9688 88.46 44.9308 88.4587 44.8935C88.4761 44.8556 88.4938 44.827 88.5119 44.8077C88.7399 44.3704 88.9347 44.0557 89.0963 43.8634C89.2766 43.6706 89.5675 43.4366 89.9692 43.1616C90.1153 43.0633 90.2716 42.9926 90.4383 42.9497C90.6043 42.888 90.7709 42.845 90.9382 42.8207C91.1235 42.7771 91.3748 42.75 91.6919 42.7393C92.0091 42.7286 92.3268 42.7365 92.6452 42.7631C92.963 42.7711 93.2071 42.8095 93.3776 42.8785C93.5094 42.9114 93.6322 42.9539 93.7461 43.0061C93.8786 43.0577 94.0098 43.0719 94.1397 43.0489Z" fill="#2F94F9"/>
<path d="M81.3637 53.9586C80.5428 53.9863 79.8608 53.7011 79.3176 53.1031C78.7739 52.4864 78.4956 51.7114 78.4827 50.7779C78.4974 50.105 78.6038 49.3824 78.8018 48.6099C79.0179 47.8182 79.3099 47.0612 79.6777 46.3391C80.045 45.5983 80.4526 44.9495 80.9008 44.3927C81.3489 43.836 81.8211 43.4372 82.3172 43.1963C82.5007 43.0967 82.694 43.0155 82.8974 42.9526C83.1193 42.8891 83.3423 42.8535 83.5661 42.846C83.7714 42.839 83.9872 42.8691 84.2136 42.9362C84.4393 42.9846 84.6281 43.0436 84.7798 43.1132C85.1014 43.2331 85.3493 43.3835 85.5235 43.5644C85.6977 43.7453 85.8567 44.0294 86.0005 44.4168C86.0684 44.7693 86.1049 45.0203 86.1099 45.1695C86.115 45.3188 86.0759 45.5442 85.9927 45.8458C85.7915 46.525 85.5218 47.1131 85.1837 47.6101C84.8456 48.1072 84.3838 48.5336 83.7981 48.8896C83.652 48.9879 83.4773 49.0685 83.2739 49.1314C83.0886 49.175 82.8934 49.2003 82.6882 49.2072C82.3151 49.2198 81.9491 49.1668 81.5902 49.0481C81.2493 48.9102 80.9716 48.7048 80.7569 48.4319L80.5535 48.2146L80.4771 48.4413C80.3075 48.9513 80.174 49.4228 80.0766 49.8556C79.9978 50.2879 79.9643 50.6812 79.9763 51.0357C79.9838 51.2596 80.0097 51.4735 80.054 51.6774C80.1169 51.8808 80.1975 52.0555 80.2958 52.2016C80.3742 52.311 80.4983 52.3909 80.6681 52.4412C80.8559 52.4722 81.0524 52.4842 81.2576 52.4773C81.3882 52.4729 81.5188 52.4685 81.6494 52.4641C81.798 52.4404 81.9367 52.3984 82.0654 52.338C82.3788 52.2153 82.6265 52.0856 82.8087 51.9487C83.0095 51.8112 83.21 51.6643 83.4102 51.5082L83.5202 51.4484L83.4922 51.4494C83.7123 51.3299 83.9044 51.2113 84.0686 51.0937C84.2514 50.9755 84.3427 50.9164 84.3427 50.9164C84.4174 50.9139 84.4904 50.8647 84.5619 50.7689C84.7086 50.6892 84.8961 50.7109 85.1244 50.834C85.3714 50.9564 85.4983 51.1202 85.5052 51.3254C85.4897 51.4193 85.4108 51.5714 85.2685 51.7816C85.1255 51.9732 84.9636 52.1561 84.7827 52.3303C84.6205 52.5039 84.4837 52.6019 84.3724 52.6243C84.3543 52.6436 84.2903 52.6831 84.1803 52.7429C84.0696 52.784 83.9962 52.8238 83.9602 52.8624L83.9881 52.8614C83.8278 53.091 83.6637 53.2086 83.4958 53.2142L83.2719 53.2218C83.2017 53.3549 82.9642 53.5123 82.5594 53.6941C82.154 53.8572 81.7554 53.9454 81.3637 53.9586ZM82.4152 47.7596C82.751 47.7483 83.037 47.6452 83.2733 47.4505C83.5275 47.2364 83.7438 47.005 83.9222 46.7562C84.2783 46.2399 84.4765 45.7476 84.5167 45.2793C84.575 44.7917 84.5077 44.4578 84.3148 44.2775C84.201 44.2253 84.0975 44.2008 84.0042 44.204C83.9289 44.1878 83.7713 44.2212 83.5313 44.304C83.3646 44.347 83.1362 44.4947 82.8459 44.7473C82.5555 44.9999 82.2662 45.2805 81.9777 45.5891C81.708 45.897 81.5019 46.1561 81.3596 46.3664L81.0156 46.9663C81.163 46.9053 81.302 46.8726 81.4326 46.8682C81.5812 46.8445 81.6655 46.851 81.6854 46.8877C81.691 47.0556 81.7244 47.2132 81.7854 47.3606C81.8644 47.4887 81.9518 47.5884 82.0476 47.6599C82.1621 47.7308 82.2846 47.764 82.4152 47.7596Z" fill="#2F94F9"/>
<path d="M72.3562 54.0101C72.3009 54.0306 72.1694 54.0071 71.9616 53.9394C71.7533 53.853 71.5256 53.7486 71.2787 53.6262C71.0498 53.4845 70.8678 53.3506 70.7328 53.2244C70.5773 53.0429 70.4311 52.861 70.2942 52.6789C70.1753 52.4774 70.1115 52.2461 70.1027 51.9849C69.9626 51.7095 69.8783 51.4229 69.8495 51.125C69.8388 50.8078 69.8191 50.5003 69.7904 50.2025C69.756 49.7367 69.8425 49.2575 70.05 48.7649C70.2569 48.2536 70.4216 47.8745 70.544 47.6276C70.6284 47.3633 70.8037 47.0211 71.0697 46.6013C71.3537 46.1621 71.7033 45.7301 72.1185 45.3052C72.5338 44.8803 72.9708 44.548 73.4297 44.3084C73.7231 44.1491 74.0175 44.0177 74.3129 43.9144C74.6263 43.7917 74.9907 43.7981 75.4061 43.9335C75.6133 43.9826 75.765 44.0521 75.8615 44.1423C75.9579 44.2324 76.0636 44.3222 76.1787 44.4117C76.3242 44.2948 76.4363 44.0201 76.5151 43.5879C76.612 43.1364 76.6603 42.6305 76.66 42.0702C76.6778 41.4906 76.6313 40.9412 76.5204 40.4219C76.4275 39.8834 76.2544 39.4597 76.0012 39.1507C75.5327 38.5502 75.0248 38.1658 74.4774 37.9975C73.9301 37.8291 73.3163 37.9059 72.6361 38.2277C72.4091 38.142 72.1979 37.9716 72.0026 37.7168C71.8258 37.4612 71.7704 37.2016 71.8362 36.9379C71.981 36.8023 72.1632 36.6654 72.3827 36.5273C72.6021 36.3891 72.8232 36.2976 73.0458 36.2527C73.3051 36.188 73.565 36.1418 73.8256 36.1144C74.1048 36.0863 74.3965 36.1511 74.7006 36.309C75.6814 36.5934 76.4241 37.0166 76.9287 37.5785C77.4513 38.1212 77.8194 38.7905 78.033 39.5864C78.2467 40.3824 78.3898 41.3021 78.4623 42.3455C78.5097 42.6428 78.5282 42.913 78.5177 43.1561C78.5253 43.38 78.5102 43.7634 78.4725 44.3063C78.2941 44.5551 78.2292 44.8468 78.2779 45.1814C78.3445 45.4966 78.3173 45.7964 78.1961 46.0806C78.1882 46.3984 78.1224 46.6621 77.9987 46.8717C77.875 47.0814 77.8164 47.2795 77.8227 47.466C77.5183 48.4102 77.0921 49.3397 76.544 50.2547C76.0145 51.1691 75.397 51.965 74.6915 52.6426C73.9859 53.3201 73.2075 53.7759 72.3562 54.0101ZM72.127 52.1968C72.316 52.2651 72.5934 52.1811 72.9589 51.9446C73.3239 51.6895 73.6956 51.3594 74.0742 50.9544C74.4521 50.5308 74.7654 50.128 75.014 49.746C75.1028 49.6123 75.2169 49.3937 75.356 49.0901C75.5139 48.786 75.6533 48.4918 75.7745 48.2075C75.9143 47.9226 75.9923 47.7426 76.0084 47.6673C76.1606 47.1953 76.2391 46.7537 76.2439 46.3426C76.2667 45.9123 76.2106 45.634 76.0756 45.5078C75.8622 45.2722 75.5245 45.2276 75.0625 45.3739C74.6192 45.5196 74.1973 45.7486 73.797 46.061C73.506 46.2949 73.2456 46.6026 73.0157 46.9839C72.8038 47.3459 72.5816 47.6802 72.3491 47.9869C72.3722 48.1169 72.3386 48.2301 72.2485 48.3265C72.177 48.4223 72.0962 48.5184 72.0061 48.6148C71.7793 49.0894 71.6355 49.5332 71.5747 49.9461C71.5133 50.3404 71.4842 50.5842 71.4874 50.6775C71.4974 50.976 71.5545 51.2823 71.6584 51.5963C71.7624 51.9103 71.9186 52.1104 72.127 52.1968Z" fill="#2F94F9"/>
<path d="M67.0904 54.2995C66.8975 54.1192 66.7025 53.8736 66.5052 53.5628C66.3073 53.2333 66.1452 52.8558 66.0187 52.4305C65.9764 52.2825 65.9508 52.078 65.942 51.8168C65.9518 51.555 65.9455 51.3684 65.9231 51.2571C65.8715 51.3896 65.783 51.5326 65.6574 51.6863C65.5499 51.8207 65.4417 51.9364 65.333 52.0334C65.2608 52.1106 65.098 52.2655 64.8443 52.4982C64.5901 52.7122 64.3346 52.8889 64.0778 53.0283C63.4754 53.4409 62.9696 53.6727 62.5604 53.7239C62.1699 53.7744 61.7898 53.5818 61.4203 53.146C61.1136 52.9136 60.8899 52.6503 60.7492 52.3562C60.6272 52.0615 60.6134 51.6511 60.7077 51.1249C60.723 50.4707 60.7948 49.8332 60.9233 49.2125C61.0512 48.5732 61.3307 47.7233 61.7618 46.6628C62.1278 45.8847 62.4074 45.3149 62.6006 44.9536C62.7933 44.5735 62.9163 44.3452 62.9697 44.2687C63.2464 44.166 63.48 44.1675 63.6703 44.2731C63.86 44.3601 63.9779 44.5335 64.024 44.7935C64.1423 44.9762 64.1343 45.294 64.0002 45.7468C63.8847 46.199 63.6701 46.7572 63.3563 47.4215C63.1165 48.0646 62.8954 48.7071 62.6929 49.3489C62.5091 49.9902 62.4061 50.5353 62.3839 50.9843C62.3617 51.4333 62.4828 51.7 62.7471 51.7845C62.9181 51.8721 63.2064 51.8344 63.6118 51.6713C64.0358 51.5075 64.499 51.1184 65.0012 50.5038C65.5221 49.8885 66.0139 48.9661 66.4767 47.7364C66.6133 47.3583 66.7143 47.028 66.7794 46.7456C66.844 46.4446 66.8796 46.1166 66.8863 45.7615C66.8415 45.5389 66.8442 45.3427 66.8945 45.1729C66.9628 44.9838 67.1067 44.8202 67.3262 44.682C67.3976 44.5862 67.4974 44.4988 67.6255 44.4198C67.7529 44.3221 67.8369 44.3193 67.8773 44.4113L68.3241 44.3682C68.3981 44.347 68.4464 44.3921 68.4688 44.5034C68.5092 44.5954 68.5774 44.6772 68.6732 44.7486C68.8841 44.9096 68.9523 45.2715 68.8779 45.8344C68.8035 46.3972 68.5688 47.1896 68.1737 48.2115C67.845 48.9883 67.622 49.5748 67.5046 49.971C67.4059 50.3666 67.3535 50.7512 67.3475 51.125C67.3588 51.4608 67.4348 51.7757 67.5755 52.0698C67.7161 52.3639 67.9305 52.6275 68.2185 52.8606C68.4281 52.9843 68.5451 53.1297 68.5694 53.297C68.6124 53.4637 68.6283 53.6592 68.6172 53.8837C68.5856 54.0529 68.4784 54.1966 68.2956 54.3148C68.1308 54.4138 67.9365 54.467 67.7126 54.4746C67.4888 54.4821 67.2813 54.4238 67.0904 54.2995Z" fill="#2F94F9"/>
<path d="M100.175 30.8467C100.144 30.4742 100.175 30.0342 100.27 29.5267C100.384 29.0186 100.526 28.5188 100.696 28.0275C100.866 27.5361 101.021 27.1387 101.16 26.8352C101.171 26.6107 101.23 26.4126 101.336 26.2409C101.461 26.0686 101.557 25.8786 101.625 25.6708C101.675 25.501 101.797 25.2261 101.989 24.8461C102.181 24.4474 102.392 24.048 102.621 23.6481C102.851 23.2481 103.037 22.9617 103.181 22.7887C103.21 22.5636 103.288 22.3742 103.414 22.2205C103.539 22.0482 103.654 21.8762 103.76 21.7045C103.912 21.7741 104.035 21.826 104.13 21.8602C104.224 21.8943 104.34 21.9838 104.475 22.1287C104.573 22.2561 104.68 22.3739 104.795 22.4821C104.929 22.571 105.027 22.7171 105.09 22.9204C105.096 23.0883 105.036 23.2584 104.911 23.4307C104.804 23.5837 104.698 23.7368 104.591 23.8898C104.412 24.12 104.278 24.3019 104.189 24.4357C104.118 24.5501 104.029 24.6932 103.923 24.8649C103.835 25.0173 103.685 25.2651 103.472 25.6085C103.567 25.6427 103.671 25.6858 103.785 25.738C103.898 25.7716 104.001 25.7868 104.094 25.7836C104.262 25.7593 104.421 25.7726 104.572 25.8235C104.723 25.8745 104.874 25.9347 105.026 26.0043C105.177 26.0552 105.328 26.0968 105.479 26.1291C105.705 26.1962 105.943 26.3376 106.193 26.5533C106.462 26.7683 106.704 27.003 106.918 27.2572C107.132 27.5115 107.269 27.7216 107.331 27.8876C107.39 27.979 107.471 28.1538 107.573 28.4118C107.693 28.6505 107.719 28.8738 107.651 29.0815C107.635 29.1568 107.62 29.2414 107.604 29.3353C107.589 29.4292 107.582 29.5228 107.585 29.616C107.319 30.0173 107.105 30.3326 106.945 30.5622C106.785 30.7917 106.504 31.044 106.102 31.319C105.498 31.6943 104.892 31.9856 104.282 32.1929C103.692 32.3996 103.088 32.504 102.472 32.5061C102.379 32.5093 102.286 32.5404 102.195 32.5995C102.122 32.6394 102.037 32.6235 101.941 32.5521C101.568 32.5647 101.285 32.4715 101.091 32.2726C100.898 32.0737 100.694 31.8471 100.48 31.5928C100.324 31.3926 100.222 31.1439 100.175 30.8467ZM101.745 30.8777C102.082 30.9037 102.389 30.8747 102.666 30.7906C102.962 30.7059 103.249 30.6309 103.527 30.5655C103.842 30.4988 104.174 30.3662 104.522 30.1677C104.87 29.9505 105.179 29.6973 105.449 29.408C105.738 29.0994 105.923 28.7943 106.007 28.4927C106.058 28.3415 106.061 28.1733 106.018 27.988C105.974 27.8027 105.886 27.6749 105.753 27.6047C105.562 27.4804 105.371 27.3561 105.18 27.2318C104.989 27.1075 104.763 27.0591 104.502 27.0866C104.447 27.1071 104.382 27.1093 104.307 27.0932C104.249 27.0578 104.192 27.0317 104.136 27.0149C103.985 26.9826 103.835 26.969 103.686 26.974C103.556 26.9785 103.416 27.0018 103.268 27.0442C103.102 27.1058 102.946 27.1671 102.798 27.2281C102.651 27.2891 102.591 27.4406 102.617 27.6825C102.619 27.7198 102.574 27.7867 102.484 27.8831C102.448 27.9217 102.37 28.1111 102.251 28.4513C102.151 28.7909 102.051 29.1491 101.951 29.526C101.852 29.9029 101.777 30.1763 101.727 30.346C101.711 30.4213 101.704 30.5056 101.707 30.5988C101.728 30.6728 101.741 30.7658 101.745 30.8777Z" fill="#2F94F9"/>
<path d="M94.7439 32.6831C94.5051 32.8032 94.2269 32.8593 93.9091 32.8513C93.5913 32.8434 93.1587 32.7553 92.6114 32.587C92.5741 32.5882 92.4889 32.5537 92.3558 32.4835C92.2413 32.4127 92.1169 32.3235 91.9825 32.216C91.8662 32.0891 91.7682 31.9524 91.6885 31.8056C91.3756 31.3866 91.2329 30.7564 91.2605 29.915C91.2882 29.0736 91.5154 28.0573 91.9421 26.8663C92.0633 26.582 92.2472 26.221 92.4939 25.7831C92.7593 25.3445 93.0165 24.9436 93.2658 24.5803C93.533 24.1978 93.7217 23.9766 93.8317 23.9169C93.8317 23.9169 93.9331 23.8761 94.1358 23.7945C94.3385 23.713 94.5956 23.5829 94.907 23.4043C94.9991 23.3639 95.1004 23.3231 95.2111 23.282C95.3404 23.2403 95.4701 23.2079 95.6 23.1848C95.73 23.1618 95.8419 23.158 95.9358 23.1735C96.3096 23.1796 96.6968 23.3066 97.0974 23.5545C97.516 23.7832 97.8615 24.061 98.1341 24.388C98.4059 24.6964 98.4993 24.9734 98.4142 25.2191C98.4155 25.2564 98.362 25.3329 98.2539 25.4486C98.1638 25.545 98.0553 25.6514 97.9285 25.7678C97.8197 25.8648 97.7295 25.9612 97.6581 26.057C97.5686 26.1721 97.4395 26.2232 97.271 26.2102C97.1211 26.1966 96.9787 26.1267 96.8437 26.0005C96.7267 25.855 96.6551 25.6707 96.6289 25.4474C96.5866 25.2994 96.4419 25.1642 96.195 25.0418C95.9667 24.9188 95.8526 24.8573 95.8526 24.8573C95.7033 24.8623 95.4935 25.0095 95.2231 25.2987C94.9707 25.5687 94.7203 25.8947 94.4717 26.2766C94.1472 26.6238 93.8715 27.0346 93.6448 27.5092C93.4173 27.9651 93.2359 28.4008 93.1005 28.8163C92.9832 29.2125 92.8993 29.4955 92.849 29.6653C92.7807 29.8544 92.7802 30.1159 92.8475 30.4498C92.9148 30.7837 92.987 30.9867 93.0641 31.0588C93.14 31.0936 93.3269 31.0966 93.6248 31.0679C93.9413 31.0386 94.3132 30.9887 94.7404 30.9182C95.1669 30.8291 95.5839 30.731 95.9911 30.6239C96.3984 30.5167 96.7308 30.4028 96.9882 30.282C97.3351 30.0462 97.6385 29.9052 97.8984 29.8591C98.1584 29.813 98.3542 29.8064 98.4861 29.8393C98.6938 29.907 98.8186 30.0055 98.8603 30.1348C98.902 30.2642 98.8604 30.415 98.7355 30.5873C98.6099 30.7409 98.3914 30.9071 98.0799 31.0857C97.7864 31.245 97.5216 31.422 97.2854 31.6168C97.0671 31.7922 96.9596 31.9266 96.9628 32.0199C96.8881 32.0224 96.8051 32.0532 96.7137 32.1123C96.6404 32.1522 96.5754 32.1637 96.5188 32.1469C96.4815 32.1482 96.3332 32.1812 96.0739 32.246C95.8146 32.3108 95.5463 32.3852 95.269 32.4693C95.0103 32.5527 94.8353 32.624 94.7439 32.6831Z" fill="#2F94F9"/>
<path d="M84.4144 33.0873C83.6767 32.8133 83.1871 32.4189 82.9456 31.9041C82.7222 31.37 82.6568 30.5411 82.7497 29.4173C82.7675 28.8377 82.7732 28.4546 82.7669 28.2681C82.7606 28.0815 82.6517 27.8984 82.4402 27.7188C82.3817 27.6461 82.2757 27.5469 82.122 27.4214C81.987 27.2952 81.9272 27.1851 81.9428 27.0912C81.9197 26.9613 81.9243 26.821 81.9566 26.6705C81.9882 26.5013 82.0414 26.4155 82.116 26.413C82.1906 26.4105 82.2646 26.3893 82.338 26.3495C82.43 26.309 82.5139 26.3062 82.5898 26.341C82.6644 26.3384 82.7487 26.3449 82.8426 26.3605C82.9365 26.376 82.9847 26.421 82.9873 26.4956C83.0663 26.6237 83.1882 26.6383 83.3529 26.5393C83.5171 26.4217 83.6861 26.1732 83.8601 25.7938C84.0366 25.489 84.269 25.1823 84.5575 24.8738C84.8645 24.5646 85.1632 24.2837 85.4536 24.0311C85.7619 23.7592 86.0168 23.5638 86.2182 23.4449C86.3102 23.4045 86.4486 23.3531 86.6333 23.2909C86.8179 23.2286 87.0122 23.1754 87.2162 23.1311C87.4388 23.0862 87.6251 23.0706 87.7749 23.0842C88.1114 23.0916 88.3944 23.1754 88.6239 23.3358C88.8721 23.4955 89.1026 23.6838 89.3154 23.9008C89.5636 24.0605 89.7204 24.2793 89.7858 24.5573C89.8698 24.8346 89.8986 25.1325 89.8719 25.4509C89.8453 25.7693 89.7711 26.0613 89.6494 26.3269C89.5997 26.5153 89.4487 26.7445 89.1963 27.0145C88.9439 27.2845 88.6539 27.5465 88.3263 27.8003C87.9987 28.0542 87.6968 28.2418 87.4208 28.3632C87.1801 28.4273 86.8646 28.4847 86.474 28.5352C86.1022 28.5851 85.7483 28.6157 85.4125 28.6271C85.0947 28.6191 84.8789 28.589 84.7651 28.5369C84.632 28.4666 84.5329 28.5727 84.4677 28.8551C84.4025 29.1374 84.3601 29.5404 84.3404 30.064C84.3169 30.4757 84.327 30.7742 84.3706 30.9595C84.4142 31.1448 84.4559 31.2742 84.4958 31.3475C84.6308 31.4737 84.8137 31.6356 85.0444 31.8333C85.2933 32.0117 85.63 32.0283 86.0547 31.8833C86.406 31.778 86.743 31.5238 87.0656 31.1207C87.4068 30.717 87.7226 30.3888 88.0129 30.1362C88.0831 30.0031 88.2019 29.9244 88.3691 29.9001C88.5544 29.8565 88.7506 29.8592 88.9577 29.9082C89.1674 30.0319 89.2567 30.1876 89.2257 30.3755C89.2127 30.544 89.1282 30.8083 88.9723 31.1685C88.9207 31.3009 88.7958 31.4733 88.5975 31.6854C88.4172 31.8783 88.2093 32.0814 87.9737 32.2948C87.7561 32.4889 87.5559 32.6451 87.3731 32.7633C86.8235 33.0807 86.3065 33.2569 85.8221 33.2919C85.337 33.3083 84.8678 33.2401 84.4144 33.0873ZM85.8738 27.3508C86.281 27.2437 86.6053 27.1673 86.8466 27.1219C87.0878 27.0764 87.3176 26.9659 87.5358 26.7904C87.7534 26.5963 88.0216 26.2417 88.3404 25.7267C88.4081 25.5189 88.4198 25.3131 88.3756 25.1091C88.35 24.9046 88.2986 24.7662 88.2215 24.6941C88.0473 24.5132 87.8402 24.4642 87.6002 24.547C87.3782 24.6105 87.1671 24.7203 86.9669 24.8765C86.8382 24.9369 86.6471 25.0834 86.3934 25.3161C86.1578 25.5295 85.9235 25.7802 85.6904 26.0682C85.4567 26.3376 85.269 26.5868 85.1273 26.8157C84.9856 27.0446 84.9527 27.1764 85.0286 27.2112C84.9938 27.2871 85.0979 27.3303 85.3411 27.3407C85.6029 27.3506 85.7805 27.3539 85.8738 27.3508Z" fill="#2F94F9"/>
<path d="M66.932 33.3134C66.8735 33.2407 66.8144 33.1493 66.7547 33.0392C66.7136 32.9285 66.6918 32.8359 66.6892 32.7613C66.688 32.724 66.6771 32.6776 66.6565 32.6223C66.6547 32.5663 66.6164 32.5396 66.5418 32.5421C66.4839 32.488 66.514 32.2722 66.632 31.8947C66.768 31.4979 66.9395 31.0438 67.1463 30.5326C67.3719 30.0207 67.598 29.5274 67.8248 29.0529C68.0696 28.559 68.2713 28.1693 68.4297 27.8838C68.5211 27.8247 68.5746 27.7482 68.5901 27.6543C68.6236 27.5411 68.6217 27.4851 68.5844 27.4863C68.5844 27.4863 68.6282 27.4008 68.7158 27.2298C68.8215 27.0394 68.9014 26.9153 68.9554 26.8575C69.0959 26.5913 69.199 26.3263 69.2648 26.0626C69.33 25.7802 69.3408 25.5464 69.2972 25.3611C69.2194 25.2703 69.1345 25.2452 69.0425 25.2856C68.9504 25.3261 68.9044 25.3463 68.9044 25.3463C68.8304 25.3675 68.7198 25.4086 68.5724 25.4696C68.4431 25.5113 68.3237 25.5714 68.2143 25.6498C67.7953 25.9628 67.5108 26.1124 67.3609 26.0988C67.2104 26.0665 67.0343 25.8297 66.8327 25.3882C66.7511 25.1855 66.7181 25.0372 66.7336 24.9433C66.7491 24.8494 66.8203 24.7443 66.9471 24.6279C67.0919 24.4923 67.229 24.4036 67.3584 24.3619C67.4871 24.3015 67.5878 24.2421 67.6605 24.1836C67.8613 24.0461 68.0261 23.9472 68.1548 23.8868C68.3021 23.8258 68.4128 23.7847 68.4868 23.7635C68.9668 23.5979 69.3763 23.5561 69.7153 23.638C70.0542 23.72 70.3143 23.954 70.4954 24.3401C70.7673 24.6485 70.9102 25.0078 70.924 25.4183C70.9372 25.81 70.8221 26.2715 70.5785 26.8027L70.3128 27.2319C70.2258 27.4216 70.2103 27.5155 70.2663 27.5136C70.3409 27.5111 70.4227 27.443 70.5115 27.3093C70.565 27.2327 70.6732 27.117 70.836 26.9621C70.9989 26.8072 71.1083 26.7288 71.1643 26.7269C71.1643 26.7269 71.1826 26.717 71.2193 26.697C71.2746 26.6765 71.3001 26.6009 71.2957 26.4703C71.3498 26.4125 71.4039 26.3546 71.4579 26.2968C71.5307 26.2383 71.567 26.209 71.567 26.209C71.6417 26.2065 71.7788 26.1178 71.9783 25.943C72.1959 25.7489 72.4498 25.5255 72.7401 25.2729C72.9403 25.1168 73.1244 25.0358 73.2923 25.0302C73.717 24.8851 74.0668 25.0134 74.3418 25.415C74.6355 25.816 74.7934 26.343 74.8154 26.9959L74.2788 28.5269L75.2446 27.2616C75.3515 27.1086 75.4591 26.9742 75.5672 26.8585C75.694 26.7422 75.8028 26.6451 75.8936 26.5673C75.9265 26.4355 75.9799 26.359 76.0539 26.3378C76.1279 26.3166 76.1649 26.306 76.1649 26.306C76.1649 26.306 76.1836 26.3054 76.2209 26.3041C76.2576 26.2842 76.275 26.2463 76.2731 26.1903C76.3639 26.1125 76.4643 26.0438 76.5743 25.984C76.6837 25.9056 76.7558 25.8285 76.7906 25.7526C77.1034 25.6113 77.3919 25.5829 77.6562 25.6674C77.9199 25.7332 78.1517 25.9588 78.3515 26.3443C78.4896 26.5638 78.5708 26.7571 78.5952 26.9244C78.6195 27.0917 78.6373 27.3432 78.6487 27.679C78.6208 27.9601 78.591 28.1853 78.5594 28.3544C78.5458 28.5043 78.5325 28.6635 78.5195 28.8321C78.5065 29.0006 78.4864 29.2347 78.4591 29.5345C78.3895 29.6863 78.3482 29.8464 78.3353 30.0149C78.3409 30.1828 78.3463 30.3414 78.3513 30.4907C78.3595 30.7332 78.3745 30.9008 78.3963 30.9934C78.4175 31.0674 78.4933 31.1022 78.6239 31.0978C78.8832 31.033 79.2333 30.8905 79.6741 30.6702C80.133 30.4306 80.4709 30.2044 80.6878 29.9916C80.9588 29.721 81.197 29.5822 81.4022 29.5753C81.6254 29.549 81.7688 29.6469 81.8323 29.8689C81.8721 29.9423 81.8125 30.1124 81.6534 30.3792C81.513 30.6455 81.3443 30.9033 81.1472 31.1528C80.9688 31.4016 80.833 31.5276 80.7397 31.5307C80.6838 31.5326 80.6204 31.5908 80.5495 31.7052C80.478 31.801 80.3966 31.8785 80.3052 31.9376C80.179 32.0726 80.0525 32.1983 79.9257 32.3146C79.8176 32.4303 79.6888 32.4907 79.5396 32.4957C79.465 32.4983 79.3726 32.5294 79.2626 32.5891C79.1706 32.6296 79.0593 32.652 78.9287 32.6564C78.744 32.7187 78.4539 32.7005 78.0583 32.6018C77.6814 32.5024 77.4301 32.2494 77.3043 31.8428C77.2228 31.6401 77.1464 31.3158 77.0754 30.8699C77.0037 30.4054 76.9973 29.9387 77.0561 29.4698C77.1194 29.1314 77.1557 28.822 77.1649 28.5416C77.1741 28.2611 77.2048 28.064 77.257 27.9501C77.2551 27.8942 77.2507 27.7636 77.2438 27.5584C77.2362 27.3345 77.2045 27.2235 77.1485 27.2254C77.0739 27.2279 76.9014 27.3738 76.631 27.6631C76.3786 27.9331 76.0728 28.2796 75.7135 28.7026C75.3729 29.125 75.0329 29.5661 74.6935 30.0258C74.3542 30.4855 74.0786 30.8963 73.8666 31.2584C73.7057 31.4692 73.5649 31.7261 73.4444 32.029C73.3239 32.3319 73.2363 32.503 73.1815 32.5422C73.056 32.6958 72.898 32.7198 72.7077 32.6142C72.536 32.5079 72.3715 32.3361 72.214 32.0986C72.1543 31.9885 72.1138 31.8965 72.0927 31.8225C72.0709 31.7299 72.0668 31.6086 72.0804 31.4587C72.112 31.2895 72.1691 31.0448 72.2517 30.7245C72.353 30.4036 72.4871 29.9508 72.6541 29.3662C72.838 28.7249 72.996 28.1499 73.1282 27.6412C73.2785 27.1132 73.3537 26.8491 73.3537 26.8491C73.3511 26.7745 73.2137 26.8539 72.9414 27.0872C72.6685 27.3018 72.3509 27.574 71.9884 27.9038C71.8275 28.1147 71.558 28.4319 71.1801 28.8556C70.8022 29.2792 70.3888 29.7601 69.94 30.2982C69.4913 30.8363 69.0621 31.4018 68.6525 31.9946C68.1373 32.7778 67.7706 33.2571 67.5524 33.4325C67.3528 33.6074 67.146 33.5677 66.932 33.3134Z" fill="#2F94F9"/>
<path d="M62.4124 34.1658C61.7892 33.9627 61.2993 33.5589 60.9427 32.9546C60.5855 32.3317 60.3502 31.7232 60.2367 31.1294C60.2181 31.13 60.1634 31.1692 60.0726 31.247C59.9999 31.3055 59.9097 31.4019 59.8022 31.5363C59.5498 31.8063 59.2344 32.1438 58.8558 32.5488C58.4766 32.9351 58.0775 33.2848 57.6585 33.5978C57.2575 33.8914 56.8698 34.0259 56.4955 34.0012C56.3431 33.913 56.181 33.8157 56.0093 33.7094C55.8557 33.5839 55.702 33.4583 55.5484 33.3328C55.4712 33.2607 55.4034 33.1882 55.3449 33.1155C55.3051 33.0421 55.265 32.9594 55.2245 32.8674C55.0004 32.3147 54.8718 31.8241 54.8386 31.3956C54.8049 30.9485 54.8367 30.5085 54.9342 30.0756C55.0497 29.6235 55.1822 29.1241 55.3319 28.5774C55.3486 28.5208 55.4061 28.2854 55.5042 27.8712C55.6209 27.4563 55.7544 26.9849 55.9047 26.4568C56.055 25.9288 56.1978 25.4571 56.3332 25.0416C56.4873 24.6255 56.6003 24.3789 56.6724 24.3017C56.7284 24.2998 56.7844 24.2979 56.8403 24.2961C56.9143 24.2749 56.9793 24.2634 57.0353 24.2615C57.2218 24.2552 57.364 24.3157 57.4617 24.4432C57.5401 24.5526 57.6362 24.6334 57.75 24.6856C57.8825 24.7372 57.9783 24.8086 58.0374 24.9C58.137 25.0834 58.0852 25.4867 57.8821 26.11C57.6784 26.7145 57.4588 27.4036 57.2235 28.1773C57.0042 28.8758 56.8226 29.5823 56.6786 30.2969C56.534 30.9929 56.5442 31.5715 56.7092 32.0329C56.8398 32.0285 57.0132 31.9106 57.2296 31.6791C57.4639 31.4284 57.6448 31.2542 57.7722 31.1565C57.955 31.0383 58.1903 30.8156 58.4781 30.4883C58.7839 30.1418 59.0804 29.7956 59.3676 29.4498C59.6541 29.0852 59.8502 28.8078 59.9559 28.6174C60.0267 28.503 60.1317 28.294 60.2709 27.9905C60.4094 27.6683 60.5474 27.3274 60.6846 26.9679C60.84 26.5891 60.9589 26.2396 61.0415 25.9193C61.1427 25.5984 61.1818 25.3729 61.1587 25.243C61.1338 25.057 61.1477 24.9165 61.2005 24.8213C61.2714 24.7069 61.3799 24.6005 61.526 24.5022C61.6192 24.499 61.7219 24.4955 61.8338 24.4918C61.9457 24.488 62.0486 24.4939 62.1426 24.5094C62.2589 24.6362 62.3843 24.7533 62.5186 24.8609C62.653 24.9684 62.7877 25.0853 62.9227 25.2115C63.0279 25.5628 62.988 26.0404 62.8029 26.6443C62.6179 27.2482 62.4344 27.8988 62.2524 28.596C62.0705 29.2932 61.9635 29.9972 61.9315 30.708C61.8988 31.4002 62.1058 32.0002 62.5525 32.5081C62.9387 32.327 63.2318 32.1583 63.432 32.0021C63.6502 31.8267 63.8591 31.6515 64.0586 31.4767C64.2575 31.2832 64.5124 31.0878 64.8233 30.8906C65.0136 30.9962 65.1611 31.2154 65.2657 31.548C65.3703 31.8807 65.4261 32.1496 65.433 32.3549C65.3603 32.4133 65.2875 32.4718 65.2148 32.5303C65.1601 32.5695 65.1153 32.6271 65.0806 32.7029C64.9768 32.9492 64.7611 33.1993 64.4335 33.4532C64.1059 33.707 63.758 33.9149 63.3899 34.0767C63.0212 34.2199 62.6954 34.2496 62.4124 34.1658Z" fill="#2F94F9"/>
<path d="M44.3279 35.0004C44.252 34.9656 44.1469 34.8944 44.0125 34.7869C43.8968 34.6787 43.7904 34.5702 43.6934 34.4614C43.6355 34.4074 43.5873 34.3623 43.5487 34.3262C43.5095 34.2715 43.471 34.2355 43.433 34.2181C43.4286 34.0875 43.4535 33.9933 43.5075 33.9354C43.5803 33.8769 43.6527 33.8091 43.7248 33.732C43.7957 33.6175 43.915 33.5575 44.0829 33.5518C44.2508 33.5461 44.3799 33.4951 44.47 33.3986C44.7976 33.1448 45.1343 32.8813 45.4799 32.6081C45.8256 32.335 46.1137 32.0171 46.3442 31.6544C46.5928 31.2725 46.8405 30.8626 47.0872 30.4247C47.3339 29.9868 47.5716 29.5585 47.8003 29.1399C47.8705 29.0068 47.9839 28.7695 48.1404 28.428C48.297 28.0866 48.4446 27.7547 48.5831 27.4325C48.7397 27.0911 48.8251 26.8547 48.8394 26.7235C48.6696 26.6732 48.5094 26.6319 48.3589 26.5996C48.2264 26.5481 48.0943 26.5058 47.9624 26.4729C47.7857 26.2174 47.6874 26.0713 47.6675 26.0346C47.6469 25.9793 47.6316 25.8024 47.6215 25.5039C47.614 25.28 47.7305 25.136 47.9712 25.0718C48.5078 24.923 48.9807 24.823 49.3898 24.7718C49.8177 24.72 50.2349 24.6312 50.6416 24.5055C50.9002 24.422 51.2165 24.3833 51.5902 24.3894C51.964 24.3955 52.3399 24.4668 52.7181 24.6035C52.8885 24.6724 53.0316 24.761 53.1473 24.8692C53.263 24.9773 53.37 25.1044 53.4683 25.2505C53.7222 25.5782 53.8532 25.8632 53.8614 26.1058C53.8882 26.3477 53.8868 26.5812 53.857 26.8063C53.8272 27.0315 53.8637 27.2824 53.9664 27.5591C53.8529 28.0672 53.7374 28.5193 53.62 28.9155C53.502 29.293 53.3927 29.6516 53.2921 29.9912C53.1909 30.3121 53.0983 30.6141 53.0145 30.8971C52.9306 31.1801 52.8655 31.4624 52.8189 31.7441C52.7544 32.0452 52.6712 32.3468 52.5693 32.6491C52.4674 32.9513 52.3939 33.262 52.3486 33.581C52.3195 33.8248 52.2135 34.0058 52.0308 34.1241C51.8666 34.2417 51.6835 34.3506 51.4815 34.4508C51.4075 34.472 51.2762 34.4577 51.0878 34.408C50.9174 34.3391 50.7553 34.2418 50.6017 34.1163C50.5388 33.9129 50.5138 33.727 50.5268 33.5585C50.5398 33.3899 50.5715 33.2208 50.6218 33.051C50.6727 32.8998 50.764 32.5606 50.8956 32.0332C51.0272 31.5058 51.1753 30.9124 51.3398 30.2532C51.5043 29.5939 51.6611 28.9816 51.8101 28.4163C51.9592 27.8509 52.0579 27.4554 52.1063 27.2296C52.1895 26.928 52.2099 26.7031 52.1676 26.5552C52.1439 26.4065 52.1112 26.2676 52.0695 26.1382C51.6726 26.0022 51.4006 25.9647 51.2532 26.0257C51.1239 26.0674 50.9572 26.1104 50.7533 26.1546C50.6625 26.2324 50.5907 26.3189 50.5379 26.414C50.4851 26.5092 50.4509 26.6037 50.4354 26.6977C50.2484 27.2456 50.0857 27.6807 49.9471 28.0029C49.8272 28.3244 49.7064 28.618 49.5846 28.8836C49.4622 29.1305 49.3221 29.4061 49.1643 29.7102C49.0251 30.0138 48.8431 30.4308 48.6182 30.9614C48.4802 31.3022 48.3041 31.6163 48.0896 31.9037C47.8939 32.1905 47.7174 32.4953 47.5602 32.8181L47.2656 33.2203C47.2842 33.2196 47.2121 33.2968 47.0492 33.4517C46.8864 33.6066 46.7235 33.7615 46.5606 33.9164C46.4164 34.0707 46.3443 34.1479 46.3443 34.1479L45.4995 34.8488C45.4087 34.9265 45.2514 34.9692 45.0275 34.9767C44.8037 34.9843 44.5705 34.9922 44.3279 35.0004Z" fill="#2F94F9"/>
<path d="M42.4396 34.1956C42.0592 34.5446 41.6087 34.7559 41.0882 34.8295C40.5864 34.9025 40.0895 34.8445 39.5975 34.6557C39.1049 34.4482 38.6925 34.1259 38.3602 33.6889C38.0292 33.2891 37.8082 32.8297 37.6973 32.3104C37.5858 31.7726 37.5529 31.0733 37.5985 30.2126C37.6299 29.4831 37.8386 28.7476 38.2245 28.0062C38.6097 27.2461 39.0818 26.5671 39.6406 25.9693C40.2181 25.3708 40.7922 24.9499 41.363 24.7065C41.6365 24.5105 41.8669 24.4187 42.0541 24.431C42.2593 24.4241 42.5677 24.4324 42.9794 24.4558C43.4104 24.4973 43.7304 24.5706 43.9394 24.6756C44.167 24.78 44.3493 24.9232 44.4862 25.1054C44.7755 25.3758 44.9715 25.6493 45.0742 25.926C45.1763 26.1841 45.2318 26.4437 45.2406 26.7049C45.1798 27.1178 44.917 27.631 44.452 28.2443C44.0052 28.8384 43.4056 29.3349 42.6533 29.7338C42.2472 29.8783 41.8014 29.9494 41.3157 29.9471C40.83 29.9448 40.4248 29.837 40.1001 29.6239C39.7406 29.4866 39.5083 29.5224 39.4033 29.7314C39.2977 29.9218 39.2108 30.3916 39.1427 31.141C39.092 31.8525 39.1656 32.373 39.3635 32.7025C39.5608 33.0133 39.8189 33.1914 40.138 33.2367C40.5136 33.2987 40.8047 33.3449 41.0111 33.3753C41.2356 33.3864 41.5033 33.2933 41.8142 33.096C42.1064 32.8994 42.2895 32.7905 42.3635 32.7693C42.4368 32.7295 42.4915 32.6903 42.5276 32.6517C42.5817 32.5939 42.6988 32.4685 42.8791 32.2757C43.0053 32.1407 43.1048 32.0439 43.1775 31.9854C43.2496 31.9083 43.3323 31.8681 43.4256 31.865C43.5188 31.8619 43.6044 31.9057 43.6821 31.9964C43.7593 32.0685 43.8358 32.122 43.9117 32.1568C44.0982 32.1505 44.1393 32.2612 44.035 32.4888C43.9492 32.7158 43.7625 32.9929 43.4747 33.3202C43.1862 33.6287 42.8412 33.9205 42.4396 34.1956ZM42.2114 28.2639C42.4135 28.1637 42.6236 28.0259 42.8418 27.8504C43.0594 27.6563 43.2394 27.4541 43.3817 27.2439C43.542 27.0143 43.6197 26.8249 43.6147 26.6757C43.6059 26.4145 43.4773 26.204 43.2292 26.0443C42.9803 25.8659 42.6156 25.8502 42.1349 25.9972C41.9316 26.0601 41.7031 26.2079 41.4495 26.4406C41.1952 26.6546 40.9513 26.8963 40.7175 27.1657C40.5025 27.4344 40.3238 27.6739 40.1815 27.8841C40.0578 28.0938 40.0153 28.2166 40.0538 28.2527C40.1129 28.344 40.274 28.4133 40.5371 28.4605C40.7996 28.489 41.089 28.4885 41.4056 28.4592C41.7407 28.4292 42.0094 28.3641 42.2114 28.2639Z" fill="#2F94F9"/>
<path d="M17.3176 41.6271C17.1428 41.4275 16.9876 41.2553 16.852 41.1105C16.717 40.9843 16.619 40.8475 16.5579 40.7002C16.5162 40.5708 16.5115 40.4309 16.5438 40.2804C16.545 40.3177 16.5786 40.2045 16.6444 39.9408C16.7108 39.6958 16.7841 39.3758 16.8641 38.9809C16.9635 38.604 17.0352 38.2373 17.0792 37.881L17.4841 35.7661C17.405 35.638 17.4097 35.4978 17.4979 35.3454C17.6042 35.1737 17.7198 35.0017 17.8447 34.8294L19.7092 34.4583C20.0052 34.3736 20.3344 34.1664 20.6968 33.8367C21.0779 33.5063 21.4391 33.1392 21.7803 32.7355C22.1216 32.3318 22.3991 31.9769 22.6129 31.6708C23.2182 30.7912 23.7219 29.9431 24.1239 29.1264C24.544 28.2904 24.9074 27.4377 25.2143 26.5682C25.5392 25.6794 25.8435 24.7353 26.1273 23.7358C26.4291 22.717 26.7644 21.5851 27.1333 20.3399C27.2962 20.185 27.4083 19.9104 27.4697 19.5161C27.5311 19.1218 27.5587 18.8314 27.5524 18.6448C27.382 18.5759 27.2414 18.5619 27.1307 18.603C27.0201 18.6441 26.8895 18.6485 26.739 18.6162C26.4354 18.4771 26.2133 18.2604 26.0727 17.9663C25.9507 17.6716 25.9229 17.4017 25.9893 17.1567C26.082 17.1349 26.1849 17.1408 26.2981 17.1743C26.4106 17.1892 26.5509 17.1938 26.7188 17.1881C26.8867 17.1824 27.082 17.1572 27.3046 17.1123C27.4899 17.0687 27.7775 17.0123 28.1673 16.9431C28.5572 16.8739 28.9191 16.8057 29.2531 16.7384C29.6056 16.6705 29.8093 16.6169 29.864 16.5777C30.645 16.4766 31.3334 16.3974 31.9291 16.3399C32.5429 16.2632 33.1293 16.206 33.6884 16.1685C34.2468 16.1123 34.8525 16.0732 35.5054 16.0511C35.8226 16.0404 36.1149 16.124 36.3824 16.3017C36.6685 16.4788 36.843 16.669 36.9059 16.8724C36.9315 17.077 36.8798 17.4803 36.7507 18.0823C36.6215 18.6843 36.4496 19.3999 36.2348 20.2289C36.0199 21.058 35.7787 21.9346 35.511 22.8588C35.2428 23.7644 34.9552 24.6519 34.6483 25.5214C34.3601 26.3903 34.0871 27.1559 33.8293 27.8184C33.6958 28.2898 33.535 28.7808 33.3467 29.2915C33.1772 29.8015 32.9989 30.3305 32.812 30.8784C32.7474 31.1794 32.6645 31.4904 32.5633 31.8113C32.4801 32.113 32.3888 32.4522 32.2894 32.8291C32.3312 32.9585 32.3903 33.0499 32.4668 33.1033C32.5427 33.1381 32.7013 33.1328 32.9425 33.0873C33.4244 32.9776 33.7114 32.9026 33.8034 32.8621C33.9135 32.8024 34.0226 32.7146 34.1307 32.5989C34.1488 32.5796 34.2044 32.5684 34.2977 32.5653C34.4096 32.5615 34.5035 32.577 34.5794 32.6118C34.9756 32.7292 35.2807 32.915 35.4947 33.1692C35.7081 33.4048 35.8174 33.5973 35.8224 33.7465C35.8052 34.3448 35.678 35.0028 35.4408 35.7205C35.2228 36.4563 34.9482 37.1753 34.617 37.8775C34.3045 38.5791 34.0084 39.2148 33.7288 39.7845C33.6624 40.0296 33.6295 40.1614 33.6301 40.1801C33.65 40.2168 33.6513 40.2541 33.6339 40.292C33.6352 40.3294 33.5469 40.4817 33.3692 40.7492C33.261 40.8649 33.1121 40.8793 32.9224 40.7923C32.7513 40.7047 32.5787 40.5705 32.4045 40.3896C32.2496 40.2267 32.1429 40.1089 32.0844 40.0362C32.0215 39.8328 32.0143 39.6183 32.0627 39.3925C32.1111 39.1668 32.2223 38.8642 32.3962 38.4848C32.7454 37.7632 33.0766 37.061 33.3898 36.378C33.7029 35.6951 33.8983 35.1188 33.9758 34.6493L33.7724 34.432C33.6996 34.4905 33.468 34.545 33.0775 34.5956C32.6863 34.6274 32.2485 34.6609 31.7641 34.6959C31.2983 34.7303 30.8885 34.7628 30.5347 34.7934C30.1989 34.8048 30.031 34.8104 30.031 34.8104C29.9352 34.739 29.85 34.7045 29.7753 34.707C29.7187 34.6902 29.5795 34.7136 29.3575 34.7771L27.5964 34.8926C27.4658 34.897 27.3538 34.9008 27.2606 34.9039C27.1666 34.8884 27.0644 34.9012 26.9537 34.9423C26.5831 35.0295 26.2952 35.0766 26.0899 35.0835C25.9028 35.0711 25.6049 35.0999 25.1963 35.1697C25.159 35.1709 24.9731 35.1959 24.6386 35.2445C24.304 35.2932 23.9042 35.344 23.439 35.3971C22.9925 35.4495 22.5464 35.5112 22.1005 35.5823C21.6727 35.6341 21.3101 35.6837 21.0129 35.7311C20.7337 35.7592 20.6127 35.7726 20.6501 35.7713C20.2023 35.7865 19.8874 35.8625 19.7052 35.9993C19.5237 36.1549 19.3123 36.2554 19.071 36.3009C18.9059 36.9415 18.7416 37.6101 18.5784 38.3067C18.4344 39.0213 18.3056 39.6326 18.192 40.1407C18.0971 40.6482 18.0412 40.9303 18.0245 40.9869C18.0102 41.1181 17.9487 41.2322 17.8399 41.3293C17.7504 41.4444 17.5763 41.5436 17.3176 41.6271ZM22.862 34.0718C23.1232 34.063 23.533 34.0305 24.0914 33.9743C24.6685 33.9174 25.3012 33.8494 25.9896 33.7701C26.6966 33.6902 27.3664 33.6116 27.9988 33.5342C28.6492 33.4376 29.1977 33.363 29.6442 33.3106C30.0907 33.2582 30.3323 33.222 30.3689 33.2021C30.4632 32.676 30.5685 32.1961 30.6846 31.7627C30.8187 31.3099 30.9538 30.8851 31.0898 30.4883C31.2439 30.0722 31.3889 29.6657 31.5249 29.2689C31.5436 29.2683 31.6132 29.1165 31.7337 28.8136C31.8536 28.492 31.9896 28.0952 32.1418 27.6232C32.312 27.1318 32.4822 26.6404 32.6524 26.1491C32.8219 25.6391 32.9654 25.186 33.0828 24.7898C33.2188 24.393 33.3123 24.119 33.3632 23.9679C33.8352 22.4578 34.2218 21.184 34.523 20.1466C34.8422 19.0899 35.0381 18.2521 35.1106 17.6333C34.7915 17.5881 34.3711 17.5836 33.8494 17.6199C33.3457 17.6369 32.8146 17.6735 32.2562 17.7297C31.6978 17.7859 31.1776 17.8688 30.6957 17.9784C30.2324 18.0875 29.8628 18.2027 29.5867 18.324L29.0994 19.6572C29.0652 19.7518 28.965 20.1007 28.7985 20.704C28.6508 21.3066 28.4338 22.0704 28.1474 22.9952C27.8798 23.9194 27.5587 24.9202 27.1841 25.9974C26.809 27.056 26.3965 28.1159 25.9467 29.177C25.4962 30.2194 25.0053 31.1698 24.474 32.0283C23.9613 32.886 23.424 33.5672 22.862 34.0718Z" fill="#2F94F9"/>
<path d="M17.2517 80.5542C18.9624 79.1978 20.6696 77.8385 22.3569 76.4546C22.5471 76.2969 22.7422 76.1389 22.9288 75.9767C22.9835 75.9298 23.0379 75.8796 23.093 75.8375C23.238 75.6835 23.4416 75.5706 23.7087 75.541C23.9564 75.5128 24.2713 75.6135 24.4554 75.7819C24.7149 76.0211 24.8882 76.3998 24.7953 76.7589C24.6701 77.2598 24.2507 77.5356 23.8812 77.8468C23.4248 78.227 22.9615 78.6029 22.4964 78.9757C21.9508 79.4171 21.4 79.8557 20.8524 80.2923C27.3532 80.5022 34.541 78.3207 38.3167 72.6054C39.5423 70.7482 40.3012 68.5589 40.6801 66.3478C40.9031 65.0441 42.908 65.4275 42.6852 66.7345C41.9556 71.0431 39.8322 74.916 36.438 77.6612C33.3512 80.154 29.4847 81.5284 25.6022 82.0846C24.2718 82.275 22.9311 82.3584 21.5882 82.3535C23.0352 82.9864 24.5441 83.4604 26.0901 83.8088C27.368 84.0953 26.9952 86.1194 25.7088 85.8287C23.5382 85.3424 21.3947 84.6266 19.4201 83.5913C18.6475 83.1888 17.855 82.7422 17.1755 82.1851C16.637 81.7474 16.7518 80.9546 17.2523 80.5577L17.2517 80.5542ZM22.7946 76.3686C22.8046 76.3923 22.8116 76.418 22.8216 76.4417C22.8263 76.3988 22.8307 76.3526 22.8435 76.3107C22.8111 76.3722 22.7893 76.4034 22.7978 76.3684L22.7946 76.3686ZM23.0198 75.9186L23.0272 75.9099C23.0272 75.9099 23.0224 75.9103 23.0195 75.9154L23.0198 75.9186Z" fill="#2F94F9"/>
</svg>
