<svg width="148" height="55" viewBox="0 0 148 55" fill="none" xmlns="http://www.w3.org/2000/svg">
<path d="M139.103 11.2576C138.888 11.3286 138.642 11.3286 138.367 11.2576C138.092 11.1866 137.837 11.0653 137.603 10.8935C137.387 10.719 137.234 10.5252 137.145 10.3123C137.012 9.93625 136.984 9.44946 137.062 8.85198C137.156 8.23322 137.319 7.57543 137.552 6.87861C137.8 6.16051 138.09 5.4644 138.42 4.7903C138.77 4.11335 139.141 3.51801 139.534 3.00428C139.943 2.46926 140.337 2.08751 140.717 1.85904C140.901 1.69868 141.045 1.59153 141.15 1.53761C141.27 1.4624 141.398 1.43331 141.533 1.45034C141.686 1.46454 141.912 1.52416 142.212 1.62919C142.482 1.66327 142.688 1.7165 142.831 1.78888C142.975 1.86127 143.169 2.02023 143.415 2.26576C143.605 2.5198 143.758 2.77952 143.874 3.04492C143.991 3.31032 144.104 3.61403 144.213 3.95606C144.431 4.39461 144.534 4.69051 144.519 4.84379C144.502 4.97861 144.463 5.0886 144.4 5.17375C144.281 5.38094 144.258 5.47887 144.332 5.46752C144.332 5.46752 144.328 5.50583 144.321 5.58247C144.33 5.63782 144.307 5.73574 144.253 5.87624C144.187 6.302 144.15 6.74195 144.145 7.19609C144.155 7.62895 144.218 7.97808 144.334 8.24347C144.544 8.62667 144.848 8.82537 145.247 8.83958C145.646 8.85379 146.017 8.62673 146.361 8.15841C146.541 7.9796 146.715 7.82066 146.882 7.68158C147.047 7.52406 147.141 7.51909 147.163 7.66669C147.163 7.66669 147.195 7.69011 147.259 7.73695C147.32 7.76533 147.387 7.77385 147.461 7.7625C147.554 7.74831 147.615 7.7767 147.644 7.84766C147.693 7.91579 147.708 8.01726 147.691 8.15208C147.69 8.26562 147.654 8.40328 147.585 8.56507C147.351 8.88438 147.241 9.09015 147.255 9.1824C147.255 9.1824 147.224 9.22498 147.161 9.31013C147.114 9.37399 147.027 9.48184 146.899 9.63369C146.598 9.88772 146.19 10.0545 145.673 10.1339C145.175 10.2105 144.772 10.1686 144.464 10.0083C144.156 9.84787 143.855 9.61085 143.561 9.29719C143.286 8.9807 143.092 8.69898 142.978 8.45203L142.797 8.19657L142.075 8.84582C141.904 9.07998 141.712 9.30776 141.501 9.52914C141.308 9.74769 141.18 9.89954 141.117 9.98469C141.073 10.067 141.019 10.1415 140.953 10.2082C140.907 10.2721 140.846 10.3097 140.772 10.321C140.699 10.3324 140.634 10.3423 140.579 10.3508C140.523 10.3593 140.496 10.3636 140.496 10.3636C140.507 10.4374 140.429 10.5438 140.262 10.6829C140.113 10.8191 139.924 10.9426 139.695 11.0533C139.485 11.1611 139.288 11.2292 139.103 11.2576ZM138.597 9.80576C138.708 9.78873 138.889 9.67591 139.14 9.4673C139.407 9.2374 139.697 8.97557 140.01 8.68181C140.343 8.38521 140.629 8.09571 140.868 7.8133C141.127 7.52805 141.301 7.31234 141.392 7.16617C141.455 7.08102 141.556 6.94265 141.697 6.75107C141.834 6.54103 141.958 6.36151 142.067 6.2125C142.418 5.66754 142.632 5.09632 142.71 4.49884C142.785 3.88291 142.696 3.4245 142.442 3.12362C142.337 2.93202 142.227 2.83551 142.114 2.83409C142 2.83267 141.78 2.93271 141.452 3.13422C141.25 3.29742 141.012 3.58906 140.737 4.00913C140.477 4.40791 140.199 4.87553 139.904 5.41197C139.625 5.92713 139.366 6.4579 139.129 7.00428C138.892 7.55066 138.705 8.05163 138.567 8.50719C138.429 8.96274 138.379 9.31045 138.416 9.55029C138.427 9.62409 138.456 9.68583 138.501 9.7355C138.565 9.78234 138.597 9.80576 138.597 9.80576Z" fill="#2F94F9"/>
<path d="M128.562 13.6722C128.406 13.6396 128.232 13.553 128.04 13.4125C127.846 13.2535 127.675 13.0626 127.527 12.8398C127.379 12.617 127.29 12.4041 127.259 12.2012C127.32 11.984 127.386 11.615 127.457 11.0942C127.525 10.5549 127.619 9.93614 127.738 9.2379C127.854 9.01225 127.928 8.75538 127.959 8.46728C128.009 8.17635 128.054 7.91451 128.094 7.68176C128.196 7.36387 128.313 6.95869 128.445 6.46623C128.574 5.95533 128.694 5.44584 128.805 4.93777C128.931 4.40841 129.042 3.96634 129.139 3.61154C129.268 3.10063 129.343 2.78699 129.363 2.67062C129.38 2.5358 129.392 2.43007 129.399 2.35343C129.376 2.20583 129.394 2.08023 129.454 1.97664C129.511 1.85459 129.576 1.78789 129.65 1.77654C129.712 1.69139 129.79 1.64172 129.882 1.62753C129.99 1.59206 130.081 1.56864 130.154 1.55729C130.357 1.52608 130.554 1.6375 130.744 1.89154C130.931 2.12714 131.042 2.35563 131.076 2.57703C131.11 2.79843 131.075 3.12484 130.972 3.55627C130.884 3.96642 130.771 4.39927 130.633 4.85483C130.514 5.30755 130.414 5.70066 130.333 6.03417C130.252 6.36768 130.244 6.55785 130.308 6.60469C130.308 6.60469 130.428 6.52947 130.669 6.37905C130.908 6.21018 131.158 5.99234 131.419 5.72554C131.605 5.58363 131.805 5.41121 132.019 5.20827C132.233 5.00533 132.44 4.81304 132.639 4.63139C132.835 4.4313 133.003 4.30144 133.145 4.24184C133.344 4.06019 133.553 3.88635 133.773 3.72032C133.991 3.53583 134.13 3.40101 134.193 3.31586C134.484 3.12003 134.707 3.03843 134.863 3.07108C135.038 3.10089 135.225 3.21373 135.425 3.40959C135.665 3.61822 135.735 3.82472 135.634 4.02908C135.53 4.21499 135.261 4.49243 134.827 4.8614C134.477 5.16084 134.05 5.51916 133.548 5.93639C133.064 6.35077 132.629 6.71975 132.245 7.04331C131.879 7.36403 131.672 7.55632 131.625 7.62018C131.625 7.62018 131.72 7.74721 131.91 8.00125C132.101 8.2553 132.287 8.48167 132.468 8.68036C132.661 8.95286 132.861 9.20549 133.066 9.43824C133.288 9.64972 133.406 9.80158 133.42 9.89382C133.627 10.2586 133.861 10.5531 134.122 10.7773C134.38 10.9831 134.654 11.1016 134.942 11.1329C135.245 11.1428 135.535 11.0605 135.81 10.886C136.157 10.6816 136.417 10.5943 136.592 10.6241C136.785 10.6511 136.935 10.7696 137.043 10.9797C137.139 11.1159 137.175 11.2238 137.149 11.3033C137.139 11.3614 137.041 11.5183 136.853 11.7737C136.557 12.1782 136.231 12.4549 135.876 12.6039C135.54 12.7501 135.213 12.772 134.895 12.6698C134.71 12.6982 134.487 12.6571 134.224 12.5463C133.959 12.4172 133.623 12.1951 133.215 11.88C132.826 11.5621 132.332 11.1093 131.732 10.5217C131.72 10.4479 131.668 10.3521 131.574 10.2343C131.496 10.0953 131.41 9.96682 131.316 9.84902C131.22 9.71278 131.104 9.57014 130.967 9.42112C130.828 9.25365 130.759 9.16991 130.759 9.16991C130.75 9.11456 130.725 9.07128 130.682 9.04005C130.655 8.98754 130.608 8.92864 130.542 8.86335C130.493 8.79523 130.434 8.7193 130.365 8.63556C130.056 8.58872 129.852 8.6767 129.754 8.89951C129.656 9.12232 129.55 9.35577 129.437 9.59987C129.381 9.85391 129.314 10.2137 129.234 10.6792C129.171 11.1234 129.124 11.5555 129.094 11.9756C129.083 12.3928 129.107 12.6724 129.166 12.8143C129.212 13.1095 129.197 13.3196 129.121 13.4445C129.043 13.5509 128.857 13.6268 128.562 13.6722Z" fill="#2F94F9"/>
<path d="M122.213 14.4786C121.692 14.6532 121.199 14.7007 120.734 14.6212C120.265 14.5232 119.864 14.3111 119.531 13.9846C119.213 13.6369 119.009 13.1678 118.918 12.5775C118.777 12.0325 118.744 11.386 118.818 10.6381C118.889 9.87175 119.043 9.09262 119.28 8.30071C119.536 7.50597 119.834 6.80845 120.176 6.20814C120.477 5.7086 120.784 5.24595 121.096 4.82021C121.408 4.39446 121.702 4.09431 121.977 3.91976C122.219 3.76934 122.449 3.66787 122.667 3.61537C122.901 3.54159 123.092 3.49334 123.24 3.47064C123.546 3.49904 123.881 3.58917 124.245 3.74104C124.623 3.87163 124.83 4.04762 124.864 4.26901C124.864 4.26901 124.887 4.29385 124.932 4.34353C124.993 4.37191 125.024 4.38611 125.024 4.38611C125.134 4.36908 125.245 4.47481 125.356 4.70331C125.485 4.92897 125.583 5.1972 125.65 5.50801C125.713 5.80037 125.706 6.05653 125.626 6.27651C125.606 6.6384 125.524 6.96269 125.379 7.24936C125.234 7.53603 125.088 7.69072 124.941 7.71342C124.867 7.72477 124.794 7.74534 124.723 7.77514C124.668 7.78366 124.647 7.83404 124.662 7.92628C124.676 8.01853 124.626 8.06395 124.513 8.06252C124.418 8.05826 124.308 8.01852 124.183 7.94329C124.055 7.84962 123.952 7.73324 123.874 7.59416C123.86 7.50191 123.873 7.33941 123.912 7.10666C123.952 6.87392 123.982 6.57659 124.002 6.2147C124.033 5.68108 123.973 5.3504 123.821 5.22267C123.666 5.07649 123.416 5.10557 123.069 5.30992C122.648 5.63915 122.26 6.06702 121.907 6.59353C121.572 7.1172 121.286 7.77499 121.049 8.56689C120.809 9.34035 120.635 10.2926 120.525 11.4237C120.48 11.8651 120.49 12.2412 120.557 12.552C120.642 12.86 120.714 13.0189 120.772 13.0288C121.042 13.0629 121.395 13.0275 121.832 12.9225C122.267 12.799 122.577 12.6663 122.763 12.5244C123.035 12.3314 123.337 12.0866 123.669 11.79C123.999 11.475 124.286 11.1947 124.532 10.9492C124.615 10.8796 124.712 10.7704 124.821 10.6214C124.93 10.4723 125.053 10.3496 125.189 10.2531C125.303 10.009 125.412 9.85998 125.517 9.80605C125.622 9.75213 125.786 9.70814 126.007 9.67409C126.16 9.68829 126.307 9.72235 126.448 9.77629C126.588 9.83023 126.682 9.89126 126.731 9.95938C126.797 10.0247 126.78 10.0935 126.678 10.1659C126.604 10.1772 126.562 10.212 126.552 10.2702C126.558 10.3071 126.56 10.3255 126.56 10.3255C126.609 10.3937 126.55 10.5632 126.384 10.8343C126.233 11.0841 126.032 11.37 125.779 11.6922C125.526 12.0143 125.277 12.2982 125.032 12.5437C124.802 12.7679 124.632 12.8885 124.521 12.9055C124.336 12.9339 124.253 13.0035 124.27 13.1142C124.275 13.1511 124.151 13.2646 123.897 13.4547C123.662 13.6421 123.38 13.8365 123.052 14.038C122.743 14.2367 122.463 14.3835 122.213 14.4786Z" fill="#2F94F9"/>
<path d="M111.225 23.3076C110.83 23.4438 110.555 23.4956 110.399 23.463C110.243 23.4303 110.026 23.3693 109.748 23.2799C109.522 23.1635 109.348 23.0769 109.226 23.0201C109.104 22.9634 109.037 22.8981 109.026 22.8243C109.017 22.7689 109.026 22.7015 109.051 22.622C109.08 22.561 109.136 22.4957 109.22 22.4262C109.325 22.3723 109.469 22.3311 109.654 22.3028C109.794 22.3567 110.012 22.361 110.307 22.3156C110.621 22.2673 110.809 22.2006 110.872 22.1155C110.872 22.1155 110.946 22.0474 111.095 21.9111C111.265 21.7905 111.494 21.6798 111.781 21.5791C112.31 21.2143 112.763 20.7858 113.141 20.2933C113.519 19.8009 113.858 19.1821 114.159 18.4371C114.285 18.1532 114.413 17.8218 114.544 17.4429C114.677 17.0825 114.755 16.7305 114.778 16.387C114.869 15.9954 114.958 15.4717 115.047 14.816C115.153 14.1575 115.233 13.5125 115.287 12.8809C115.338 12.2309 115.349 11.7477 115.319 11.4312C115.271 10.381 115.3 9.4039 115.407 8.49987C115.529 7.57456 115.598 6.55345 115.615 5.43653C115.686 5.16121 115.747 5.00085 115.796 4.95543C115.843 4.89157 115.959 4.84545 116.143 4.81708C116.346 4.78586 116.497 4.78161 116.595 4.80432C116.708 4.80575 116.845 4.898 117.005 5.08109C117.244 5.40326 117.372 5.80844 117.391 6.29665C117.425 6.76357 117.349 7.19074 117.163 7.57818C117.018 7.86485 116.914 8.29628 116.852 8.87247C116.805 9.42738 116.78 10.1207 116.775 10.9523C116.745 11.3724 116.718 11.8677 116.692 12.4382C116.682 12.9874 116.673 13.6027 116.664 14.2839C116.619 14.4797 116.562 14.7813 116.492 15.1886C116.42 15.5775 116.382 15.8854 116.379 16.1125C116.372 16.1891 116.339 16.3453 116.281 16.5808C116.223 16.8164 116.163 17.0428 116.102 17.2599C116.044 17.4955 116.002 17.653 115.977 17.7325C115.487 19.3376 114.842 20.6078 114.041 21.543C113.241 22.4782 112.302 23.0664 111.225 23.3076ZM112.094 14.9585C111.891 14.9897 111.662 14.9117 111.406 14.7243C111.169 14.5341 111.004 14.3801 110.91 14.2623C110.808 14.0892 110.689 13.9281 110.553 13.7791C110.416 13.6301 110.302 13.4399 110.21 13.2085C110.136 12.9744 110.109 12.6763 110.129 12.3144C110.166 12.0632 110.215 11.7063 110.276 11.2437C110.353 10.7597 110.433 10.2375 110.517 9.67688C110.619 9.11346 110.722 8.55927 110.828 8.0143C110.948 7.44804 111.06 6.9492 111.164 6.51777C111.265 6.06788 111.366 5.74076 111.466 5.5364C111.554 5.37178 111.66 5.26109 111.783 5.20433C111.925 5.14473 112.076 5.14047 112.235 5.19157C112.391 5.22422 112.539 5.32428 112.678 5.49175C112.92 5.71884 113.037 5.92746 113.029 6.11764C113.02 6.30781 112.91 6.69312 112.697 7.27356C112.654 7.48786 112.596 7.72344 112.522 7.98031C112.445 8.21874 112.413 8.37485 112.424 8.44865C112.411 8.48838 112.394 8.62321 112.373 8.85312C112.367 9.06174 112.351 9.26255 112.324 9.45556C112.297 9.64857 112.256 9.74934 112.201 9.75785C112.138 9.843 112.088 10.0679 112.049 10.4327C112.008 10.779 111.983 11.1699 111.975 11.6056C111.963 12.0229 111.973 12.3897 112.002 12.7062C112.029 13.0043 112.08 13.1476 112.154 13.1363C112.725 13.0483 113.282 12.7361 113.823 12.1997C114.382 11.6604 114.91 10.9182 115.406 9.973L116.179 11.8655C115.941 12.0344 115.722 12.2097 115.523 12.3913C115.322 12.5545 115.143 12.7426 114.987 12.9554C114.943 13.0377 114.829 13.1591 114.646 13.3194C114.463 13.4798 114.279 13.6309 114.093 13.7729C113.923 13.8935 113.81 13.958 113.754 13.9666C113.754 13.9666 113.728 13.98 113.676 14.007C113.639 14.0127 113.626 14.0524 113.637 14.1262C113.643 14.1631 113.534 14.2554 113.312 14.4029C113.086 14.5321 112.85 14.6534 112.603 14.7669C112.356 14.8805 112.186 14.9443 112.094 14.9585Z" fill="#2F94F9"/>
<path d="M101.944 17.681C101.714 17.6597 101.521 17.5667 101.363 17.4021C101.224 17.2346 101.06 17.0898 100.871 16.9678C100.85 16.7066 100.852 16.3476 100.876 15.8906C100.918 15.4308 100.981 14.9774 101.063 14.5303C101.143 14.0648 101.23 13.7114 101.325 13.4702C101.309 13.0004 101.352 12.5406 101.453 12.0907C101.572 11.638 101.661 11.1711 101.719 10.69C101.76 10.3437 101.801 9.99742 101.843 9.65114C101.902 9.30202 101.943 8.95573 101.966 8.61229C101.989 8.51436 101.985 8.42992 101.955 8.35896C101.941 8.26671 101.947 8.18085 101.972 8.10138C102.029 7.97933 102.098 7.87431 102.179 7.78632C102.257 7.67989 102.336 7.58267 102.417 7.49469C102.65 7.53444 102.823 7.55502 102.937 7.55645C103.05 7.55787 103.203 7.50607 103.395 7.40106C103.413 7.39823 103.553 7.38617 103.814 7.36489C104.091 7.32233 104.378 7.28757 104.676 7.26062C104.971 7.21522 105.156 7.18684 105.23 7.17549C105.469 7.1386 105.707 7.14926 105.943 7.20746C106.175 7.2472 106.413 7.25786 106.656 7.23942C107.109 7.35865 107.516 7.55097 107.878 7.81638C108.258 8.07895 108.445 8.49407 108.438 9.06175C108.446 9.36262 108.464 9.66207 108.491 9.96011C108.533 10.2369 108.502 10.525 108.397 10.8244C108.421 11.104 108.391 11.4013 108.308 11.7164C108.239 12.0101 108.164 12.3145 108.08 12.6296C107.996 12.9447 107.943 13.2739 107.92 13.6174C107.921 13.7493 107.894 13.8764 107.837 13.9984C107.799 14.1176 107.782 14.2524 107.786 14.4029C107.8 14.4951 107.805 14.5888 107.801 14.6839C107.812 14.7577 107.816 14.8421 107.811 14.9372C107.804 15.0139 107.78 15.1025 107.739 15.2033C107.814 15.3239 107.786 15.5077 107.654 15.7547C107.54 15.9988 107.343 16.0669 107.062 15.959C107.019 15.9278 106.969 15.9072 106.911 15.8973C106.85 15.8689 106.8 15.8483 106.76 15.8355C106.534 15.7191 106.389 15.5148 106.326 15.2224C106.259 14.9116 106.229 14.5951 106.236 14.273C106.24 13.9323 106.244 13.6485 106.247 13.4214C106.278 13.3789 106.33 13.1631 106.402 12.7743C106.475 12.3854 106.548 11.9398 106.622 11.4374C106.711 10.9137 106.781 10.4497 106.832 10.0452C106.899 9.61943 106.927 9.36965 106.915 9.29585C106.883 9.20644 106.852 9.12626 106.822 9.05529C106.792 8.98433 106.753 8.91479 106.705 8.84667C106.238 8.88071 105.752 8.91758 105.249 8.9573C104.763 8.99418 104.308 9.10202 103.882 9.28082C103.829 9.30778 103.78 9.35319 103.733 9.41705C103.702 9.45963 103.681 9.51001 103.671 9.56819C103.631 10.0465 103.561 10.5105 103.46 10.9604C103.36 11.4103 103.289 11.8744 103.25 12.3526C103.208 12.9445 103.093 13.5476 102.905 14.1621C102.713 14.7582 102.636 15.3649 102.675 15.9822C102.602 16.1256 102.565 16.3108 102.562 16.5378C102.559 16.7649 102.544 16.975 102.517 17.168C102.506 17.3397 102.421 17.466 102.264 17.5469C102.193 17.5767 102.13 17.5958 102.074 17.6043C102.019 17.6129 101.976 17.6384 101.944 17.681Z" fill="#2F94F9"/>
<path d="M89.9382 18.7343C89.8417 18.5981 89.7325 18.5016 89.6104 18.4448C89.4855 18.3696 89.4174 18.295 89.406 18.2212C89.3947 18.1474 89.3741 18.0751 89.3443 18.0041C89.3301 17.9119 89.2805 17.8345 89.1953 17.7721C89.086 17.6755 89.057 17.4251 89.1081 17.0206C89.1563 16.5977 89.2656 16.0804 89.436 15.4687C89.6035 14.8386 89.8128 14.1737 90.0641 13.4741C90.189 13.3038 90.3068 13.0873 90.4175 12.8248C90.5282 12.5622 90.6148 12.3884 90.6772 12.3032C90.6659 12.2294 90.6836 12.1606 90.7304 12.0967C90.7744 12.0144 90.8333 11.9676 90.9071 11.9563L90.8816 11.7902C90.8674 11.698 90.9263 11.5284 91.0583 11.2814C91.2088 11.0317 91.3933 10.7578 91.6118 10.4597C91.8276 10.1433 92.0554 9.84382 92.2952 9.56141C92.5322 9.26055 92.7345 9.04059 92.9019 8.90151C93.2497 8.58363 93.6222 8.3658 94.0196 8.24802C94.4354 8.12741 94.8094 8.16432 95.1415 8.35877C95.2053 8.4056 95.3118 8.48367 95.4608 8.59295C95.6098 8.70224 95.7801 8.82713 95.9717 8.96764C96.1789 9.08686 96.3875 9.21531 96.5975 9.35298L97.762 10.1088L97.4766 11.5691C97.3503 12.344 97.385 12.9997 97.5809 13.5361C97.7951 14.0697 98.0534 14.5211 98.3557 14.8901C98.4791 15.0788 98.6934 15.2442 98.9985 15.3861C99.3221 15.5252 99.6159 15.5933 99.8799 15.5905C100.03 15.5863 100.177 15.6203 100.321 15.6927C100.464 15.7651 100.551 15.9028 100.582 16.1057C100.611 16.2902 100.597 16.4435 100.54 16.5655C100.483 16.6876 100.365 16.7812 100.186 16.8465C99.5889 17.014 98.9942 16.9543 98.4024 16.6676C97.8291 16.3781 97.2558 15.843 96.6824 15.0624C96.5916 14.9631 96.4589 14.7757 96.2844 14.5004C96.1254 14.2038 96.0296 14.0108 95.997 13.9214C95.9374 14.025 95.826 14.2215 95.6628 14.511C95.4967 14.7821 95.3668 14.9815 95.2732 15.1092C94.1675 16.6391 93.1705 17.7084 92.2821 18.3172C91.4092 18.9047 90.6279 19.0437 89.9382 18.7343ZM90.6962 17.0313C90.716 17.1605 90.9097 17.1307 91.2773 16.9419C91.6605 16.7319 92.0544 16.4069 92.4588 15.967C93.0038 15.3355 93.5403 14.6486 94.0683 13.9064C94.6147 13.1613 95.0391 12.4823 95.3414 11.8692L95.797 10.7792C95.5473 10.3833 95.3003 10.1285 95.0562 10.015C94.8278 9.88014 94.6397 9.82407 94.4921 9.84677C94.2523 9.88366 93.9266 10.1604 93.515 10.677C93.1218 11.1907 92.7145 11.8577 92.293 12.678C91.8714 13.4983 91.4889 14.3881 91.1454 15.3474C91.0177 15.7448 90.9069 16.1301 90.8133 16.5034C90.7352 16.8553 90.6962 17.0313 90.6962 17.0313Z" fill="#2F94F9"/>
<path d="M82.7367 28.199C82.575 28.1295 82.4018 28.1089 82.2173 28.1373C82.0328 28.1657 81.8611 28.1543 81.7022 28.1032C81.424 28.0138 81.1004 27.8747 80.7314 27.6859C80.3809 27.4943 80.1382 27.2672 80.0034 27.0047C79.9793 26.9706 79.963 26.9259 79.9545 26.8705C79.9488 26.8336 79.9353 26.8074 79.914 26.7918C79.8871 26.7393 79.8416 26.6896 79.7778 26.6428C79.7168 26.6144 79.6728 26.5739 79.6458 26.5214C79.5919 26.4164 79.555 26.2993 79.5351 26.1702C79.4996 26.0623 79.4734 25.953 79.4564 25.8423C79.4209 25.7345 79.367 25.6294 79.2946 25.5272C79.3485 25.3867 79.3932 25.2477 79.4287 25.11C79.4458 24.9752 79.4812 24.8375 79.5352 24.697C79.6246 24.6644 79.714 24.6317 79.8034 24.5991C79.8772 24.5878 79.9496 24.5672 80.0206 24.5374C80.2391 24.4849 80.391 24.6126 80.4761 24.9206C80.5797 25.2257 80.706 25.5557 80.855 25.9105C80.9713 26.1759 81.1296 26.4065 81.3297 26.6024C81.5482 26.7954 81.8619 26.8699 82.2706 26.8259C82.7347 26.7735 83.1086 26.5648 83.3925 26.2001C83.6976 25.851 83.9347 25.4274 84.1036 24.9293C84.2725 24.4311 84.3875 23.9507 84.4485 23.4881C84.4741 23.4086 84.4904 23.3306 84.4975 23.2539C84.5046 23.1773 84.5117 23.1006 84.5188 23.024C84.5472 22.963 84.5649 22.8942 84.572 22.8175C84.5465 22.6515 84.5536 22.4521 84.5933 22.2193C84.6544 22.0022 84.6799 21.8 84.67 21.6126C84.6558 21.2748 84.6572 20.9158 84.6743 20.5354C84.6913 20.1551 84.6097 19.8088 84.4295 19.4966C84.4295 19.4966 84.4089 19.4242 84.3678 19.2794C84.3266 19.1347 84.2841 18.9807 84.2401 18.8175C84.1961 18.6543 84.1727 18.5634 84.1699 18.545C84.0152 18.3988 83.8775 18.2406 83.7569 18.0703C83.6519 17.8787 83.5128 17.7112 83.3397 17.5678C83.3198 17.4387 83.2921 17.3202 83.2567 17.2123C83.2396 17.1016 83.2212 16.9817 83.2013 16.8526C83.251 16.8071 83.29 16.7539 83.3184 16.6929C83.3468 16.6319 83.3965 16.5865 83.4674 16.5567C83.9897 16.2686 84.4744 15.9202 84.9215 15.5115C85.3657 15.0843 85.7368 14.6118 86.0349 14.0938C86.3329 13.5758 86.521 13.018 86.5991 12.4205C86.6232 12.2091 86.6289 12.0005 86.6161 11.7947C86.6034 11.5889 86.5537 11.3888 86.4672 11.1943C86.3025 11.1064 86.1415 11.1028 85.9839 11.1837C85.314 11.4945 84.8294 11.8429 84.5299 12.2289C84.2489 12.612 84.0197 13.025 83.8422 13.4678C83.662 13.8921 83.4001 14.3385 83.0567 14.8068C82.9076 14.6975 82.77 14.662 82.6437 14.7003C82.533 14.7173 82.406 14.6897 82.2626 14.6173C82.1988 14.5704 82.1228 14.5066 82.0348 14.4257C81.9625 14.3235 81.866 14.1872 81.7454 14.0169C81.883 13.8069 81.9625 13.5869 81.9838 13.357C82.0207 13.1058 82.091 12.8873 82.1946 12.7013C82.4359 12.3054 82.6537 11.9414 82.8482 11.6093C83.0426 11.2772 83.3229 10.9508 83.6891 10.6301C84.0709 10.2881 84.4825 10.017 84.9238 9.81695C85.3837 9.61402 85.8513 9.52321 86.3267 9.54452C86.8022 9.56583 87.24 9.77234 87.6402 10.1641C88.0347 10.5189 88.2731 10.9638 88.3554 11.4989C88.4533 12.0126 88.4419 12.5526 88.3213 13.1189C88.2006 13.6851 88.0005 14.2258 87.7209 14.741C87.4256 15.2774 87.0701 15.7287 86.6543 16.0949C86.2569 16.4582 85.8467 16.8612 85.4238 17.304C85.6295 17.7822 85.8367 18.2697 86.0453 18.7665C86.2511 19.2448 86.3767 19.7543 86.422 20.295C86.466 20.9492 86.4795 21.5893 86.4624 22.2151C86.4638 22.8382 86.4042 23.4328 86.2835 23.9991C86.1657 24.5838 85.9776 25.1415 85.7193 25.6723C85.461 26.2031 85.0955 26.7125 84.6229 27.2007C84.3646 27.486 84.058 27.7031 83.7032 27.8521C83.3669 27.9983 83.0447 28.1139 82.7367 28.199Z" fill="#2F94F9"/>
<path d="M70.1587 22.6263C69.9217 22.6816 69.7252 22.6929 69.569 22.6603C69.4101 22.6092 69.21 22.5361 68.9687 22.441C68.5146 22.1898 68.1619 21.923 67.9108 21.6405C67.6752 21.3368 67.5425 21.0267 67.5127 20.7102C67.5241 20.5385 67.5014 20.3909 67.4446 20.2674C67.4063 20.1411 67.3871 20.078 67.3871 20.078C67.2623 20.0027 67.2168 19.9531 67.2509 19.9289C67.2821 19.8864 67.3013 19.8268 67.3084 19.7501C67.4503 19.6905 67.4532 19.5862 67.3169 19.4372C67.2389 19.2981 67.2155 18.9617 67.2467 18.4281C67.2936 17.8732 67.383 17.3495 67.515 16.8571C67.576 16.64 67.664 16.3526 67.779 15.9949C67.9124 15.6345 68.0643 15.2712 68.2346 14.905C68.4021 14.5204 68.5625 14.2125 68.7158 13.9811C69.0507 13.4575 69.358 13.0608 69.6376 12.7912C69.9328 12.5002 70.272 12.2498 70.6552 12.0398C71.0015 11.8354 71.2563 11.7112 71.4195 11.6672C71.5827 11.6233 71.8303 11.6985 72.1624 11.8929C72.6251 11.954 72.9855 12.0874 73.2438 12.2932C73.5177 12.4777 73.7561 12.7999 73.959 13.2597C74.1889 13.772 74.333 14.4015 74.3911 15.148C74.4649 15.8732 74.2945 16.8531 73.8801 18.0878C73.6402 18.8613 73.3734 19.4595 73.0796 19.8824C72.8042 20.3024 72.4579 20.7523 72.0406 21.232C71.7355 21.5811 71.4481 21.8614 71.1784 22.0728C70.9088 22.2843 70.5689 22.4687 70.1587 22.6263ZM71.8662 18.9925C72.1501 18.3822 72.358 17.8309 72.49 17.3384C72.6376 16.8247 72.7207 16.1981 72.7391 15.4587C72.7448 15.2501 72.7157 14.9996 72.6519 14.7072C72.5852 14.3964 72.4951 14.1175 72.3816 13.8706C72.2865 13.6208 72.1822 13.4952 72.0687 13.4938C71.8146 13.4384 71.5471 13.4796 71.2661 13.6172C70.9823 13.7364 70.6934 14.0075 70.3996 14.4304C70.1427 14.8476 69.9206 15.3067 69.7333 15.8077C69.5644 16.3058 69.421 16.8472 69.3032 17.4319C69.1854 18.0166 69.0824 18.6368 68.9944 19.2925C68.9177 20.022 69.0093 20.5556 69.269 20.8934C69.5471 21.2283 69.9211 21.2652 70.3908 21.0041C70.8578 20.7246 71.3495 20.054 71.8662 18.9925Z" fill="#2F94F9"/>
<path d="M61.122 24.0161C61.0695 24.0431 60.9361 24.0353 60.7218 23.9927C60.5047 23.9316 60.2663 23.855 60.0066 23.7627C59.7625 23.6492 59.5659 23.5378 59.4169 23.4285C59.2409 23.2667 59.0742 23.1035 58.9166 22.9388C58.7747 22.7529 58.6839 22.5308 58.6442 22.2725C58.4725 22.0156 58.3547 21.741 58.2908 21.4486C58.2426 21.135 58.1866 20.832 58.1227 20.5396C58.0333 20.0812 58.0624 19.5952 58.2101 19.0814C58.3548 18.5492 58.4734 18.1533 58.5656 17.8936C58.6181 17.6211 58.7516 17.2606 58.9659 16.8121C59.1958 16.3424 59.4917 15.8719 59.8537 15.4008C60.2156 14.9296 60.6101 14.5479 61.0373 14.2556C61.3098 14.0626 61.5866 13.8972 61.8676 13.7596C62.1642 13.6006 62.5268 13.5638 62.9554 13.6489C63.1669 13.6731 63.3258 13.7242 63.4322 13.8022C63.5387 13.8803 63.6543 13.9569 63.7792 14.0321C63.9098 13.8987 63.9886 13.6128 64.0156 13.1743C64.0582 12.7144 64.0461 12.2064 63.9794 11.65C63.9284 11.0724 63.817 10.5324 63.6453 10.03C63.4892 9.5063 63.2671 9.10608 62.979 8.82932C62.4426 8.28858 61.8927 7.96711 61.3292 7.8649C60.7658 7.76269 60.1655 7.91168 59.5283 8.31187C59.2927 8.25367 59.0628 8.10961 58.8386 7.87969C58.6328 7.64693 58.5469 7.39573 58.581 7.12609C58.7087 6.97424 58.8734 6.81671 59.0749 6.65351C59.2764 6.49032 59.4851 6.37324 59.7008 6.30229C59.9506 6.20722 60.2032 6.13059 60.4587 6.07241C60.7326 6.0114 61.0299 6.04122 61.3506 6.16186C62.3582 6.32795 63.1459 6.66008 63.7135 7.15825C64.2968 7.63512 64.7417 8.25604 65.0482 9.02101C65.3547 9.78597 65.6059 10.6822 65.8017 11.7097C65.884 11.9992 65.9344 12.2653 65.9528 12.508C65.9868 12.7294 66.0173 13.1119 66.0443 13.6555C65.8967 13.9237 65.8669 14.221 65.9548 14.5474C66.0584 14.8525 66.0669 15.1534 65.9803 15.45C66.0101 15.7665 65.9761 16.0362 65.8781 16.259C65.7802 16.4818 65.7454 16.6854 65.7738 16.8699C65.5836 17.8435 65.2706 18.817 64.8349 19.7906C64.4176 20.7613 63.8988 21.6249 63.2786 22.3813C62.6584 23.1377 61.9395 23.6826 61.122 24.0161ZM60.6793 22.2428C60.8752 22.2882 61.1406 22.1719 61.4755 21.8937C61.8076 21.5971 62.1376 21.2253 62.4655 20.7783C62.7905 20.3128 63.0538 19.8757 63.2553 19.467C63.3277 19.3236 63.415 19.093 63.5172 18.7751C63.6378 18.4544 63.7414 18.1457 63.828 17.8491C63.9331 17.5496 63.9891 17.3616 63.9962 17.285C64.0913 16.7982 64.1169 16.3504 64.0729 15.9417C64.0445 15.5117 63.9559 15.242 63.8069 15.1327C63.567 14.9241 63.2264 14.9198 62.785 15.1199C62.3621 15.3172 61.9704 15.5946 61.6099 15.9522C61.3488 16.219 61.1266 16.5554 60.9435 16.9613C60.776 17.3458 60.5951 17.7042 60.4006 18.0363C60.439 18.1626 60.4191 18.279 60.341 18.3854C60.2814 18.489 60.2126 18.594 60.1345 18.7004C59.9656 19.1986 59.8755 19.6563 59.8641 20.0735C59.8499 20.4723 59.8499 20.7178 59.8641 20.8101C59.9095 21.1053 60.0024 21.4026 60.1429 21.7021C60.2834 22.0015 60.4622 22.1818 60.6793 22.2428Z" fill="#2F94F9"/>
<path d="M46.4088 25.3725C46.0327 25.5059 45.7879 25.5718 45.6744 25.5704C45.5764 25.5477 45.4118 25.4597 45.1805 25.3064C44.8626 25.2042 44.5851 25.058 44.3481 24.8679C44.1296 24.6748 43.9558 24.4655 43.8266 24.2398C43.7131 23.9929 43.6528 23.785 43.6457 23.6161C43.6017 22.9618 43.6521 22.2459 43.7969 21.4681C43.9417 20.6904 44.1461 19.9319 44.4101 19.1925C44.6741 18.4531 44.9814 17.8109 45.332 17.266C45.6982 16.6997 46.0729 16.3116 46.456 16.1016C46.8023 15.8972 47.1444 15.7879 47.4821 15.7738C47.8199 15.7596 48.0867 15.898 48.2826 16.1889C48.6416 16.6814 48.6295 17.0326 48.2463 17.2427C48.191 17.2512 48.1307 17.2888 48.0654 17.3555C47.9972 17.4037 47.9689 17.4648 47.9802 17.5386C48.0597 17.5641 48.264 17.5421 48.5933 17.4726C48.9197 17.3846 49.2433 17.2782 49.5641 17.1533C49.9004 17.0072 50.1168 16.8794 50.2133 16.7702C50.3155 16.6978 50.3943 16.6573 50.4497 16.6488C50.505 16.6403 50.6462 16.6375 50.8733 16.6403C51.2011 16.6843 51.375 16.7709 51.3948 16.9001C51.4062 16.9739 51.4452 17.0434 51.5119 17.1087C51.5758 17.1555 51.6446 17.1733 51.7184 17.1619C51.8504 17.1605 51.8447 17.2464 51.7014 17.4195C51.5765 17.5898 51.3494 17.8325 51.0201 18.1475C50.7036 18.4228 50.5049 18.6045 50.424 18.6925C50.3587 18.7592 50.3694 18.8897 50.4559 19.0842C50.6574 19.412 50.7291 19.8165 50.6709 20.2976C50.6127 20.7787 50.4544 21.2847 50.1961 21.8154C49.9378 22.3462 49.6014 22.8606 49.187 23.3588C48.7882 23.8356 48.3439 24.2627 47.8543 24.6402C47.3803 24.9964 46.8984 25.2405 46.4088 25.3725ZM45.7511 24.2272C45.8249 24.2158 45.9483 24.159 46.1215 24.0569C46.2918 23.9362 46.428 23.8397 46.5302 23.7674C46.5927 23.6822 46.6721 23.585 46.7687 23.4757C46.8808 23.3452 46.9723 23.265 47.0433 23.2352C47.1171 23.2238 47.2051 23.182 47.3073 23.1096C47.4066 23.0188 47.5421 22.8563 47.7139 22.6221C47.8828 22.3695 48.1006 22.0055 48.3675 21.5301C48.674 21.0674 48.9033 20.6545 49.0551 20.2911C49.2042 19.9094 49.2099 19.578 49.0722 19.297C49.0424 19.226 48.98 19.1884 48.8849 19.1842C48.8082 19.1771 48.6997 19.1465 48.5592 19.0926C48.3747 19.121 48.1923 19.1018 48.0121 19.0351C47.8474 18.9471 47.6509 18.8357 47.4224 18.7009L46.8945 18.2155L46.4964 18.7583C46.2466 19.0989 46.001 19.5899 45.7597 20.2314C45.5341 20.8516 45.3573 21.4831 45.2296 22.126C45.099 22.7504 45.0422 23.2408 45.0592 23.597C45.0833 23.8766 45.1578 24.054 45.2827 24.1292C45.4076 24.2044 45.5637 24.2371 45.7511 24.2272Z" fill="#2F94F9"/>
<path d="M34.4874 27.6593C34.283 27.5585 34.1262 27.4598 34.0169 27.3633C33.9077 27.2668 33.8466 27.1157 33.8339 26.9099C33.8282 26.6275 33.8396 26.333 33.868 26.0264C33.8935 25.7014 33.939 25.3828 34.0043 25.0706C34.0085 24.73 34.022 24.388 34.0448 24.0445C34.0859 23.6982 34.1853 23.3619 34.3428 23.0355C34.5203 22.1017 34.6743 21.1998 34.8049 20.3298C34.9511 19.4386 35.1669 18.3855 35.4522 17.1707C35.5132 16.9536 35.5736 16.7932 35.6332 16.6896C35.7084 16.5647 35.7744 16.4412 35.8312 16.3192C35.8383 16.2426 35.8879 16.1971 35.9802 16.183C36.088 16.1475 36.2108 16.1475 36.3485 16.183C36.4833 16.2 36.5947 16.249 36.6827 16.3299C36.7536 16.3001 36.8736 16.4044 37.0424 16.6428C37.2298 16.8784 37.3163 17.0729 37.3021 17.2261C37.3135 17.2999 37.3106 17.4042 37.2936 17.5391C37.2766 17.6739 37.2397 17.8023 37.1829 17.9244C37.1204 18.0095 37.0637 18.1316 37.0126 18.2905C36.9586 18.431 36.8749 18.6233 36.7613 18.8674C36.6563 19.4124 36.5662 19.8701 36.4909 20.2405C36.4157 20.6109 36.3199 21.0317 36.2035 21.5028C36.1027 21.7072 36.0395 21.9719 36.014 22.2969C35.9884 22.6219 35.9614 22.9376 35.933 23.2442C35.855 23.5961 35.7819 23.919 35.7137 24.2128C35.664 24.5037 35.6449 24.6861 35.6562 24.7599C35.5895 25.1856 35.5505 25.6071 35.5391 26.0244C35.5249 26.4232 35.4574 26.7829 35.3368 27.1037C35.3609 27.3833 35.3063 27.5805 35.1729 27.6955C35.0579 27.8076 34.8294 27.7955 34.4874 27.6593ZM41.1697 27.0848C40.8688 27.0933 40.6389 27.072 40.48 27.0209C40.3182 26.9513 40.0117 26.8002 39.5604 26.5674C39.3049 26.3801 38.948 26.0856 38.4896 25.6839C38.0312 25.2823 37.5686 24.8529 37.1017 24.3959C36.632 23.9205 36.2396 23.5181 35.9245 23.1888L36.8251 21.4922C37.1103 21.7505 37.3466 21.9975 37.5339 22.2331C37.7213 22.4687 37.8681 22.6255 37.9746 22.7036C38.4954 23.2656 38.9055 23.7219 39.205 24.0724C39.5229 24.4202 39.8017 24.6983 40.0415 24.907C40.2814 25.1156 40.5262 25.2951 40.776 25.4456C41.0442 25.5932 41.3692 25.7415 41.7509 25.8905C41.812 25.9189 41.8758 25.9658 41.9425 26.0311C42.0092 26.0963 42.0447 26.2042 42.0489 26.3546C42.0064 26.5689 41.9432 26.7109 41.8595 26.7804C41.7913 26.8286 41.5614 26.9301 41.1697 27.0848ZM35.7947 22.8972C35.6357 22.6006 35.6244 22.2812 35.7607 21.9392C35.9125 21.5759 36.0985 21.3112 36.3184 21.1452C36.3724 21.0047 36.4334 20.9103 36.5015 20.8621C36.5853 20.7925 36.6307 20.7195 36.6378 20.6428C36.6633 20.5633 36.74 20.4477 36.8677 20.2958C37.0139 20.1412 37.1431 19.9985 37.2552 19.868C37.522 19.6381 37.82 19.3656 38.1493 19.0505C38.4942 18.7142 38.8206 18.3807 39.1286 18.0501C39.4366 17.7194 39.6949 17.4341 39.9035 17.1943C40.1306 16.9516 40.2676 16.7984 40.3144 16.7345C40.3584 16.6522 40.4251 16.5947 40.5145 16.5621C40.6195 16.5082 40.7607 16.5053 40.9381 16.5536C41.1681 16.5749 41.3298 16.6444 41.4235 16.7622C41.5143 16.8616 41.5853 17.0773 41.6364 17.4094C41.7229 17.6038 41.6739 17.838 41.4894 18.1119C41.3205 18.3645 41.0452 18.6618 40.6634 19.0038C40.53 19.1188 40.3483 19.2884 40.1184 19.5126C39.907 19.734 39.7217 19.9419 39.5628 20.1363C39.445 20.23 39.2711 20.3889 39.0412 20.6131C38.8269 20.8161 38.6403 21.0147 38.4813 21.2092C38.3479 21.3241 38.1797 21.52 37.9768 21.7967C37.771 22.055 37.5566 22.2579 37.3338 22.4055C36.8286 23.0498 36.4865 23.4046 36.3077 23.4699C36.1289 23.5351 35.9579 23.3442 35.7947 22.8972Z" fill="#2F94F9"/>
<path d="M29.3653 28.5321C29.1326 28.4923 28.8856 28.4831 28.6245 28.5044C28.3605 28.5072 28.1221 28.4305 27.9092 28.2744C27.6325 28.0715 27.4054 27.8231 27.2281 27.5293C27.0663 27.2142 26.9968 26.885 27.0195 26.5415C27.0436 26.3301 27.0415 26.1321 27.0131 25.9476C26.9819 25.7447 26.9982 25.5438 27.0621 25.3452C27.0493 25.1394 27.0671 24.9478 27.1154 24.7704C27.1608 24.5745 27.2062 24.3787 27.2516 24.1828C27.3325 23.8493 27.395 23.5187 27.439 23.1908C27.5015 22.8602 27.5838 22.5359 27.686 22.218C27.8748 21.6035 28.0848 21.0046 28.3162 20.4213C28.566 19.8352 28.7761 19.2363 28.9464 18.6246C28.9975 18.4657 29.0663 18.3606 29.1529 18.3096C29.2551 18.2372 29.3615 18.1925 29.4722 18.1755C29.6198 18.1528 29.7717 18.1577 29.9278 18.1904C30.0839 18.223 30.2201 18.2493 30.3365 18.2692C30.4174 18.4267 30.5217 18.5523 30.6494 18.646C30.7772 18.7396 30.8382 18.8908 30.8325 19.0994C30.6309 19.5081 30.44 19.9247 30.2598 20.349C30.0951 20.752 29.9319 21.1643 29.7701 21.5858C29.6239 21.986 29.4806 22.4047 29.34 22.8418C29.2534 23.1384 29.1974 23.4492 29.1718 23.7742C29.1463 24.0992 29.0902 24.41 29.0036 24.7066C28.9199 25.0217 28.8758 25.3495 28.8716 25.6901C28.8645 26.0123 28.8389 26.3373 28.7949 26.6651C28.7906 26.7602 28.8048 26.8524 28.8375 26.9418C28.8857 27.01 28.9588 27.0554 29.0567 27.0781C29.3008 26.9461 29.5464 26.8234 29.7933 26.7098C30.0402 26.5963 30.2524 26.4409 30.4298 26.2437C30.7534 25.8917 31.0089 25.588 31.1962 25.3326C31.3807 25.0587 31.5149 24.7642 31.5986 24.4491C31.6795 24.1156 31.7094 23.6955 31.6881 23.1889C31.6895 23.0753 31.6647 22.9753 31.6136 22.8887C31.5597 22.7837 31.4901 22.7 31.405 22.6375C31.2276 22.5893 31.058 22.5303 30.8962 22.4608C30.75 22.37 30.6301 22.2656 30.5365 22.1478C30.4584 22.0088 30.4329 21.8427 30.4598 21.6497C30.4939 21.3801 30.6131 21.1729 30.8175 21.0281C31.0403 20.8805 31.2546 20.8003 31.4604 20.7876C31.5001 20.8004 31.5307 20.8146 31.5519 20.8302C31.5917 20.8429 31.6236 20.8664 31.6477 20.9004C31.8067 20.9515 31.9699 21.0303 32.1374 21.1367C32.302 21.2247 32.4467 21.3063 32.5716 21.3816C32.6766 21.5732 32.8122 21.779 32.9782 21.9989C33.1442 22.2189 33.2656 22.578 33.3422 23.0761C33.5011 24.1093 33.3534 24.9913 32.8993 25.7222C32.4635 26.4502 31.8398 27.1222 31.028 27.7381C30.9102 27.8318 30.7803 27.9084 30.6384 27.968C30.5121 28.0063 30.4007 28.0801 30.3041 28.1894C30.2829 28.1738 30.2013 28.1958 30.0593 28.2554C29.9146 28.2965 29.7712 28.3469 29.6293 28.4065C29.4874 28.4661 29.3994 28.5079 29.3653 28.5321Z" fill="#2F94F9"/>
<path d="M17.6255 30.7626C17.546 30.7371 17.4332 30.6789 17.287 30.588C17.1593 30.4944 17.0408 30.3993 16.9315 30.3028C16.8677 30.2559 16.8145 30.2169 16.7719 30.1857C16.7265 30.136 16.6839 30.1048 16.6442 30.092C16.6243 29.9628 16.6378 29.8663 16.6846 29.8025C16.7499 29.7358 16.8138 29.6598 16.8762 29.5747C16.933 29.4527 17.0444 29.3789 17.2105 29.3533C17.3765 29.3278 17.4986 29.2618 17.5766 29.1554C17.8718 28.8644 18.1748 28.5629 18.4857 28.2507C18.7965 27.9384 19.0449 27.5886 19.2308 27.2012C19.4323 26.7925 19.6296 26.3561 19.8227 25.892C20.0157 25.4279 20.2009 24.9745 20.3783 24.5317C20.4323 24.3912 20.5167 24.1422 20.6317 23.7845C20.7467 23.4269 20.8538 23.0799 20.9532 22.7436C21.0682 22.3859 21.1249 22.1411 21.1235 22.0091C20.949 21.9793 20.785 21.9573 20.6318 21.9431C20.4941 21.9076 20.3579 21.8814 20.223 21.8643C20.0173 21.6316 19.9023 21.4982 19.8782 21.4641C19.8512 21.4116 19.8151 21.2377 19.7697 20.9425C19.7356 20.7211 19.8342 20.5643 20.0656 20.4721C20.5808 20.2607 21.0385 20.1053 21.4387 20.0059C21.8573 19.9038 22.2611 19.7661 22.65 19.593C22.8969 19.4795 23.2063 19.4036 23.5781 19.3653C23.95 19.327 24.3317 19.3532 24.7234 19.4441C24.9008 19.4923 25.0534 19.5633 25.1811 19.657C25.3088 19.7507 25.4302 19.8642 25.5451 19.9976C25.8361 20.2928 26 20.5603 26.0368 20.8002C26.0922 21.0372 26.1184 21.2692 26.1156 21.4963C26.1127 21.7234 26.1787 21.9682 26.3135 22.2308C26.261 22.7488 26.2 23.2114 26.1304 23.6187C26.058 24.0076 25.992 24.3766 25.9324 24.7257C25.8699 25.0564 25.8138 25.3672 25.7641 25.6581C25.7145 25.949 25.6832 26.2371 25.6704 26.5224C25.642 26.8289 25.5952 27.1383 25.5299 27.4505C25.4646 27.7628 25.4284 28.08 25.4213 28.4021C25.4213 28.6476 25.3375 28.8399 25.1701 28.979C25.021 29.1152 24.8521 29.2451 24.6634 29.3686C24.5924 29.3984 24.4604 29.3998 24.2674 29.3728C24.09 29.3245 23.9176 29.2472 23.7501 29.1407C23.6636 28.9463 23.6168 28.7646 23.6097 28.5958C23.6026 28.4269 23.6139 28.2551 23.6438 28.0806C23.6764 27.9245 23.7268 27.5768 23.7949 27.0375C23.8631 26.4982 23.9398 25.8915 24.0249 25.2174C24.1101 24.5432 24.1932 23.9167 24.2741 23.3376C24.355 22.7586 24.4061 22.3541 24.4274 22.1242C24.4743 21.8148 24.4679 21.5892 24.4083 21.4473C24.3671 21.3025 24.3182 21.1684 24.2614 21.0449C23.8513 20.9569 23.5767 20.9519 23.4376 21.03C23.3141 21.0867 23.1537 21.1492 22.9565 21.2173C22.8756 21.3053 22.8145 21.3997 22.7734 21.5004C22.7322 21.6012 22.7095 21.6991 22.7052 21.7942C22.5846 22.3604 22.4746 22.8117 22.3752 23.1481C22.2943 23.4816 22.2091 23.7874 22.1197 24.0656C22.0275 24.3253 21.921 24.6155 21.8004 24.9363C21.6982 25.2542 21.5669 25.6898 21.4065 26.2433C21.3099 26.5981 21.1723 26.9309 20.9934 27.2417C20.8331 27.5497 20.694 27.8732 20.5761 28.2124L20.3313 28.6467C20.3498 28.6439 20.2873 28.729 20.144 28.9021C20.0006 29.0753 19.8573 29.2484 19.7139 29.4216C19.589 29.5918 19.5266 29.677 19.5266 29.677L18.7708 30.4731C18.6899 30.5611 18.5388 30.6221 18.3174 30.6562C18.096 30.6902 17.8654 30.7257 17.6255 30.7626Z" fill="#2F94F9"/>
<path d="M12.2924 31.2712C12.0525 31.3081 11.8517 31.2917 11.6899 31.2222C11.5466 31.1498 11.3607 31.0462 11.1322 30.9114C10.7249 30.5963 10.4219 30.284 10.2232 29.9746C10.0217 29.6468 9.92451 29.3218 9.93162 28.9996C9.96427 28.8435 9.96143 28.7023 9.92312 28.576C9.90042 28.4284 9.88907 28.3546 9.88907 28.3546C9.78263 28.2765 9.74644 28.2255 9.78051 28.2013C9.81173 28.1588 9.84012 28.0977 9.86567 28.0183C9.97637 28.0012 9.99766 27.8941 9.92955 27.6968C9.86995 27.5549 9.89409 27.2207 10.002 26.6941C10.1099 26.1676 10.2681 25.6617 10.4768 25.1763C10.5591 24.9748 10.6882 24.7094 10.8642 24.3802C11.0374 24.0325 11.2304 23.6912 11.4433 23.3563C11.6718 23 11.8826 22.7127 12.0756 22.4941C12.4773 22.0357 12.8392 21.6873 13.1613 21.4489C13.4835 21.2105 13.8405 21.014 14.2322 20.8593C14.6239 20.7046 14.8935 20.6159 15.0411 20.5932C15.2072 20.5677 15.4513 20.6812 15.7734 20.9339C16.2261 21.0531 16.5646 21.2277 16.7888 21.4576C17.0315 21.6847 17.2188 22.043 17.3508 22.5327C17.4913 23.0777 17.543 23.7213 17.5061 24.4635C17.4848 25.1845 17.186 26.1275 16.6097 27.2926C16.2506 28.0278 15.9029 28.5912 15.5666 28.9829C15.2273 29.3561 14.8143 29.7407 14.3275 30.1366C13.9798 30.4545 13.6591 30.7021 13.3653 30.8795C13.0687 31.0385 12.711 31.169 12.2924 31.2712ZM14.4979 27.9291C14.8641 27.3628 15.1423 26.8384 15.3325 26.3559C15.5411 25.8705 15.7129 25.2681 15.8478 24.5486C15.8903 24.3343 15.8982 24.0781 15.8712 23.7801C15.8414 23.4636 15.7882 23.179 15.7116 22.9264C15.6506 22.6525 15.5619 22.5056 15.4455 22.4858C15.2042 22.3907 14.931 22.3949 14.6259 22.4985C14.3179 22.5836 14.0036 22.8114 13.6828 23.1818C13.1847 23.7494 12.7787 24.4257 12.4651 25.2105C12.1485 25.9768 11.8569 26.8432 11.59 27.8097C11.4154 28.5165 11.4331 29.0614 11.6432 29.4446C11.8688 29.8065 12.2314 29.8924 12.731 29.7023C13.2461 29.4908 13.8351 28.8998 14.4979 27.9291Z" fill="#2F94F9"/>
<path d="M5.0257 34.0603C4.8781 34.083 4.69361 33.9886 4.47223 33.7771C4.25084 33.5656 4.13235 33.3478 4.11674 33.1236C4.08979 32.8255 4.10755 32.3884 4.17002 31.8122C4.23249 31.236 4.31199 30.6478 4.40853 30.0474C4.50506 29.4471 4.60159 28.9696 4.69811 28.6148C4.72651 28.3082 4.75135 28.04 4.77265 27.8101C4.80956 27.5589 4.83157 27.395 4.83867 27.3183C4.88267 27.236 4.93589 27.0295 4.99835 26.6989C5.07926 26.3654 5.13392 26.0453 5.16231 25.7388C5.17651 25.5855 5.20775 25.2974 5.25602 24.8745C5.3199 24.4303 5.39231 23.9187 5.47323 23.3396C5.5726 22.7578 5.66416 22.1866 5.74792 21.626C5.85013 21.0626 5.93459 20.568 6.00131 20.1422C6.06803 19.7165 6.10991 19.4362 6.12695 19.3013C6.24049 19.0572 6.31856 18.828 6.36115 18.6137C6.40373 18.3994 6.42857 18.254 6.43567 18.1773C6.53502 18.0865 6.58541 17.9843 6.58683 17.8708C6.58542 17.7388 6.57904 17.6359 6.56769 17.5621C6.5535 17.4699 6.56982 17.3918 6.61666 17.328C6.68195 17.2613 6.70891 17.191 6.69756 17.1172C6.76285 17.0505 6.7962 16.9604 6.79763 16.8469C6.79622 16.7149 6.83454 16.5957 6.9126 16.4892L6.97862 15.9975L8.60716 15.7187C8.60431 15.9457 8.59153 16.231 8.5688 16.5745C8.54324 16.8994 8.43324 17.3508 8.23878 17.9284C8.20328 18.3115 8.14366 18.6607 8.05991 18.9757C7.99462 19.2879 7.97829 19.4888 8.01092 19.5782C7.9797 19.6207 7.92505 19.818 7.84698 20.17C7.78736 20.5191 7.71141 20.9463 7.61914 21.4515C7.54532 21.9539 7.46227 22.4577 7.37 22.9629C7.29618 23.4653 7.22308 23.9109 7.15068 24.2998C7.09389 24.6674 7.05415 24.9001 7.03143 24.998C6.92924 25.3159 6.82987 25.7751 6.73334 26.3754C6.63681 26.9757 6.47924 27.7931 6.26064 28.8277C6.15844 29.1456 6.04205 29.6168 5.91145 30.2412C5.79931 30.8628 5.71555 31.4234 5.66018 31.923C5.5679 32.6737 5.49691 33.1946 5.44723 33.4855C5.41883 33.7921 5.37838 33.9588 5.32586 33.9858C5.27619 34.0312 5.17614 34.056 5.0257 34.0603ZM2.7103 17.5322C2.19655 17.6301 1.80485 17.662 1.5352 17.6279C1.284 17.591 1.1726 17.4193 1.201 17.1127C1.2223 16.8828 1.31668 16.6983 1.48416 16.5592C1.65163 16.4202 1.90638 16.296 2.24841 16.1867C2.44568 16.1186 2.69689 16.0328 3.00202 15.9292C3.3256 15.8228 3.63073 15.7192 3.91742 15.6184C4.51491 15.451 5.00312 15.3098 5.38205 15.1948C5.77943 15.0771 6.18746 14.9671 6.60613 14.8649C7.02479 14.7628 7.55416 14.6436 8.19423 14.5074C8.72359 14.3882 9.17136 14.291 9.53751 14.2158C9.91928 14.1193 10.1102 14.0711 10.1102 14.0711C10.1655 14.0625 10.3621 14.0512 10.6998 14.037C11.0376 14.0228 11.4045 14.0136 11.8004 14.0094C12.1964 14.0052 12.4923 14.0257 12.6881 14.0712C13.1267 14.0982 13.451 14.1805 13.661 14.3182C13.8895 14.453 14.0647 14.6716 14.1868 14.9738C14.2762 15.1867 14.2975 15.3251 14.2506 15.389C14.201 15.4344 14.108 15.5053 13.9717 15.6018C13.5673 15.7962 13.2635 15.9091 13.0606 15.9403C12.8577 15.9715 12.6199 15.9608 12.3475 15.9083C12.241 15.8302 12.1176 15.7642 11.9771 15.7103C11.855 15.6535 11.6435 15.6294 11.3427 15.6379C11.0574 15.6251 10.6075 15.6471 9.99301 15.7038C9.48493 15.8386 9.03717 15.9358 8.64972 15.9954C8.26228 16.055 8.07565 16.1309 8.08984 16.2232L6.46981 16.5573L5.13503 16.9043C4.95337 16.9511 4.69933 17.0185 4.37291 17.1065C4.04366 17.176 3.72504 17.2533 3.41707 17.3385C3.10626 17.4052 2.87067 17.4697 2.7103 17.5322Z" fill="#2F94F9"/>
<path d="M95.4964 49.0141C93.6825 47.7993 91.8718 46.5812 90.0789 45.3371C89.8767 45.1952 89.6695 45.0533 89.4705 44.9066C89.4122 44.8642 89.354 44.8185 89.2957 44.781C89.1388 44.6392 88.9268 44.543 88.6582 44.5348C88.409 44.5267 88.1032 44.6522 87.9332 44.8349C87.6938 45.0941 87.5514 45.4855 87.6727 45.836C87.8378 46.3252 88.2779 46.5666 88.6711 46.847C89.1566 47.1895 89.6485 47.527 90.142 47.8613C90.7213 48.2575 91.3055 48.6505 91.8864 49.0418C85.4233 49.7723 78.0838 48.1744 73.8618 42.7803C72.4912 41.0274 71.5592 38.906 71.0042 36.7324C70.6773 35.4508 68.7096 35.9938 69.0365 37.2787C70.1093 41.5149 72.5365 45.205 76.14 47.6691C79.4167 49.9063 83.3809 50.9662 87.2955 51.2092C88.637 51.2924 89.9801 51.2679 91.3182 51.1554C89.9266 51.9022 88.4606 52.4957 86.9475 52.967C85.6967 53.3551 86.2307 55.3428 87.4896 54.9498C89.6142 54.2911 91.6934 53.4056 93.5786 52.2153C94.3165 51.7522 95.0705 51.2434 95.7032 50.6336C96.2048 50.1542 96.0268 49.3731 95.4961 49.0176L95.4964 49.0141ZM89.6357 45.2865C89.6276 45.311 89.6227 45.3371 89.6147 45.3615C89.6066 45.3191 89.5985 45.2735 89.5823 45.2327C89.6195 45.2914 89.6438 45.3208 89.6325 45.2865L89.6357 45.2865ZM89.3752 44.856L89.3671 44.8479C89.3671 44.8479 89.3719 44.8479 89.3752 44.8528V44.856Z" fill="#2F94F9"/>
</svg>
